<svg width="18" height="23" viewBox="0 0 18 23" fill="none" xmlns="http://www.w3.org/2000/svg">
<path d="M12.4315 0H2.95342C2.17012 0 1.41891 0.30789 0.865036 0.855937C0.311163 1.40398 0 2.1473 0 2.92235V19.3281C0 20.1031 0.311163 20.8464 0.865036 21.3945C1.41891 21.9425 2.17012 22.2504 2.95342 22.2504H15.0389C15.8222 22.2504 16.5734 21.9425 17.1273 21.3945C17.6812 20.8464 17.9924 20.1031 17.9924 19.3281V6.14767L12.4315 0ZM12.8203 2.5174L15.7134 5.71588H12.8203V2.5174ZM15.0389 20.8578H2.95342C2.54359 20.8574 2.15069 20.696 1.86096 20.4092C1.57122 20.1224 1.40832 19.7336 1.408 19.3281V2.92116C1.40832 2.51564 1.57122 2.12681 1.86096 1.84001C2.15069 1.55321 2.54359 1.39187 2.95342 1.3914H11.4159V7.10787H16.5838V19.3287C16.5833 19.7341 16.4203 20.1228 16.1306 20.4094C15.8409 20.6961 15.4481 20.8574 15.0383 20.8578H15.0389Z" fill="white"/>
<path d="M9.64041 9.10522H8.23422V12.0526H5.25488V13.4446H8.23422V16.392H9.64041V13.4446H12.6191V12.0526H9.64041V9.10522Z" fill="white"/>
</svg>
