<svg width="105" height="19" viewBox="0 0 105 19" fill="none" xmlns="http://www.w3.org/2000/svg">
<g clip-path="url(#clip0_243_342)">
<path d="M80.727 15.0856C80.7252 14.4157 80.5896 13.753 80.3284 13.1365C80.0672 12.52 79.6855 11.9623 79.206 11.4962C79.9222 10.8014 80.4146 9.9073 80.6196 8.92913C80.8246 7.95096 80.7329 6.93361 80.3562 6.00823C79.9796 5.08285 79.3354 4.2919 78.5066 3.73737C77.6778 3.18284 76.7024 2.89018 75.7062 2.89709H62.2423C61.8346 2.89709 61.4434 3.05914 61.1544 3.34781C60.8654 3.63648 60.7021 4.02826 60.7002 4.43744V19.0001H64.2563V12.9094H75.7062C76.1814 12.9276 76.631 13.13 76.9605 13.4739C77.2901 13.8178 77.4741 14.2764 77.4737 14.7535V18.993H80.6989V15.0856H80.727ZM64.2563 9.81452V6.02017H75.7062C75.9642 6.00437 76.2227 6.04169 76.4658 6.12989C76.7089 6.21808 76.9314 6.35527 77.1197 6.53299C77.3079 6.71071 77.4579 6.9252 77.5605 7.16328C77.663 7.40136 77.7159 7.65799 77.7159 7.91735C77.7159 8.17671 77.663 8.43333 77.5605 8.67141C77.4579 8.90949 77.3079 9.12398 77.1197 9.3017C76.9314 9.47942 76.7089 9.61661 76.4658 9.7048C76.2227 9.793 75.9642 9.83032 75.7062 9.81452H64.2563Z" fill="white"/>
<path d="M52.5526 2.89697H40.307C39.2754 2.89884 38.2868 3.31134 37.558 4.04392C36.8292 4.7765 36.4199 5.76927 36.4199 6.80435V15.0855C36.4199 16.1206 36.8292 17.1134 37.558 17.846C38.2868 18.5785 39.2754 18.991 40.307 18.9929H52.5526C53.5854 18.9929 54.5759 18.5812 55.3062 17.8485C56.0365 17.1157 56.4467 16.1218 56.4467 15.0855V6.80435C56.4467 5.76804 56.0365 4.7742 55.3062 4.04142C54.5759 3.30864 53.5854 2.89697 52.5526 2.89697ZM52.9259 13.6511C52.924 14.2465 52.6875 14.8169 52.2679 15.2379C51.8484 15.6589 51.2799 15.8962 50.6866 15.8981H42.1519C41.558 15.8981 40.9885 15.6613 40.5685 15.24C40.1486 14.8186 39.9127 14.2471 39.9127 13.6511V8.23873C39.9127 7.64281 40.1486 7.0713 40.5685 6.64992C40.9885 6.22853 41.558 5.99181 42.1519 5.99181H50.6866C51.2799 5.99367 51.8484 6.23096 52.2679 6.65194C52.6875 7.07292 52.924 7.64338 52.9259 8.23873V13.6511Z" fill="white"/>
<path d="M29.2308 3.30705L22.4425 10.1185C22.4109 10.1523 22.3727 10.1792 22.3303 10.1976C22.288 10.2161 22.2423 10.2256 22.1961 10.2256C22.1499 10.2256 22.1042 10.2161 22.0618 10.1976C22.0194 10.1792 21.9812 10.1523 21.9496 10.1185L15.1613 3.30705C14.9184 3.05953 14.6075 2.89039 14.2682 2.82123C13.929 2.75207 13.5769 2.78603 13.257 2.91882C12.9371 3.05162 12.664 3.27718 12.4726 3.56662C12.2812 3.85607 12.1803 4.19621 12.1827 4.54357V19.0003H15.7035V8.77603L21.337 14.4287C21.5834 14.6597 21.9081 14.7881 22.2453 14.7881C22.5826 14.7881 22.9073 14.6597 23.1537 14.4287L28.7872 8.77603V19.0003H32.3081V4.54357C32.3349 4.17418 32.2439 3.8058 32.0483 3.49171C31.8527 3.17763 31.5626 2.93416 31.2199 2.79647C30.8773 2.65879 30.4999 2.63404 30.1423 2.72583C29.7847 2.81762 29.4655 3.02117 29.2308 3.30705Z" fill="white"/>
<path d="M86.5436 2.88281C86.1308 2.88281 85.735 3.04732 85.4431 3.34017C85.1513 3.63301 84.9873 4.03023 84.9873 4.44438C84.9873 4.85852 85.1513 5.25569 85.4431 5.54854C85.735 5.84139 86.1308 6.00589 86.5436 6.00589H105V2.88281H86.5436Z" fill="white"/>
<path d="M88.4732 12.231H105V9.10791H86.5226C86.1136 9.10791 85.7214 9.27093 85.4322 9.56113C85.143 9.85132 84.9805 10.2449 84.9805 10.6553V17.4456C84.9805 17.856 85.143 18.2496 85.4322 18.5398C85.7214 18.83 86.1136 18.993 86.5226 18.993H105V15.8628H88.4732V12.231Z" fill="white"/>
<path d="M4.21042 0C3.88085 0.854478 3.30038 1.58837 2.54588 2.10444C1.79139 2.62051 0.89846 2.89444 -0.0146484 2.88994V5.07326H1.78805C1.90771 5.06113 2.02856 5.07482 2.14254 5.11332C2.25652 5.15183 2.36102 5.21429 2.44901 5.29657C2.537 5.37883 2.60646 5.47897 2.65277 5.59034C2.69909 5.70171 2.72118 5.82176 2.71757 5.94238V19H6.51307V0H4.21042Z" fill="white"/>
</g>
<defs>
<clipPath id="clip0_243_342">
<rect width="105" height="19" fill="white"/>
</clipPath>
</defs>
</svg>
