<svg width="1000" height="500" viewBox="0 0 1000 500" fill="none" xmlns="http://www.w3.org/2000/svg">
<path d="M541.43 125H278V374.529H541.43V125Z" fill="black"/>
<path d="M401.479 253.977C401.479 263.674 401.516 273.359 401.479 283.043C401.455 289.479 401.109 295.89 400.356 302.302C398.775 315.84 388.392 329.194 373.588 333.073C367.588 334.642 361.513 335.259 355.327 335.136C349.623 335.025 343.968 334.543 338.412 333.221C331.338 331.541 324.979 328.502 320.102 322.956C314.299 316.359 310.533 308.75 309.743 299.905C309.274 294.643 308.904 289.356 308.879 284.069C308.78 264.625 308.805 245.182 308.854 225.738C308.879 217.598 309.447 209.506 310.966 201.465C313.311 189.038 320.695 180.872 332.017 175.906C338.338 173.139 345.005 171.99 351.858 171.743C358.612 171.509 365.266 172.089 371.748 174.066C378.564 176.153 384.873 179.242 390.071 184.232C394.96 188.914 397.985 194.708 399.553 201.255C400.714 206.122 401.146 211.088 401.232 216.078C401.43 228.703 401.504 241.328 401.615 253.965C401.578 253.965 401.541 253.965 401.504 253.965L401.479 253.977ZM362.118 253.248C362.118 239.438 362.167 225.639 362.081 211.829C362.056 208.073 361.698 204.293 361.303 200.55C361.031 198.055 359.55 196.573 357.278 196.178C352.87 195.412 349.635 196.709 348.895 201.835C348.882 201.922 348.87 202.02 348.858 202.107C348.611 206.208 348.191 210.309 348.166 214.41C348.067 226.726 348.117 239.055 348.142 251.37C348.179 267.244 348.216 283.13 348.339 299.003C348.364 301.585 348.771 304.179 349.08 306.749C349.228 308.021 349.882 309.071 350.969 309.825C354.994 312.604 360.587 310.43 361.303 305.649C361.809 302.24 362.069 298.756 362.093 295.31C362.18 281.289 362.13 267.269 362.13 253.236L362.118 253.248Z" fill="white"/>
<path d="M454.286 254.039H415.308C415.863 227.616 416.407 201.242 416.962 174.795H501.241V199.945H452.694V226.171C453.509 225.392 454.299 224.626 455.101 223.873C461.349 217.968 468.856 215.584 477.325 215.831C481.992 215.967 486.573 216.597 490.931 218.314C498.648 221.353 503.587 226.912 505.957 234.842C507.649 240.488 508.6 246.256 508.686 252.112C508.884 264.551 508.908 276.991 508.847 289.43C508.822 295.273 508.612 301.153 507.328 306.872C504.587 319.065 497.315 327.403 485.561 331.726C479.906 333.802 474.029 334.716 468.041 335.025C460.88 335.395 453.768 335.062 446.755 333.419C441.088 332.085 435.692 330.083 430.815 326.847C423.444 321.955 419.185 314.976 417.234 306.452C415.715 299.844 415.123 293.148 414.999 286.391C414.925 282.302 414.95 278.226 414.925 274.137C414.925 273.803 414.925 273.47 414.925 273.062H454.237C454.249 273.384 454.286 273.717 454.286 274.038C454.311 279.893 454.2 285.749 454.385 291.592C454.533 296.064 454.817 300.56 455.484 304.982C456.361 310.825 461.46 311.492 464.979 310.492C467.51 309.775 469.238 307.292 469.325 304.513C469.411 301.548 469.498 298.571 469.51 295.606C469.559 281.586 469.584 267.565 469.584 253.532C469.584 250.679 469.374 247.838 468.51 245.095C467.362 241.426 464.571 239.709 460.657 240.179C457.521 240.549 454.793 243.403 454.546 246.701C454.385 248.801 454.373 250.901 454.299 253.001C454.299 253.335 454.299 253.656 454.299 254.026L454.286 254.039Z" fill="white"/>
<path d="M721.531 197.845V332.678C721.272 332.69 721.037 332.727 720.79 332.727C708.098 332.727 695.405 332.727 682.713 332.727C681.664 332.727 681.725 332.727 681.799 331.64C681.997 328.774 682.133 325.908 682.269 323.042C682.269 322.857 682.096 322.659 682.009 322.474C681.775 322.61 681.491 322.684 681.33 322.882C679.923 324.562 678.639 326.365 677.108 327.922C674.922 330.158 672.342 331.801 669.49 332.999C663.897 335.358 658.118 335.568 652.229 334.728C649.315 334.308 646.512 333.518 643.895 332.134C640.475 330.318 637.573 327.848 635.536 324.413C634.129 322.042 633.19 319.46 632.4 316.792C631.548 313.913 631.277 310.986 631.165 308.009C631.042 304.538 630.906 301.054 630.82 297.583C630.746 294.396 630.709 291.209 630.696 288.022C630.696 258.313 630.696 228.592 630.696 198.883C630.696 197.882 630.709 197.87 631.684 197.87C644.228 197.87 656.76 197.87 669.304 197.845C669.823 197.845 670.008 198.031 669.996 198.537C669.996 198.883 669.996 199.229 669.996 199.575C669.996 230.136 669.984 260.697 670.008 291.271C670.008 295.841 670.23 300.399 670.416 304.97C670.465 306.094 670.724 307.231 670.971 308.342C671.342 309.998 672.478 311.06 673.984 311.258C675.577 311.48 677.268 311.43 678.849 311.134C680.404 310.838 681.268 309.627 681.614 307.91C682.454 303.698 682.281 299.448 682.281 295.199C682.318 263.143 682.306 231.087 682.306 199.031C682.306 197.858 682.306 197.87 683.441 197.87C695.751 197.87 708.061 197.87 720.371 197.87C720.729 197.87 721.074 197.87 721.531 197.87V197.845Z" fill="#E30613"/>
<path d="M559.74 266.688C559.74 244.23 559.74 221.785 559.727 199.328C559.727 198.549 559.95 198.315 560.69 198.315C573.123 198.339 585.557 198.327 598.002 198.315C598.694 198.315 598.94 198.475 598.854 199.278C598.582 202.008 598.41 204.75 598.187 207.493C597.99 209.766 597.768 212.039 597.57 214.324C597.558 214.509 597.693 214.719 597.768 214.917C597.99 214.781 598.311 214.719 598.422 214.509C599.126 213.237 599.718 211.89 600.471 210.643C602.891 206.603 605.781 203.009 609.596 200.34C612.843 198.068 616.374 196.598 620.251 196.091C620.918 196.005 621.597 196.005 622.276 195.968C622.3 196.659 622.35 197.351 622.35 198.055C622.35 213.002 622.35 227.962 622.375 242.909C622.375 243.687 622.128 243.872 621.449 243.86C617.387 243.798 613.361 244.144 609.485 245.478C605.102 246.985 601.842 249.851 600.36 254.595C599.385 257.72 599.336 261.006 599.224 264.255C599.027 269.937 598.953 275.632 598.94 281.326C598.903 299.003 598.928 316.68 598.94 334.358C598.94 335.049 598.681 335.173 598.126 335.173C595.076 335.16 592.039 335.173 588.989 335.173C579.618 335.173 570.259 335.173 560.888 335.173C559.752 335.173 559.764 335.173 559.764 333.962C559.764 311.529 559.764 289.109 559.764 266.676L559.74 266.688Z" fill="#E30613"/>
<path d="M548.85 297.583H519.329V335.173H548.85V297.583Z" fill="#E30613"/>
</svg>
