<svg width="1000" height="500" viewBox="0 0 1000 500" fill="none" xmlns="http://www.w3.org/2000/svg">
<path d="M738.727 229.512C731.695 229.512 725.749 234.669 720.89 240.955V227.318L716.33 229.171C708.616 232.325 700.965 234.413 691.482 235.947L688.712 236.395V245.898L691.546 246.303C696.703 247.042 699.282 250.252 699.282 255.934V291.135C699.282 297.172 696.284 300.489 690.289 301.086L687.306 301.384V312.209H735.168V301.32L732.121 301.086C724.634 300.503 720.89 297.187 720.89 291.135V261.474C724.236 253.633 728.413 250.053 730.949 250.053C732.611 250.053 733.826 250.437 736.298 252.695C737.534 253.782 740.197 255.38 744.545 253.676C749.446 251.374 752.493 246.708 752.493 241.509C752.493 235.713 746.974 229.491 738.727 229.491V229.512Z" fill="black"/>
<path d="M846.598 297.165L838.863 296.782C835.496 296.554 833.812 294.168 833.812 289.622V229.704L828.953 230.556C826.29 231.025 822.667 231.664 818.107 231.984C816.53 232.197 814.931 232.389 813.355 232.559V289.793H812.204V290.73C807.771 294.523 802.913 296.462 797.734 296.462C790.063 296.462 786.163 291.327 786.163 281.184V258.299C786.163 247.113 786.163 239.037 786.61 233.966L786.994 229.768L781.73 230.578C778.683 231.047 774.208 231.75 770.01 232.24C768.582 232.368 767.176 232.517 765.833 232.666C765.471 232.709 765.13 232.73 764.768 232.772V290.624C766.43 305.497 775.444 314.233 789.615 314.233C795.198 314.233 799.439 312.507 805.022 309.46C807.793 307.819 810.073 306.178 812.225 304.559V306.839C812.225 309.822 813.589 312.656 815.912 314.531C819.705 315.149 823.583 315.149 827.355 314.489C828.676 314.254 833.109 314.105 834.622 314.105H846.769L846.598 297.208V297.165Z" fill="black"/>
<path d="M202.097 217.665C207.595 214.49 213.881 212.892 220.828 212.892C234.509 212.892 245.101 219.135 253.198 231.984L254.626 234.243L277.321 218.219L276.171 216.216C270.609 206.478 262.894 198.765 253.22 193.267C243.566 187.77 232.677 185 220.828 185C208.98 185 197.323 187.877 187.18 193.545C177.036 199.212 168.874 207.096 162.95 217.005C157.026 226.913 154 238.014 154 249.989C154 261.964 156.983 273.066 162.844 282.953C168.704 292.861 176.823 300.745 186.967 306.413C197.11 312.081 208.426 314.957 220.615 314.957C232.805 314.957 243.545 312.166 253.262 306.69C263.001 301.192 270.694 293.458 276.128 283.72L277.236 281.738L254.562 265.736L253.134 267.995C245.037 280.843 234.445 287.087 220.764 287.087C213.817 287.087 207.51 285.51 202.012 282.399C196.535 279.309 192.188 274.92 189.098 269.401C185.986 263.861 184.409 257.383 184.409 250.202C184.409 243.022 185.986 236.501 189.119 230.897C192.209 225.315 196.577 220.883 202.054 217.708L202.097 217.665Z" fill="black"/>
<path d="M408.762 217.005C402.774 207.118 394.591 199.212 384.468 193.566C374.325 187.898 363.073 185.021 351.012 185.021C338.95 185.021 327.698 187.898 317.64 193.566C307.56 199.234 299.441 207.118 293.517 217.026C287.593 226.934 284.567 238.036 284.567 250.011C284.567 261.986 287.572 273.087 293.517 282.995C299.441 292.882 307.56 300.788 317.64 306.455C327.72 312.123 338.95 315 351.012 315C363.073 315 374.346 312.123 384.468 306.455C394.612 300.788 402.795 292.904 408.762 283.017C414.75 273.108 417.797 262.007 417.797 250.032C417.797 238.057 414.75 226.955 408.762 217.047V217.005ZM369.743 282.377C364.245 285.488 358.023 287.065 351.182 287.065C344.342 287.065 337.97 285.488 332.536 282.377C327.123 279.288 322.818 274.877 319.707 269.294C316.596 263.69 314.998 257.191 314.998 249.989C314.998 242.787 316.575 236.288 319.707 230.684C322.818 225.102 327.123 220.691 332.536 217.601C337.97 214.49 344.235 212.913 351.182 212.913C358.129 212.913 364.224 214.511 369.722 217.686C375.199 220.84 379.546 225.293 382.657 230.876C385.768 236.501 387.367 242.936 387.367 250.011C387.367 257.085 385.79 263.712 382.657 269.316C379.546 274.898 375.199 279.309 369.743 282.399V282.377Z" fill="black"/>
<path d="M529.228 187.195H495.281L473.694 222.822L451.936 187.195H417.776L456.987 248.86L415.347 312.763H449.528L473.694 274.962L497.881 312.763H531.849L490.593 248.86L529.228 187.195Z" fill="black"/>
<path d="M653.806 217.005C647.818 207.118 639.635 199.212 629.513 193.566C619.369 187.898 608.118 185.021 596.056 185.021C583.995 185.021 572.743 187.898 562.685 193.566C552.605 199.234 544.486 207.118 538.562 217.026C532.637 226.934 529.611 238.036 529.611 250.011C529.611 261.986 532.616 273.087 538.562 282.995C544.486 292.882 552.605 300.788 562.685 306.455C572.764 312.123 583.995 315 596.056 315C608.118 315 619.391 312.123 629.513 306.455C639.656 300.788 647.84 292.904 653.806 283.017C659.794 273.108 662.842 262.007 662.842 250.032C662.842 238.057 659.794 226.955 653.806 217.047V217.005ZM614.788 282.377C609.29 285.488 603.067 287.065 596.227 287.065C589.386 287.065 583.014 285.488 577.58 282.377C572.168 279.288 567.863 274.877 564.752 269.294C561.64 263.69 560.042 257.191 560.042 249.989C560.042 242.787 561.619 236.288 564.752 230.684C567.863 225.102 572.168 220.691 577.58 217.601C583.014 214.49 589.279 212.913 596.227 212.913C603.174 212.913 609.268 214.511 614.766 217.686C620.243 220.84 624.59 225.293 627.702 230.876C630.813 236.501 632.411 242.936 632.411 250.011C632.411 257.085 630.834 263.712 627.702 269.316C624.59 274.898 620.243 279.309 614.788 282.399V282.377Z" fill="black"/>
<path d="M642.256 310.483C651.766 310.483 659.475 302.774 659.475 293.266C659.475 283.757 651.766 276.049 642.256 276.049C632.747 276.049 625.038 283.757 625.038 293.266C625.038 302.774 632.747 310.483 642.256 310.483Z" fill="#EB7D07"/>
</svg>
