<svg width="1000" height="500" viewBox="0 0 1000 500" fill="none" xmlns="http://www.w3.org/2000/svg">
<path d="M543.469 221.174C534.675 221.174 525.682 225.117 521.485 229.257H521.285V202.444C521.285 201.655 520.885 201.261 520.086 201.261H499.9C499.1 201.261 498.701 201.655 498.701 202.444V309.894C498.701 310.683 499.1 311.077 499.9 311.077H520.086C520.885 311.077 521.285 310.683 521.285 309.894V254.69C524.483 248.578 532.077 243.255 541.071 243.255C551.463 243.255 561.457 250.353 561.457 263.365V309.894C561.457 310.683 561.857 311.077 562.657 311.077H582.841C583.641 311.077 584.041 310.683 584.041 309.894V263.365C583.839 237.537 568.253 221.174 543.469 221.174Z" fill="#222222"/>
<path d="M687.968 265.731C687.968 239.706 667.182 221.174 643.2 221.174C618.418 221.174 597.43 240.692 597.43 265.534C597.43 291.559 617.618 312.063 646.198 312.063C661.186 312.063 673.379 308.12 682.57 303.191C683.37 302.994 683.572 302.205 683.572 301.417V283.081C683.572 282.686 683.37 282.49 683.172 282.49C682.97 282.49 682.772 282.686 682.57 282.686C676.175 286.63 659.986 290.967 648.993 290.967C632.005 290.967 623.214 282.095 621.416 272.632H688.368V265.731H687.968ZM622.014 256.662C623.012 249.367 631.209 241.678 643.398 241.678C654.989 241.678 663.186 249.367 664.584 256.662H622.014Z" fill="#222222"/>
<path d="M790.897 222.554H770.708C770.11 222.554 769.508 223.145 769.508 223.737V229.454H769.31C763.715 224.525 756.12 221.174 746.327 221.174C720.143 221.174 701.159 242.072 701.159 266.52C701.159 290.967 719.945 312.063 746.327 312.063C756.12 312.063 763.715 308.514 769.31 303.585H769.508V309.894C769.508 310.486 770.11 311.077 770.708 311.077H790.897C791.494 311.077 792.092 310.486 792.092 309.894V223.737C792.092 223.145 791.494 222.554 790.897 222.554ZM769.508 278.941C766.91 282.884 760.317 289.784 748.727 289.784C731.338 289.784 723.94 277.758 723.94 266.52C723.94 255.479 731.338 243.255 748.727 243.255C760.115 243.255 766.91 250.156 769.508 254.099V278.941Z" fill="#222222"/>
<path d="M895.623 201.261H875.434C874.634 201.261 874.234 201.655 874.234 202.444V229.454H874.037C868.441 224.526 860.846 221.174 850.851 221.174C824.671 221.174 805.885 242.072 805.885 266.52C805.885 290.967 824.671 312.063 850.851 312.063C860.846 312.063 868.239 308.317 874.037 303.585H874.234V310.092C874.234 310.683 874.634 311.274 875.434 311.274H895.623C896.221 311.274 896.621 310.683 896.621 310.092V202.444C896.621 201.852 896.221 201.261 895.623 201.261ZM874.234 278.941C871.637 282.884 865.044 289.784 853.453 289.784C836.064 289.784 828.869 277.758 828.869 266.52C828.869 255.479 836.262 243.255 853.453 243.255C865.044 243.255 871.637 250.156 874.234 254.099V278.941Z" fill="#222222"/>
<path d="M385.78 201.261H365.994C365.195 201.261 364.595 202.049 364.595 202.641V229.454H364.395C358.8 224.526 351.205 221.174 341.212 221.174C314.83 221.174 296.244 242.072 296.244 266.52C296.244 290.967 314.83 312.063 341.212 312.063C351.005 312.063 358.6 308.317 364.395 303.585H364.595V309.894C364.595 310.683 365.195 311.274 365.994 311.274H385.78C386.58 311.274 387.179 310.683 387.179 309.894V202.838C386.979 202.049 386.38 201.261 385.78 201.261ZM364.595 278.941C361.997 282.884 355.202 289.784 343.81 289.784C326.423 289.784 319.228 277.758 319.228 266.52C319.228 255.479 326.423 243.255 343.81 243.255C355.202 243.255 361.997 250.156 364.595 254.099V278.941Z" fill="#222222"/>
<path d="M477.715 300.627C477.715 293.726 471.92 288.009 464.925 288.009C457.73 288.009 452.134 293.726 452.134 300.627C452.134 307.527 457.73 313.245 464.925 313.245C471.92 313.245 477.715 307.527 477.715 300.627Z" fill="#222222"/>
<path d="M456.531 221.174C445.138 221.174 435.945 226.103 432.148 231.623H431.948V223.934C431.948 223.145 431.148 222.554 430.549 222.554H410.763C409.963 222.554 409.364 223.145 409.364 223.934V309.697C409.364 310.486 410.163 311.077 410.763 311.077H430.549C431.348 311.077 431.948 310.486 431.948 309.697V257.451C434.746 250.156 441.741 243.255 453.732 243.255H458.929C459.728 243.255 460.328 242.664 460.328 241.875V222.554C460.328 221.765 459.528 221.174 458.929 221.174H456.531Z" fill="#222222"/>
<path d="M191.117 182.139V168.535C191.117 167.549 190.518 166.958 189.719 166.958H170.132C169.333 166.958 168.733 167.549 168.733 168.535V182.139C131.559 187.856 103.379 219.007 103.379 257.058L103.179 330.992C103.179 332.175 104.179 333.161 105.378 333.161H180.525C223.095 333.161 257.87 299.25 257.87 257.256C257.87 218.81 228.691 187.265 191.117 182.139ZM179.926 244.638C187.32 244.638 193.316 250.552 193.316 258.044C193.316 265.339 187.32 271.254 179.926 271.254C172.531 271.254 166.335 265.339 166.335 258.044C166.335 250.552 172.331 244.638 179.926 244.638ZM180.525 311.277H127.962C126.763 311.277 125.763 310.291 125.763 309.108V257.058C125.763 231.428 144.151 209.938 168.533 204.615V225.71C154.943 230.245 144.95 243.06 144.95 258.044C144.95 276.972 160.539 292.349 179.726 292.349C198.912 292.349 214.501 276.972 214.501 258.044C214.501 243.06 204.708 230.245 191.117 225.71V204.417C216.1 209.346 235.086 231.034 235.086 257.256C235.086 286.829 210.504 311.277 180.525 311.277Z" fill="#00AEFF"/>
</svg>
