<svg width="1000" height="500" viewBox="0 0 1000 500" fill="none" xmlns="http://www.w3.org/2000/svg">
<g clip-path="url(#clip0_4_244)">
<path d="M417.328 265.1H377.554C378.03 267.976 379.403 270.114 381.665 271.514C383.927 272.909 386.447 273.609 389.225 273.609C391.925 273.609 394.145 273.211 395.893 272.41C397.642 271.61 399.547 270.215 401.609 268.216L412.208 277.563C408.002 282.117 404.091 285.333 400.48 287.208C396.865 289.087 392.835 290.026 388.391 290.026C378.545 290.026 370.886 286.891 365.408 280.616C359.93 274.347 357.229 266.98 357.31 258.51C357.31 249.963 360.011 242.552 365.408 236.282C370.804 230.008 378.426 226.873 388.272 226.873C398.432 226.873 406.373 230.568 412.089 237.955C417.805 245.347 419.553 254.397 417.328 265.1ZM377.316 251.799H398.989C398.594 249.004 397.303 246.823 395.122 245.265C392.935 243.708 390.596 242.969 388.095 243.051C385.595 243.132 383.27 243.928 381.127 245.447C378.983 246.967 377.711 249.081 377.316 251.799Z" fill="#328BC9"/>
<path d="M465.336 240.308H426.991V258.523H465.336V240.308Z" fill="#328BC9"/>
<path d="M505.53 274.322V288.942C502.039 289.422 499.495 289.661 497.909 289.661C491.397 289.661 486.058 287.864 481.89 284.269C477.722 280.673 475.759 275.401 475.997 268.45V243.644H468.019V228.306H475.997V214.045L495.527 212.128V228.306H505.53V243.644H495.527V268.33C495.527 271.048 496.342 272.822 497.966 273.661C499.595 274.499 502.115 274.72 505.53 274.322Z" fill="#328BC9"/>
<path d="M532.842 223.493H513.074V204.919H532.842V223.493ZM512.955 228.646H532.961V289.163H512.955V228.646Z" fill="#328BC9"/>
<path d="M602.39 287.693V289.131H580.598L566.07 264.805L563.45 267.082V289.131H543.563V205.246H563.45V248.866C564.245 245.99 566.627 242.156 570.595 237.362L578.574 228.375H601.2V229.813L579.764 251.982L602.39 287.693Z" fill="#328BC9"/>
<path d="M663.171 265.1H623.397C623.874 267.976 625.241 270.114 627.503 271.514C629.766 272.909 632.291 273.609 635.067 273.609C637.769 273.609 639.988 273.211 641.736 272.41C643.484 271.61 645.39 270.215 647.453 268.216L658.052 277.563C653.845 282.117 649.935 285.333 646.317 287.208C642.708 289.087 638.678 290.026 634.234 290.026C624.388 290.026 616.728 286.891 611.251 280.616C605.773 274.347 603.072 266.98 603.153 258.51C603.153 249.963 605.854 242.552 611.251 236.282C616.648 230.008 624.269 226.873 634.115 226.873C644.275 226.873 652.213 230.568 657.93 237.955C663.647 245.347 665.396 254.397 663.171 265.1ZM623.159 251.799H644.832C644.437 249.004 643.146 246.823 640.96 245.265C638.778 243.708 636.435 242.969 633.934 243.051C631.433 243.132 629.113 243.928 626.97 245.447C624.826 246.967 623.555 249.081 623.159 251.799Z" fill="#328BC9"/>
<path d="M705.136 274.322V288.942C701.644 289.422 699.099 289.661 697.516 289.661C691.002 289.661 685.669 287.864 681.502 284.269C677.329 280.673 675.362 275.401 675.6 268.45V243.644H667.625V228.306H675.6V214.045L695.131 212.128V228.306H705.136V243.644H695.131V268.33C695.131 271.048 695.947 272.822 697.574 273.661C699.201 274.499 701.722 274.72 705.136 274.322Z" fill="#328BC9"/>
<path d="M772.364 287.693V289.131H750.57L736.043 264.805L733.425 267.082V289.131H713.535V205.246H733.425V248.866C734.221 245.99 736.601 242.156 740.57 237.362L748.545 228.375H771.174V229.813L749.74 251.982L772.364 287.693Z" fill="#328BC9"/>
<path d="M801.429 262.912C798.568 262.912 796.509 263.832 795.236 265.668C793.964 267.504 793.886 269.345 794.998 271.18C796.106 273.016 798.131 273.936 801.07 273.936C805.038 273.936 808.098 272.978 810.24 271.061V264.469C808.098 263.43 805.16 262.912 801.429 262.912ZM830.009 289.155H813.932L811.906 283.044C808.414 287.679 803.571 289.994 797.379 289.994C790.234 289.994 784.677 287.977 780.709 283.94C776.74 279.909 774.754 275.015 774.754 269.263C774.754 263.271 777.071 258.578 781.724 255.18C786.362 251.786 791.861 250.008 798.214 249.849C802.736 249.692 806.631 250.329 809.881 251.767V249.849C809.881 247.692 808.929 246.015 807.025 244.816C805.121 243.618 802.459 243.019 799.044 243.019C793.172 243.019 788.247 244.375 784.279 247.093L778.324 235.949C785.551 230.115 793.726 227.201 802.857 227.201C806.588 227.201 809.983 227.579 813.038 228.337C816.093 229.099 818.954 230.316 821.616 231.994C824.272 233.672 826.337 236.068 827.804 239.184C829.275 242.3 830.009 246.015 830.009 250.329V289.155Z" fill="#328BC9"/>
<path d="M223.419 243.432H263.77L265.023 236.836H222.368L223.419 243.432Z" fill="#328BC9"/>
<path fill-rule="evenodd" clip-rule="evenodd" d="M321.654 252.424C321.654 298.033 285.467 335 240.834 335C196.187 335 160 298.033 160 252.424C160 206.824 196.187 169.857 240.834 169.857C285.467 169.857 321.654 206.824 321.654 252.424ZM225.372 255.688H268.724C271.596 255.688 274.064 253.603 274.612 250.722L278.17 231.87C278.513 230.077 278.046 228.217 276.912 226.808C275.764 225.399 274.069 224.579 272.283 224.579H220.414L219.458 218.58C218.982 215.613 216.476 213.437 213.537 213.437H197.261C193.946 213.437 191.259 216.179 191.259 219.563C191.259 222.942 193.946 225.689 197.261 225.689H208.436L209.18 230.355C209.155 230.798 209.177 231.247 209.249 231.692L215.241 269.33C215.713 272.293 218.218 274.469 221.162 274.469H263.718C267.024 274.469 269.71 271.727 269.71 268.343C269.71 264.959 267.024 262.217 263.718 262.217H226.268L225.523 257.574C225.55 257.126 225.529 256.669 225.455 256.208L225.372 255.688ZM238.028 287.067C238.028 291.721 234.341 295.499 229.792 295.499C225.233 295.499 221.541 291.721 221.541 287.067C221.541 282.422 225.233 278.645 229.792 278.645C234.341 278.645 238.028 282.422 238.028 287.067ZM256.171 295.499C260.72 295.499 264.412 291.721 264.412 287.067C264.412 282.422 260.72 278.645 256.171 278.645C251.608 278.645 247.916 282.422 247.916 287.067C247.916 291.721 251.608 295.499 256.171 295.499Z" fill="#328BC9"/>
</g>
<defs>
<clipPath id="clip0_4_244">
<rect width="680" height="170" fill="white" transform="translate(160 165)"/>
</clipPath>
</defs>
</svg>
