<svg width="1000" height="500" viewBox="0 0 1000 500" fill="none" xmlns="http://www.w3.org/2000/svg">
<g clip-path="url(#clip0_4_241)">
<path d="M275.821 196.608H305.33V307.985H275.821V196.608V196.608Z" fill="#2B2B2B"/>
<path d="M428.534 287.317C415.904 303.048 399.484 310.856 378.931 310.856C370.319 310.856 362.511 309.363 355.392 306.493C348.273 303.622 342.188 299.603 337.136 294.436C332.084 289.269 328.065 283.184 325.309 276.065C322.438 268.946 321.061 261.138 321.061 252.526C321.061 244.029 322.438 236.221 325.194 229.102C327.95 221.868 331.969 215.668 337.021 210.386C342.188 205.104 348.273 200.971 355.392 197.985C362.511 195 370.319 193.507 378.931 193.507C388.576 193.507 397.532 195.115 405.8 198.33C414.067 201.545 420.956 207.171 426.697 215.209L407.177 234.958C404.077 230.71 400.288 227.38 396.04 224.739C391.676 222.213 386.739 220.95 381.228 220.95C376.52 220.95 372.386 221.754 368.712 223.246C365.038 224.854 361.937 226.921 359.411 229.791C356.885 232.547 354.933 235.877 353.67 239.551C352.292 243.225 351.718 247.359 351.718 251.608C351.718 256.086 352.407 260.219 353.785 264.008C355.163 267.797 357.115 271.127 359.756 273.883C362.282 276.639 365.382 278.82 369.056 280.428C372.616 282.035 376.749 282.724 381.113 282.724C387.543 282.724 392.825 281.576 396.843 279.28C400.862 276.983 404.881 273.424 408.785 268.486L428.534 287.317Z" fill="#2B2B2B"/>
<path d="M489.965 310.626C481.583 310.626 473.889 309.134 466.885 306.148C459.766 303.163 453.681 299.144 448.514 293.977C443.347 288.81 439.328 282.61 436.457 275.491C433.587 268.257 432.094 260.449 432.094 252.067C432.094 243.57 433.587 235.762 436.457 228.643C439.328 221.409 443.347 215.324 448.514 210.157C453.681 204.99 459.766 200.971 466.885 198.1C474.004 195.23 481.697 193.737 489.965 193.737C498.232 193.737 506.04 195.23 513.159 198.1C520.278 200.971 526.363 204.99 531.53 210.157C536.697 215.324 540.601 221.524 543.587 228.643C546.457 235.877 547.95 243.685 547.95 252.067C547.95 260.564 546.457 268.372 543.587 275.491C540.716 282.724 536.697 288.81 531.53 293.977C526.363 299.144 520.278 303.163 513.159 306.148C506.04 309.248 498.232 310.626 489.965 310.626ZM489.965 282.954C494.328 282.954 498.117 282.15 501.562 280.543C505.006 278.935 507.877 276.754 510.173 273.998C512.47 271.242 514.307 267.912 515.57 264.123C516.833 260.334 517.407 256.315 517.407 252.067C517.407 247.818 516.833 243.8 515.57 240.01C514.307 236.221 512.585 232.891 510.173 230.136C507.877 227.38 505.006 225.198 501.562 223.591C498.117 221.983 494.328 221.18 489.965 221.18C485.601 221.18 481.812 221.983 478.367 223.591C474.923 225.198 472.052 227.38 469.756 230.136C467.459 232.891 465.622 236.221 464.359 240.01C463.096 243.8 462.522 247.818 462.522 252.067C462.522 256.315 463.096 260.334 464.359 264.123C465.622 267.912 467.345 271.242 469.756 273.998C472.052 276.754 474.923 278.935 478.367 280.543C481.697 282.15 485.601 282.954 489.965 282.954Z" fill="#2B2B2B"/>
<path d="M548.524 196.608H580.789L605.821 274.113L629.244 196.608H660.821L620.288 307.985H589.057L548.524 196.608Z" fill="#2B2B2B"/>
<path d="M672.417 196.608H752.564V222.098H702.042V239.322H743.607V263.319H701.927V282.38H756.008V307.871H672.417V196.608Z" fill="#2B2B2B"/>
<path d="M771.395 196.608H817.438C823.409 196.608 828.921 197.411 833.743 198.904C838.566 200.511 842.699 202.808 846.144 205.793C849.589 208.894 852.23 212.683 854.182 217.276C856.019 221.868 857.052 227.15 857.052 233.121C857.052 240.47 855.445 246.785 852.23 252.182C849.015 257.578 844.766 261.942 839.369 265.157L863.253 307.871H831.562L812.731 269.979H800.33V307.871H771.395V196.608V196.608ZM814.568 246.9C818.472 246.9 821.687 245.752 824.098 243.34C826.509 240.929 827.772 237.714 827.772 233.695C827.772 229.447 826.624 226.117 824.213 223.706C821.916 221.294 818.587 220.031 814.338 220.031H800.1V246.9H814.568Z" fill="#2B2B2B"/>
<path d="M305.33 140H275.821V169.509H305.33V140Z" fill="#00B3E0"/>
<path d="M219.098 196.608H137V226.232H198.2L148.827 275.605L169.724 296.503L219.098 247.015V308.33H248.608V226.232V196.608H219.098Z" fill="#00B3E0"/>
<path d="M477.679 335.313H491.113V339.447H482.157V355.407H477.564V335.313H477.679Z" fill="#2B2B2B"/>
<path d="M496.624 335.313H501.676L509.025 355.407H504.088L502.595 350.814H495.476L493.983 355.407H489.276L496.624 335.313ZM501.447 347.255L499.036 339.676L496.509 347.255H501.447Z" fill="#2B2B2B"/>
<path d="M529.808 335.313V351.503H531.875V360.115H527.856V355.522H514.537V360.115H510.633V351.503H512.47C513.159 350.47 513.733 349.436 514.192 348.288C514.651 347.255 515.111 345.992 515.34 344.729C515.685 343.466 515.914 341.973 516.144 340.48C516.374 338.987 516.489 337.265 516.603 335.313H529.808ZM525.445 339.217H520.392C520.278 340.595 520.163 341.858 519.933 343.006C519.704 344.154 519.474 345.188 519.244 346.106C519.015 347.025 518.67 347.944 518.326 348.862C517.981 349.666 517.637 350.585 517.177 351.388H525.445V339.217Z" fill="#2B2B2B"/>
<path d="M549.443 355.407H544.965V347.14H543.472C542.783 347.14 542.324 347.37 541.979 347.714C541.635 348.058 541.29 348.747 540.946 349.436L538.305 355.292H533.253L536.812 347.944C537.271 346.91 537.731 346.221 538.305 345.762C538.764 345.303 539.338 344.958 539.912 344.843C539.338 344.614 538.879 344.154 538.305 343.695C537.846 343.236 537.386 342.547 537.042 341.743L534.056 335.198H538.994L541.405 340.71C541.75 341.514 542.094 341.973 542.553 342.432C542.898 342.777 543.472 343.006 544.161 343.006H545.079V335.313H549.557V343.006H550.591C551.28 343.006 551.739 342.777 552.198 342.432C552.543 342.088 553.002 341.514 553.347 340.71L555.758 335.198H560.695L557.71 341.743C557.365 342.547 556.906 343.236 556.447 343.695C555.988 344.154 555.413 344.614 554.839 344.843C555.413 345.073 555.988 345.418 556.447 345.762C556.906 346.221 557.48 346.91 557.94 347.944L561.499 355.292H556.217L553.576 349.436C553.232 348.633 552.887 348.058 552.543 347.714C552.198 347.37 551.739 347.14 551.05 347.14H549.672V355.407H549.443Z" fill="#2B2B2B"/>
<path d="M563.451 335.313H577.23V339.332H568.044V343.236H575.163V347.14H568.044V351.503H577.919V355.522H563.566V335.313H563.451Z" fill="#2B2B2B"/>
<path d="M586.186 339.332H579.641V335.313H597.209V339.332H590.779V355.407H586.186V339.332Z" fill="#2B2B2B"/>
<path d="M599.965 335.313H604.443V341.973H607.198C608.232 341.973 609.265 342.088 610.184 342.432C611.102 342.777 611.791 343.121 612.48 343.695C613.169 344.269 613.628 344.958 613.973 345.762C614.317 346.566 614.547 347.484 614.547 348.518C614.547 349.436 614.432 350.355 614.088 351.159C613.743 351.962 613.284 352.651 612.71 353.225C612.136 353.8 611.332 354.259 610.413 354.603C609.495 354.948 608.461 355.063 607.198 355.063H600.194V335.313H599.965ZM604.443 345.762V351.733H606.739C607.658 351.733 608.461 351.503 609.036 350.929C609.61 350.47 609.839 349.666 609.839 348.747C609.839 347.829 609.61 347.025 609.036 346.566C608.461 345.992 607.658 345.762 606.739 345.762H604.443ZM617.073 335.313H621.666V355.407H617.073V335.313Z" fill="#2B2B2B"/>
<path d="M654.161 355.407H649.683V341.858L640.726 355.407H636.593V335.313H641.071V348.633L649.797 335.313H654.161V355.407Z" fill="#2B2B2B"/>
<path d="M294.881 335.313V355.407H290.288V339.447H285.351C285.236 342.202 284.891 344.499 284.547 346.566C284.203 348.633 283.743 350.24 282.939 351.618C282.251 352.996 281.332 353.914 280.184 354.603C279.035 355.292 277.658 355.637 275.935 355.637H275.591V351.618C276.509 351.618 277.198 351.388 277.887 350.929C278.576 350.47 279.035 349.666 279.495 348.403C279.954 347.255 280.299 345.532 280.528 343.466C280.758 341.399 280.987 338.643 281.102 335.428H294.881V335.313Z" fill="#2B2B2B"/>
<path d="M304.526 335.313H309.578L316.927 355.407H311.99L310.497 350.814H303.378L301.885 355.407H297.177L304.526 335.313ZM309.349 347.255L306.937 339.676L304.411 347.255H309.349Z" fill="#2B2B2B"/>
<path d="M336.562 355.407H332.083V341.858L323.127 355.407H318.994V335.313H323.472V348.633L332.198 335.313H336.562V355.407ZM325.883 329.457C325.883 329.916 326.113 330.376 326.342 330.605C326.687 330.95 327.031 331.065 327.605 331.065C328.179 331.065 328.524 330.95 328.868 330.605C329.213 330.261 329.328 329.916 329.328 329.457H332.543C332.543 330.72 332.083 331.868 331.28 332.672C330.476 333.476 329.213 333.935 327.72 333.935C326.227 333.935 325.079 333.476 324.161 332.672C323.242 331.868 322.898 330.72 322.898 329.457H325.883Z" fill="#2B2B2B"/>
<path d="M348.848 334.28H352.981V336.461C354.359 336.576 355.622 336.806 356.77 337.265C357.919 337.724 358.837 338.299 359.641 339.102C360.445 339.906 361.019 340.71 361.478 341.743C361.937 342.777 362.167 343.925 362.167 345.188C362.167 346.451 361.937 347.599 361.593 348.633C361.134 349.666 360.56 350.585 359.756 351.273C358.952 352.077 358.033 352.651 356.885 353.111C355.737 353.57 354.474 353.914 352.981 354.029V356.211H348.848V354.029C347.47 353.914 346.207 353.685 345.059 353.225C343.91 352.766 342.992 352.192 342.188 351.388C341.384 350.585 340.81 349.781 340.351 348.747C339.892 347.714 339.662 346.566 339.662 345.303C339.662 344.04 339.892 342.891 340.236 341.858C340.695 340.825 341.269 339.906 342.073 339.217C342.877 338.413 343.795 337.839 344.944 337.38C346.092 336.921 347.355 336.576 348.848 336.461V334.28ZM344.14 345.188C344.14 346.566 344.484 347.599 345.288 348.518C346.092 349.436 347.24 349.896 348.848 350.125V340.251C347.24 340.48 345.977 341.054 345.288 341.858C344.484 342.777 344.14 343.925 344.14 345.188ZM357.804 345.188C357.804 343.81 357.459 342.777 356.656 341.858C355.852 340.939 354.704 340.48 353.096 340.251V350.125C354.704 349.896 355.967 349.322 356.656 348.518C357.345 347.599 357.804 346.566 357.804 345.188Z" fill="#2B2B2B"/>
<path d="M383.639 351.733C383.18 352.307 382.72 352.881 382.146 353.34C381.572 353.8 380.883 354.259 380.194 354.718C379.505 355.063 378.702 355.407 377.783 355.637C376.979 355.866 376.061 355.981 375.142 355.981C373.649 355.981 372.271 355.752 371.008 355.177C369.745 354.603 368.712 353.914 367.793 352.996C366.875 352.077 366.186 350.929 365.727 349.666C365.267 348.403 364.923 347.025 364.923 345.418C364.923 343.925 365.152 342.547 365.727 341.284C366.186 340.021 366.99 338.873 367.793 337.954C368.712 337.035 369.745 336.232 371.123 335.658C372.386 335.083 373.764 334.854 375.372 334.854C377.209 334.854 378.816 335.198 380.309 335.887C381.687 336.576 382.835 337.61 383.754 338.873L380.654 341.858C380.079 341.054 379.39 340.365 378.472 339.791C377.668 339.332 376.635 338.987 375.487 338.987C374.568 338.987 373.764 339.102 373.075 339.447C372.386 339.791 371.697 340.251 371.238 340.825C370.779 341.399 370.32 342.088 370.09 342.891C369.86 343.695 369.631 344.499 369.631 345.303C369.631 346.221 369.745 347.025 370.09 347.829C370.32 348.633 370.779 349.207 371.238 349.781C371.697 350.355 372.386 350.814 373.075 351.159C373.764 351.503 374.568 351.618 375.487 351.618C376.175 351.618 376.864 351.503 377.324 351.388C377.898 351.273 378.357 351.044 378.702 350.814C379.161 350.585 379.505 350.24 379.85 349.896C380.194 349.551 380.539 349.207 380.768 348.862L383.639 351.733Z" fill="#2B2B2B"/>
<path d="M391.906 339.332H385.361V335.313H402.929V339.332H396.499V355.407H391.906V339.332Z" fill="#2B2B2B"/>
<path d="M408.67 335.313H413.722L421.071 355.407H416.134L414.641 350.814H407.522L406.029 355.407H401.322L408.67 335.313ZM413.493 347.255L411.081 339.676L408.555 347.255H413.493Z" fill="#2B2B2B"/>
<path d="M440.821 355.407H436.342V341.858L427.386 355.407H423.253V335.313H427.731V348.633L436.457 335.313H440.821V355.407V355.407ZM430.027 329.457C430.027 329.916 430.257 330.376 430.487 330.605C430.831 330.95 431.175 331.065 431.75 331.065C432.324 331.065 432.668 330.95 433.013 330.605C433.357 330.261 433.472 329.916 433.472 329.457H436.687C436.687 330.72 436.228 331.868 435.424 332.672C434.505 333.476 433.357 333.935 431.864 333.935C430.372 333.935 429.223 333.476 428.305 332.672C427.386 331.868 427.042 330.72 427.042 329.457H430.027Z" fill="#2B2B2B"/>
<path d="M462.522 335.313V355.407H457.929V339.447H452.992C452.877 342.202 452.532 344.499 452.188 346.566C451.843 348.633 451.384 350.24 450.58 351.618C449.891 352.996 448.973 353.914 447.825 354.603C446.676 355.292 445.298 355.637 443.576 355.637H443.232V351.618C444.15 351.618 444.839 351.388 445.528 350.929C446.217 350.47 446.676 349.666 447.136 348.403C447.595 347.255 447.939 345.532 448.169 343.466C448.399 341.399 448.628 338.643 448.743 335.428H462.522V335.313Z" fill="#2B2B2B"/>
<path d="M676.666 335.313H681.718L689.067 355.407H684.129L682.637 350.814H675.518L674.025 355.407H669.317L676.666 335.313ZM681.489 347.255L679.077 339.676L676.551 347.255H681.489Z" fill="#2B2B2B"/>
<path d="M695.726 355.407H691.134V335.313H695.726V343.006H697.104C697.908 343.006 698.482 342.777 698.941 342.432C699.401 342.088 699.86 341.514 700.205 340.825L703.19 335.198H708.242L704.683 341.743C704.223 342.662 703.764 343.236 703.19 343.695C702.616 344.154 702.042 344.499 701.353 344.843C702.271 345.073 702.96 345.532 703.42 345.992C703.994 346.451 704.453 347.14 704.912 347.944L709.046 355.292H703.649L700.434 349.321C700.09 348.518 699.63 347.944 699.171 347.599C698.712 347.255 698.138 347.025 697.449 347.025H695.841V355.407H695.726Z" fill="#2B2B2B"/>
<path d="M727.992 351.733C727.532 352.307 727.073 352.881 726.499 353.34C725.925 353.8 725.236 354.259 724.547 354.718C723.858 355.063 723.054 355.407 722.136 355.637C721.332 355.866 720.413 355.981 719.495 355.981C718.002 355.981 716.624 355.752 715.361 355.177C714.098 354.603 713.065 353.914 712.146 352.996C711.228 352.077 710.539 350.929 710.079 349.666C709.62 348.403 709.276 347.025 709.276 345.418C709.276 343.925 709.505 342.547 710.079 341.284C710.539 340.021 711.342 338.873 712.146 337.954C712.95 337.035 714.098 336.232 715.476 335.658C716.739 335.083 718.117 334.854 719.724 334.854C721.562 334.854 723.169 335.198 724.662 335.887C726.04 336.576 727.188 337.61 728.107 338.873L725.006 341.858C724.432 341.054 723.743 340.365 722.825 339.791C722.021 339.332 720.988 338.987 719.839 338.987C718.921 338.987 718.117 339.102 717.428 339.447C716.739 339.791 716.05 340.251 715.591 340.825C715.132 341.399 714.672 342.088 714.443 342.891C714.213 343.695 713.983 344.499 713.983 345.303C713.983 346.221 714.098 347.025 714.443 347.829C714.672 348.633 715.132 349.207 715.591 349.781C716.05 350.355 716.739 350.814 717.428 351.159C718.117 351.503 718.921 351.618 719.839 351.618C720.528 351.618 721.217 351.503 721.676 351.388C722.251 351.273 722.71 351.044 723.054 350.814C723.514 350.585 723.858 350.24 724.203 349.896C724.547 349.551 724.892 349.207 725.121 348.862L727.992 351.733Z" fill="#2B2B2B"/>
<path d="M730.403 335.313H744.182V339.332H734.996V343.236H742.115V347.14H734.996V351.503H744.871V355.522H730.518V335.313H730.403Z" fill="#2B2B2B"/>
<path d="M765.194 351.733C764.735 352.307 764.276 352.881 763.701 353.34C763.127 353.8 762.438 354.259 761.749 354.718C761.06 355.063 760.257 355.407 759.338 355.637C758.534 355.866 757.616 355.981 756.697 355.981C755.205 355.981 753.827 355.752 752.564 355.177C751.301 354.603 750.267 353.914 749.349 352.996C748.43 352.077 747.741 350.929 747.282 349.666C746.823 348.403 746.478 347.025 746.478 345.418C746.478 343.925 746.708 342.547 747.282 341.284C747.741 340.021 748.545 338.873 749.349 337.954C750.152 337.035 751.301 336.232 752.678 335.658C753.942 335.083 755.319 334.854 756.927 334.854C758.764 334.854 760.372 335.198 761.864 335.887C763.242 336.576 764.39 337.61 765.309 338.873L762.209 341.858C761.635 341.054 760.946 340.365 760.027 339.791C759.223 339.332 758.19 338.987 757.042 338.987C756.123 338.987 755.319 339.102 754.63 339.447C753.942 339.791 753.253 340.251 752.793 340.825C752.334 341.399 751.875 342.088 751.645 342.891C751.415 343.695 751.186 344.499 751.186 345.303C751.186 346.221 751.301 347.025 751.645 347.829C751.875 348.633 752.334 349.207 752.793 349.781C753.253 350.355 753.942 350.814 754.63 351.159C755.319 351.503 756.123 351.618 757.042 351.618C757.731 351.618 758.42 351.503 758.879 351.388C759.453 351.273 759.912 351.044 760.257 350.814C760.716 350.585 761.06 350.24 761.405 349.896C761.749 349.551 762.094 349.207 762.324 348.862L765.194 351.733Z" fill="#2B2B2B"/>
<path d="M785.173 351.733C784.714 352.307 784.255 352.881 783.68 353.34C783.106 353.8 782.417 354.259 781.728 354.718C781.039 355.063 780.236 355.407 779.317 355.637C778.513 355.866 777.595 355.981 776.676 355.981C775.184 355.981 773.806 355.752 772.543 355.177C771.28 354.603 770.246 353.914 769.328 352.996C768.409 352.077 767.72 350.929 767.261 349.666C766.802 348.403 766.457 347.025 766.457 345.418C766.457 343.925 766.687 342.547 767.261 341.284C767.72 340.021 768.524 338.873 769.328 337.954C770.131 337.035 771.28 336.232 772.657 335.658C773.92 335.083 775.298 334.854 776.906 334.854C778.743 334.854 780.351 335.198 781.843 335.887C783.221 336.576 784.369 337.61 785.288 338.873L782.188 341.858C781.614 341.054 780.925 340.365 780.006 339.791C779.202 339.332 778.169 338.987 777.021 338.987C776.102 338.987 775.298 339.102 774.609 339.447C773.92 339.791 773.232 340.251 772.772 340.825C772.313 341.399 771.854 342.088 771.624 342.891C771.394 343.695 771.165 344.499 771.165 345.303C771.165 346.221 771.28 347.025 771.624 347.829C771.854 348.633 772.313 349.207 772.772 349.781C773.232 350.355 773.92 350.814 774.609 351.159C775.298 351.503 776.102 351.618 777.021 351.618C777.71 351.618 778.399 351.503 778.858 351.388C779.432 351.273 779.891 351.044 780.236 350.814C780.695 350.585 781.039 350.24 781.384 349.896C781.728 349.551 782.073 349.207 782.303 348.862L785.173 351.733Z" fill="#2B2B2B"/>
<path d="M800.33 335.313H805.037L797.344 351.044C796.541 352.651 795.737 353.8 794.703 354.603C793.67 355.407 792.522 355.866 791.029 355.866C790.11 355.866 789.307 355.752 788.733 355.407C788.044 355.063 787.47 354.833 786.895 354.374L788.847 351.159C789.192 351.388 789.536 351.618 789.881 351.733C790.225 351.848 790.685 351.962 791.029 351.962C792.062 351.962 792.866 351.273 793.67 349.896L786.207 335.083H791.144L795.737 345.303L800.33 335.313Z" fill="#2B2B2B"/>
<path d="M809.516 335.313H814.568L821.916 355.407H816.979L815.486 350.814H808.367L806.875 355.407H802.167L809.516 335.313ZM814.338 347.255L811.927 339.676L809.401 347.255H814.338Z" fill="#2B2B2B"/>
<path d="M824.098 335.313H831.447C832.71 335.313 833.743 335.543 834.662 335.887C835.58 336.232 836.269 336.691 836.843 337.265C837.418 337.839 837.877 338.528 838.106 339.332C838.336 340.136 838.566 340.939 838.566 341.743C838.566 342.777 838.336 343.81 837.992 344.614C837.647 345.418 837.073 346.106 836.499 346.681C835.81 347.255 835.121 347.599 834.317 347.944C833.514 348.173 832.595 348.403 831.676 348.403H828.576V355.522H824.098V335.313ZM831.217 344.614C832.021 344.614 832.71 344.384 833.169 343.81C833.628 343.351 833.858 342.662 833.858 341.858C833.858 341.054 833.628 340.365 833.054 339.791C832.595 339.217 831.906 338.987 830.987 338.987H828.347V344.614H831.217V344.614Z" fill="#2B2B2B"/>
<path d="M841.551 335.313H846.029V341.973H848.785C849.818 341.973 850.852 342.088 851.77 342.432C852.689 342.777 853.378 343.121 854.067 343.695C854.756 344.269 855.215 344.958 855.559 345.762C855.904 346.566 856.134 347.484 856.134 348.518C856.134 349.436 856.019 350.355 855.674 351.159C855.33 351.962 854.87 352.651 854.296 353.225C853.722 353.8 852.918 354.259 852 354.603C851.081 354.948 850.048 355.063 848.785 355.063H841.781V335.313H841.551ZM845.914 345.647V351.618H848.211C849.129 351.618 849.933 351.388 850.507 350.814C851.081 350.355 851.311 349.551 851.311 348.633C851.311 347.714 851.081 346.91 850.507 346.451C849.933 345.877 849.129 345.647 848.211 345.647H845.914ZM858.545 335.313H863.138V355.407H858.545V335.313Z" fill="#2B2B2B"/>
</g>
<defs>
<clipPath id="clip0_4_241">
<rect width="726.138" height="220" fill="white" transform="translate(137 140)"/>
</clipPath>
</defs>
</svg>
