<svg width="1000" height="500" viewBox="0 0 1000 500" fill="none" xmlns="http://www.w3.org/2000/svg">
<g clip-path="url(#clip0_4_240)">
<path fill-rule="evenodd" clip-rule="evenodd" d="M239.378 175.409C223.973 173.786 208.442 176.975 194.922 184.537C181.402 192.098 170.556 203.662 163.875 217.638C157.193 231.614 155.005 247.316 157.609 262.586C160.214 277.857 167.485 291.946 178.421 302.916C189.358 313.887 203.425 321.201 218.687 323.853C233.949 326.505 249.658 324.365 263.655 317.727C277.651 311.088 289.248 300.278 296.852 286.781C304.455 273.285 307.692 257.765 306.116 242.354C304.383 225.224 296.8 209.215 284.644 197.021C272.489 184.828 256.503 177.195 239.378 175.409V175.409ZM236.949 289.659C228.663 290.77 220.237 289.257 212.856 285.333C205.474 281.409 199.508 275.27 195.795 267.78C192.083 260.29 190.811 251.824 192.158 243.574C193.505 235.323 197.403 227.702 203.305 221.781C209.207 215.861 216.816 211.938 225.063 210.566C233.309 209.193 241.778 210.438 249.28 214.127C256.782 217.817 262.939 223.764 266.887 231.133C270.834 238.502 272.373 246.923 271.288 255.212C270.148 263.931 266.167 272.031 259.959 278.258C253.751 284.485 245.664 288.492 236.949 289.659V289.659ZM346.221 178.376C343.62 178.382 341.054 178.968 338.708 180.091C336.362 181.214 334.297 182.845 332.661 184.867C331.025 186.889 329.861 189.25 329.253 191.779C328.645 194.307 328.608 196.94 329.145 199.484C330.79 207.728 338.49 213.36 346.878 213.36H395.555L319.803 313.607C319.242 314.348 318.899 315.229 318.812 316.153C318.725 317.077 318.896 318.007 319.308 318.839C319.72 319.671 320.355 320.372 321.143 320.863C321.93 321.355 322.839 321.617 323.767 321.62H442.591C450.974 321.62 458.679 315.989 460.324 307.744C460.862 305.2 460.825 302.568 460.217 300.04C459.61 297.512 458.446 295.151 456.811 293.129C455.176 291.107 453.111 289.474 450.767 288.351C448.422 287.227 445.856 286.64 443.256 286.633H383.947L459.641 186.463C460.206 185.716 460.553 184.826 460.641 183.893C460.729 182.96 460.555 182.021 460.139 181.181C459.723 180.341 459.081 179.633 458.286 179.138C457.49 178.642 456.572 178.378 455.635 178.376H346.221V178.376ZM821.035 178.779C817.101 179.715 813.604 181.965 811.122 185.157C808.641 188.35 807.323 192.293 807.387 196.337V254.585L713.003 179.476C712.263 178.888 711.372 178.522 710.432 178.418C709.493 178.314 708.544 178.478 707.693 178.89C706.843 179.302 706.126 179.946 705.625 180.748C705.125 181.549 704.86 182.475 704.863 183.42V303.69C704.799 307.734 706.116 311.678 708.598 314.87C711.08 318.063 714.577 320.313 718.511 321.248C721.065 321.81 723.714 321.791 726.26 321.193C728.806 320.596 731.186 319.434 733.224 317.793C735.261 316.153 736.904 314.076 738.032 311.716C739.16 309.356 739.743 306.773 739.74 304.158V245.405L834.125 320.516C834.865 321.103 835.756 321.469 836.695 321.573C837.634 321.676 838.583 321.513 839.433 321.101C840.283 320.689 840.999 320.045 841.5 319.244C842.001 318.443 842.265 317.517 842.262 316.572V195.864C842.265 193.249 841.681 190.666 840.553 188.307C839.425 185.948 837.782 183.872 835.744 182.232C833.707 180.593 831.328 179.431 828.782 178.834C826.236 178.236 823.589 178.217 821.035 178.779V178.779ZM575.285 210.012C615.207 210.012 645.036 231.109 645.036 249.98C645.036 268.852 615.207 289.949 575.285 289.949C535.363 289.949 505.533 268.852 505.533 249.98C505.533 231.109 535.363 210.012 575.285 210.012V210.012ZM575.285 175.028C517.499 175.028 470.656 208.586 470.656 249.98C470.656 291.375 517.499 324.932 575.285 324.932C633.07 324.932 679.911 291.375 679.911 249.98C679.911 208.586 633.068 175.028 575.285 175.028V175.028Z" fill="#0069FF"/>
</g>
<defs>
<clipPath id="clip0_4_240">
<rect width="685.263" height="150" fill="white" transform="translate(157 175)"/>
</clipPath>
</defs>
</svg>
