<svg width="1000" height="500" viewBox="0 0 1000 500" fill="none" xmlns="http://www.w3.org/2000/svg">
<g clip-path="url(#clip0_4_247)">
<path d="M502.428 362.015L619.065 400.011V100L502.428 137.996V362.015V362.015Z" fill="#4CC7E9"/>
<path d="M211 214.111H230.998V225.37C233.397 221.413 236.777 218.143 240.812 215.876C244.846 213.61 249.397 212.424 254.025 212.434C271.671 212.434 285.288 225.543 285.288 249.24V250.43C285.288 274.127 271.844 287.571 254.025 287.571C249.424 287.756 244.858 286.698 240.806 284.51C236.754 282.321 233.367 279.082 230.998 275.133V310.598H211V214.111ZM264.949 250.581V249.402C264.949 234.779 257.724 227.722 247.806 227.722C237.385 227.722 230.16 234.947 230.16 249.402V250.581C230.16 265.036 237.05 272.094 247.806 272.094C258.897 271.931 264.949 264.533 264.949 250.587V250.581Z" fill="#343741"/>
<path d="M296.044 260.494V214.116H315.874V257.644C315.874 267.394 319.908 272.099 328.312 272.099C330.379 272.212 332.446 271.874 334.369 271.108C336.292 270.342 338.025 269.167 339.448 267.664C340.871 266.161 341.95 264.366 342.61 262.404C343.27 260.442 343.496 258.361 343.27 256.303V214.116H363.095V286.052H343.438V274.787C341.288 278.912 337.978 282.319 333.917 284.589C329.856 286.858 325.22 287.891 320.579 287.56C306.465 287.56 296.044 279.324 296.044 260.494V260.494Z" fill="#343741"/>
<path d="M378.394 181.512H398.225V285.884H378.394V181.512Z" fill="#343741"/>
<path d="M416.038 264.707V228.236H406.796V214.116H416.038V198.655H435.852V214.116H450.978V228.236H435.852V262.88C435.852 268.596 438.707 271.451 443.753 271.451C446.342 271.556 448.924 271.096 451.318 270.104V285.565C447.424 286.887 443.327 287.513 439.216 287.415C424.274 287.392 416.038 279.676 416.038 264.707V264.707Z" fill="#343741"/>
<path d="M670.996 214.116H690.994V227.895C692.841 223.324 696.068 219.442 700.226 216.792C704.384 214.142 709.265 212.855 714.189 213.11V231.6C699.398 231.432 690.994 236.305 690.994 250.089V286.057H670.996V214.116Z" fill="#343741"/>
<path d="M722.257 260.494V214.116H742.088V257.644C742.088 267.394 746.122 272.099 754.526 272.099C756.592 272.212 758.659 271.874 760.582 271.108C762.505 270.342 764.238 269.167 765.661 267.664C767.085 266.161 768.164 264.366 768.824 262.404C769.484 260.442 769.709 258.36 769.484 256.303V214.116H789.309V286.051H769.478V274.787C767.328 278.912 764.018 282.319 759.957 284.589C755.896 286.858 751.26 287.891 746.619 287.56C732.678 287.56 722.257 279.324 722.257 260.494V260.494Z" fill="#343741"/>
</g>
<defs>
<clipPath id="clip0_4_247">
<rect width="578.32" height="300" fill="white" transform="translate(211 100)"/>
</clipPath>
</defs>
</svg>
