<svg width="1000" height="500" viewBox="0 0 1000 500" fill="none" xmlns="http://www.w3.org/2000/svg">
<g clip-path="url(#clip0_4_238)">
<path d="M124.835 294.628L100.417 204.612H116.434L135.195 273.749L155.302 204.606L170.233 204.612L190.411 274.117L209.256 204.629L225.273 204.606L200.845 294.612L182.279 294.593L162.774 227.371L143.251 294.611L124.835 294.628Z" fill="#CB11AB"/>
<path d="M236.32 204.659H251.567V294.57H236.32V204.659Z" fill="#CB11AB"/>
<path d="M284.165 280.466H321.284V294.57H269.233V204.659H284.165V280.466Z" fill="#CB11AB"/>
<path d="M368.184 204.763C380.697 204.763 391.107 209.118 399.309 217.726C407.616 226.333 411.822 237.015 411.822 249.666C411.822 262.215 407.616 272.896 399.309 281.607C391.107 290.215 380.697 294.57 368.184 294.57H332.326V204.659H368.184V204.763ZM368.184 280.57C376.806 280.57 383.851 277.666 389.109 271.859C394.577 266.052 397.311 258.585 397.311 249.77C397.311 240.748 394.577 233.489 389.109 227.681C383.746 221.874 376.701 218.97 368.184 218.97H347.363V280.57H368.184Z" fill="#CB11AB"/>
<path d="M492.263 268.885C492.263 276.252 489.637 282.373 484.273 287.25C478.91 292.127 472.6 294.617 464.82 294.617H425.807V204.659H461.98C469.447 204.659 475.753 207.149 480.907 211.818C486.167 216.591 488.69 222.505 488.69 229.561C488.69 237.446 485.533 243.464 479.437 247.926C487.427 252.076 492.263 259.547 492.263 268.885ZM440.843 218.563V242.219H462.083C468.71 242.219 473.757 237.031 473.757 230.391C473.757 223.75 468.71 218.563 462.083 218.563H440.843ZM464.923 280.713C471.863 280.713 477.333 275.214 477.333 268.159C477.333 261.103 471.863 255.604 464.923 255.604H440.843V280.817H464.923V280.713Z" fill="#CB11AB"/>
<path d="M521.39 280.506H561.77V294.617H506.46V204.659H561.14V218.77H521.39V242.115H557.88V256.123H521.39V280.506Z" fill="#CB11AB"/>
<path d="M627.177 294.617L607.827 261.829H590.16V294.617H575.23V204.659H611.717C619.92 204.659 626.86 207.46 632.433 213.167C638.11 218.666 641.057 225.514 641.057 233.607C641.057 245.021 633.8 255.5 622.97 259.65L643.683 294.617H627.177ZM590.16 218.562V248.652H611.613C619.603 248.652 625.913 242.012 625.913 233.607C625.913 225.307 619.5 218.562 611.613 218.562H590.16Z" fill="#CB11AB"/>
<path d="M706.987 294.616L687.744 261.812H670.077V294.616H655.147V204.612H691.634C699.837 204.612 706.777 207.415 712.35 213.125C718.027 218.627 720.974 225.478 720.974 233.575C720.974 244.995 713.717 255.48 702.887 259.632L723.6 294.616H706.987ZM670.077 218.523V248.628H691.53C699.52 248.628 705.83 241.984 705.83 233.575C705.83 225.271 699.417 218.523 691.53 218.523H670.077Z" fill="#CB11AB"/>
<path d="M734.537 204.622H749.47V294.617H734.537V204.622Z" fill="#CB11AB"/>
<path d="M782.067 280.506H822.447V294.616H767.133V204.659H821.813V218.77H782.067V242.115H818.553V256.123H782.067V280.506Z" fill="#CB11AB"/>
<path d="M832.857 274.141L845.79 266.674C849.47 276.837 856.937 281.815 868.397 281.815C879.754 281.815 885.327 277.044 885.327 269.993C885.327 266.259 883.75 263.563 880.807 261.696C877.86 259.726 872.394 257.548 864.614 255.267C855.884 252.674 851.574 251.015 845.474 247.074C839.587 242.926 836.64 237.015 836.64 228.926C836.64 220.941 839.48 214.719 845.264 210.052C850.944 205.281 857.884 203 865.98 203C880.597 203 891.847 210.467 897.737 222.807L885.117 229.963C881.33 221.667 874.917 217.415 865.98 217.415C857.25 217.415 851.677 221.77 851.677 228.615C851.677 235.252 856.094 238.363 870.08 242.615C873.55 243.756 876.074 244.585 877.65 245.207C879.334 245.726 881.54 246.659 884.38 247.8C887.327 248.941 889.64 250.289 891.007 251.43C895.844 255.163 900.994 261.281 900.364 269.889C900.364 277.978 897.42 284.511 891.427 289.281C885.537 294.052 877.757 296.333 868.084 296.333C850.417 296.23 837.587 287.933 832.857 274.141Z" fill="#CB11AB"/>
</g>
<defs>
<clipPath id="clip0_4_238">
<rect width="800" height="213.333" fill="white" transform="translate(100 143)"/>
</clipPath>
</defs>
</svg>
