<svg width="1000" height="500" viewBox="0 0 1000 500" fill="none" xmlns="http://www.w3.org/2000/svg">
<path d="M705.13 232.049V276.049C705.427 282.6 700.243 288.076 693.692 288.368H693.005C690.199 288.417 687.464 287.487 685.269 285.738C683.074 283.989 681.557 281.53 680.978 278.784C673.664 285.42 664.061 288.961 654.189 288.66C635.324 288.562 622.514 277.514 622.514 261.281C622.514 245.054 635.708 234.687 657.124 234.687H680.103V230.578C680.103 220.416 673.941 214.449 662.795 214.449C656.243 214.449 649.984 216.892 645.195 221.292C643.142 223.118 640.509 224.158 637.762 224.227C636.394 224.275 635.029 224.053 633.747 223.572C632.465 223.092 631.291 222.363 630.291 221.427C629.292 220.491 628.487 219.367 627.923 218.12C627.359 216.872 627.047 215.525 627.005 214.157V214.06C627.143 212.145 627.676 210.279 628.569 208.58C629.462 206.88 630.696 205.384 632.195 204.184C640.011 196.946 651.941 192.838 665.335 192.838C690.659 192.838 705.13 207.216 705.13 232.049V232.049ZM680.103 252.287V251.211H660.351C652.038 251.211 647.541 254.346 647.541 260.503C647.541 266.665 652.432 270.378 660.643 270.378C671.789 270.378 680.103 262.649 680.103 252.287ZM409.265 241.141C409.265 214.546 430.184 193.816 457.076 193.816C472.232 193.816 486.314 201.151 493.157 211.811C494.816 214.351 495.308 216.405 495.308 218.362C495.317 221.252 494.179 224.027 492.144 226.079C490.109 228.131 487.344 229.292 484.454 229.308C481.032 229.308 478.292 228.232 476.141 225.497C471.643 220.022 465.292 216.308 457.368 216.308C443.681 216.308 433.908 226.573 433.908 241.043C433.908 255.708 443.681 265.978 457.368 265.978C465.097 265.978 471.254 262.357 476.141 256.789C478.681 253.854 481.227 252.973 484.454 252.973C490.416 252.973 495.308 257.957 495.308 263.924C495.308 266.076 494.719 267.93 493.351 270.178C485.919 281.719 473.016 288.665 457.081 288.665C430.189 288.854 409.265 267.735 409.265 241.141V241.141ZM510.27 276.146V206.33C510.27 199.389 515.449 193.914 522.487 193.914C526.595 193.914 530.016 196.065 532.362 198.995L560.135 236.054L587.903 199C590.249 196.065 593.67 193.919 597.778 193.919C604.816 193.919 609.995 199.389 609.995 206.33V276.146C609.995 283.281 604.816 288.757 597.778 288.757C590.935 288.757 585.654 283.281 585.654 276.146V240.454L567.46 263.919C565.703 265.973 562.962 267.054 560.032 267.054C557.097 267.054 554.454 265.973 552.6 263.919L534.411 240.46V276.146C534.411 283.281 529.232 288.757 522.287 288.757C515.541 288.854 510.259 283.281 510.259 276.146H510.27ZM813.665 241.141C813.665 268.616 795.476 288.757 770.346 288.757C759.2 288.757 749.816 284.746 743.654 277.805V309.292C743.654 316.427 738.476 321.708 731.53 321.708C724.492 321.708 719.308 316.427 719.308 309.292V205.941C719.308 199 724.492 193.616 731.432 193.616C737.887 193.622 742.773 198.605 743.168 205.357C749.324 198.022 758.811 193.816 770.449 193.816C795.476 193.914 813.665 213.665 813.665 241.141V241.141ZM788.924 241.335C788.924 226.67 779.346 216.205 765.849 216.205C752.357 216.205 743.265 226.281 743.265 241.141C743.265 256.005 752.454 266.27 765.849 266.27C779.249 266.27 788.924 255.805 788.924 241.335V241.335ZM846.13 276.146V216.6H826.962C821 216.6 816.503 212.2 816.503 206.135C816.503 200.27 821 195.676 826.962 195.676H889.541C895.697 195.676 900 200.27 900 206.135C900 212.2 895.697 216.6 889.541 216.6H870.276V276.146C870.276 283.281 865.195 288.757 858.151 288.757C851.308 288.854 846.13 283.281 846.13 276.146V276.146Z" fill="#FD3C3C"/>
<path d="M180.081 259.13C180.081 275.265 166.881 286.605 148.297 286.605H112.422C105.189 286.605 100 281.324 100 273.995V208.578C100 201.443 105.184 195.87 112.416 195.87H142.146C161.308 195.87 173.919 205.941 173.919 221.195C173.919 227.941 171.378 233.805 166.681 238.205C175.384 242.411 180.081 249.746 180.081 259.13V259.13ZM123.27 231.07H141.649C147.811 231.07 151.432 228.33 151.432 223.151C151.432 218.162 148.205 215.622 141.649 215.622H123.27V231.07ZM157.686 257.276C157.686 251.8 153.384 248.476 146.346 248.476H123.27V266.659H146.346C153.384 266.659 157.686 262.946 157.686 257.276ZM189.659 241.141C189.659 214.546 210.578 193.816 237.47 193.816C252.627 193.816 266.708 201.151 273.551 211.811C275.211 214.351 275.703 216.405 275.703 218.362C275.711 221.252 274.573 224.027 272.539 226.079C270.504 228.131 267.738 229.292 264.849 229.308C261.427 229.308 258.686 228.232 256.535 225.497C252.038 220.022 245.686 216.308 237.762 216.308C224.076 216.308 214.303 226.573 214.303 241.043C214.303 255.708 224.076 265.978 237.762 265.978C245.492 265.978 251.649 262.357 256.535 256.789C259.076 253.854 261.622 252.973 264.849 252.973C270.811 252.973 275.703 257.957 275.703 263.924C275.703 266.076 275.114 267.93 273.746 270.178C266.314 281.719 253.411 288.665 237.476 288.665C210.584 288.854 189.659 267.735 189.659 241.141V241.141ZM356.368 199.589C357.396 199.751 358.446 199.706 359.456 199.459C360.467 199.211 361.419 198.765 362.256 198.146C363.092 197.528 363.798 196.749 364.331 195.855C364.865 194.962 365.215 193.971 365.362 192.941C365.533 191.913 365.5 190.861 365.262 189.846C365.025 188.831 364.59 187.873 363.981 187.028C363.372 186.182 362.601 185.465 361.714 184.919C360.827 184.372 359.84 184.007 358.811 183.843C357.783 183.682 356.733 183.726 355.722 183.974C354.711 184.221 353.76 184.668 352.923 185.286C352.086 185.905 351.38 186.684 350.847 187.577C350.314 188.471 349.963 189.462 349.816 190.492C349.227 194.795 352.162 198.903 356.368 199.589ZM379.638 192.838C380.666 192.999 381.716 192.955 382.727 192.707C383.737 192.46 384.689 192.014 385.526 191.395C386.363 190.776 387.068 189.998 387.602 189.104C388.135 188.21 388.485 187.219 388.632 186.189C388.803 185.162 388.768 184.111 388.531 183.096C388.294 182.082 387.858 181.125 387.249 180.28C386.64 179.435 385.87 178.719 384.983 178.172C384.096 177.626 383.11 177.261 382.081 177.097C381.053 176.936 380.003 176.98 378.992 177.228C377.981 177.476 377.03 177.922 376.193 178.54C375.356 179.159 374.651 179.938 374.117 180.831C373.584 181.725 373.234 182.716 373.086 183.746C372.756 185.82 373.259 187.94 374.486 189.643C375.714 191.347 377.566 192.496 379.638 192.838V192.838Z" fill="#061283"/>
<path d="M388.73 210.535C386.384 204.281 381.789 200.173 376.605 199.881C370.443 199.584 365.362 203.595 365.362 210.535C365.362 213.276 366.335 216.211 366.93 220.319C368.292 228.822 368 232.827 368 240.162C368.097 249.351 366.924 257.568 361.157 262.162C356.659 265.681 351.87 265.584 348.151 265.389L350.011 234.103C351.578 207.308 338.178 194.211 317.351 194.405C300.243 194.6 287.238 209.854 285.676 228.622C283.914 243.973 283.914 280.643 323.514 286.897C324.687 287.195 325.762 287.384 326.935 287.584C332.314 288.368 351.573 290.422 366.924 285.043C383.249 279.368 392.151 264.611 392.151 243.195C392.249 228.038 391.178 217.087 388.73 210.535V210.535ZM330.843 265.778H329.281C314.416 265.778 304.838 253.265 304.838 236.643C304.838 224.319 309.724 216.6 318.135 216.6C326.449 216.6 330.849 223.346 330.849 235.957V265.778H330.843Z" fill="#061283"/>
</svg>
