<svg width="1000" height="500" viewBox="0 0 1000 500" fill="none" xmlns="http://www.w3.org/2000/svg">
<g clip-path="url(#clip0_4_242)">
<path d="M697.464 307.876C746.552 282.141 758.302 249.648 743.224 240.505C720.974 228.128 659.725 250.284 666.782 311.129C663.746 312.919 657.656 316.211 657.656 316.211L661.658 328.472C661.658 328.472 670.242 323.371 672.446 321.851C679.638 327.626 683.369 330.802 694.427 331.09C718.073 331.629 738.391 305.489 738.391 305.489L732.458 296.25C732.589 296.173 706.589 321.1 697.464 307.876ZM703.979 270.572C711.016 258.195 722.365 248.551 728.026 252.401C733.693 256.251 722.365 275.808 695.953 296.673C694.854 294.806 696.922 283.065 703.979 270.572ZM252.882 331.013C248.059 330.953 243.448 329.027 240.026 325.643C228.271 313.381 239.33 271.958 241.669 263.007C241.726 262.815 241.738 262.613 241.702 262.416C241.667 262.218 241.586 262.032 241.466 261.871C241.346 261.711 241.19 261.58 241.01 261.49C240.831 261.4 240.633 261.353 240.432 261.352C240.183 261.352 239.939 261.416 239.722 261.537C239.505 261.658 239.323 261.833 239.194 262.045C234.206 272.093 207.256 331.013 183.477 331.013H182.085C159.001 328.8 162.056 297.135 169.228 277.867H206.425C203.39 286.125 202.423 291.341 202.423 294.113C202.558 296.038 204.221 297.135 205.729 296.327C209.596 294.248 215.956 285.99 221.485 276.501C231.442 259.022 244.434 232.864 266.782 166.667H307.479C295.453 203.547 285.632 236.867 280.316 274.98C280.244 275.439 280.319 275.909 280.53 276.324C280.742 276.739 281.079 277.076 281.494 277.289C281.909 277.502 282.381 277.58 282.842 277.511C283.304 277.442 283.732 277.23 284.066 276.905C295.666 266.029 338.198 174.636 340.731 166.667H381.659C381.659 166.667 341.427 277.463 344.753 296.038C344.808 296.723 345.079 297.374 345.525 297.898C345.971 298.423 346.571 298.795 347.241 298.963C347.91 299.13 348.616 299.085 349.258 298.833C349.901 298.582 350.448 298.136 350.823 297.559C353.182 294.671 356.507 290.398 358.846 287.78L364.646 293.555C353.046 307.857 334.1 333.593 315.308 330.57C312.307 329.95 309.553 328.471 307.382 326.317C287.759 309.397 315.115 252.69 319.968 239.331C321.069 236.444 322.036 233.691 322.732 232.036C322.803 231.834 322.824 231.619 322.795 231.408C322.765 231.197 322.686 230.996 322.563 230.821C322.441 230.646 322.278 230.503 322.089 230.403C321.9 230.303 321.69 230.249 321.476 230.246C321.227 230.244 320.981 230.307 320.765 230.429C320.547 230.55 320.366 230.726 320.238 230.939C319.271 232.998 316.778 238.369 315.811 240.159C303.747 265.067 275.83 331.013 252.882 331.013ZM637.202 195.02C626.304 194.829 615.717 198.647 607.468 205.742L607.758 216.617C607.758 216.617 620.75 203.547 634.302 209.188C643.137 212.768 649.769 223.085 644.8 241.121C644.53 242.218 643.969 244.297 643.698 245.394C639.831 237.136 625.448 230.804 605.4 245.933C590.745 256.944 587.014 268.647 584.133 278.156C579.977 292.054 580.267 307.029 583.437 315.999C584.764 319.497 586.816 322.677 589.461 325.33C592.107 327.984 595.284 330.052 598.788 331.398C631.963 343.929 658.101 292.901 666.105 256.116C671.209 232.864 675.076 195.694 637.202 195.02ZM619.358 306.779C615.627 309.262 609.266 310.359 608.299 298.926C607.062 282.545 619.087 263.277 622.683 258.734C628.908 251.169 637.338 250.765 637.202 262.584C637.067 276.366 628.618 300.716 619.358 306.779ZM519.271 185.511C499.648 178.774 430.34 200.66 407.43 277.04C404.665 277.867 391.268 281.178 391.268 281.178L385.468 296.866L405.98 290.533C405.98 290.533 403.757 329.762 438.324 330.956C465.564 329.974 479.793 290.071 471.093 262.949C469.431 263.777 447.584 274.229 447.584 274.229C447.584 274.229 452.147 300.812 442.481 306.952C442.112 307.211 441.694 307.392 441.252 307.483C440.811 307.575 440.355 307.576 439.913 307.486C439.471 307.396 439.053 307.216 438.683 306.959C438.313 306.702 438 306.372 437.764 305.99C434.999 302.14 433.201 291.957 436.255 278.464C486.154 252.593 520.296 207.243 522.384 191.479C522.636 190.279 522.464 189.03 521.896 187.942C521.329 186.855 520.402 185.996 519.271 185.511ZM457.193 253.094C452.024 257.083 446.528 260.631 440.76 263.7C440.76 263.7 443.37 257.636 445.322 254.191C450.697 245.26 476.41 210.708 497.985 204.375C498.164 204.31 498.357 204.294 498.544 204.33C498.731 204.366 498.904 204.452 499.045 204.579C499.187 204.705 499.291 204.868 499.346 205.05C499.401 205.231 499.405 205.423 499.358 205.607C499.358 213.191 472.002 241.949 457.193 253.094ZM560.064 309.532C559.997 309.731 559.992 309.946 560.051 310.149C560.109 310.351 560.228 310.531 560.392 310.665C560.555 310.798 560.756 310.879 560.966 310.897C561.177 310.915 561.388 310.868 561.572 310.764C564.242 309.014 566.823 307.131 569.305 305.123L572.069 313.516C570.407 315.306 557.125 325.778 548.87 329.627C539.899 333.766 531.741 328.26 530.484 321.639C529.247 313.94 533.114 303.892 533.114 303.892C533.114 303.892 518.884 320.138 504.366 327.972C501.492 329.776 498.206 330.822 494.815 331.013C485.013 330.725 481.958 321.389 483.08 316.269C484.317 310.224 497.599 269.609 499.242 263.007C499.261 262.829 499.238 262.648 499.173 262.48C499.109 262.313 499.006 262.163 498.872 262.042C498.738 261.922 498.577 261.835 498.403 261.789C498.229 261.742 498.046 261.738 497.869 261.775C493.848 262.872 483.351 269.744 483.351 269.744V258.465C483.351 258.465 513.761 237.81 521.359 235.616C528.416 233.691 534.506 237.676 532.707 245.664C531.876 251.169 512.098 298.926 512.098 304.989C512.077 305.152 512.096 305.318 512.155 305.472C512.213 305.626 512.308 305.763 512.432 305.872C512.557 305.98 512.706 306.056 512.867 306.094C513.028 306.131 513.196 306.129 513.355 306.086C519.02 304.431 529.382 295.634 537.27 283.103C544.733 271.4 549.701 256.675 555.927 238.369H582.335C582.316 238.503 562.268 299.484 560.064 309.532ZM835.849 252.266C836.411 260.813 828.25 305.817 795.073 323.853C785.255 329.223 778.625 331.283 772.667 331.013C758.573 330.59 751.943 319.175 750.417 315.46C734.255 275.538 781.521 238.465 781.521 238.465H808.896C808.896 238.465 767.141 271.65 772.958 301.101C777.521 318.983 794.224 310.321 803.505 290.09C805.302 286.086 816.495 259.523 809.458 259.119C803.234 258.695 794.938 271.784 794.938 271.784L789.141 262.969C793.703 257.194 806.422 242.045 820.672 237.233C822.99 236.579 835.714 233.96 835.849 252.266ZM376.98 309.262C379.141 309.262 381.253 309.9 383.049 311.095C384.845 312.29 386.245 313.989 387.072 315.976C387.899 317.963 388.115 320.149 387.694 322.259C387.272 324.369 386.232 326.307 384.704 327.828C383.177 329.349 381.23 330.384 379.111 330.804C376.993 331.224 374.796 331.008 372.801 330.185C370.805 329.362 369.098 327.968 367.898 326.18C366.698 324.391 366.057 322.289 366.057 320.138C366.047 318.707 366.322 317.288 366.868 315.964C367.413 314.64 368.217 313.436 369.234 312.425C370.25 311.413 371.458 310.612 372.788 310.069C374.118 309.526 375.543 309.252 376.98 309.262Z" fill="#E31235"/>
</g>
<defs>
<clipPath id="clip0_4_242">
<rect width="671.875" height="250" fill="white" transform="translate(164 125)"/>
</clipPath>
</defs>
</svg>
