<svg width="1000" height="500" viewBox="0 0 1000 500" fill="none" xmlns="http://www.w3.org/2000/svg">
<path fill-rule="evenodd" clip-rule="evenodd" d="M200 265.834C200 295.292 216.464 325 253.333 325C290.168 325 306.665 295.292 306.665 265.834C306.665 245.712 299.9 222.54 288.608 203.824C277.627 185.75 264.433 175 253.333 175C242.201 175 229.001 185.75 218.115 203.824C206.77 222.54 200 245.712 200 265.834Z" fill="#E30611"/>
<path fill-rule="evenodd" clip-rule="evenodd" d="M578.653 219.198H541.321V183.038H655.986V219.198H618.653V316.966H578.653V219.198Z" fill="#E30611"/>
<path fill-rule="evenodd" clip-rule="evenodd" d="M741.315 219.2H799.984V183.038H741.32C687.414 183.038 658.636 209.958 658.636 250.003C658.636 290.048 687.414 316.968 741.32 316.968H799.984V280.806H741.315C716.373 280.806 699.969 271.85 699.969 250.003C699.969 228.156 716.373 219.2 741.315 219.2Z" fill="#E30611"/>
<path fill-rule="evenodd" clip-rule="evenodd" d="M438.651 262.979L459.975 183.038H530.659V316.968H490.657V207.961L461.581 316.968H415.719L386.661 208.031L386.659 316.968H346.661V183.038H417.325L438.651 262.979Z" fill="#E30611"/>
</svg>
