<svg width="1000" height="500" viewBox="0 0 1000 500" fill="none" xmlns="http://www.w3.org/2000/svg">
<g clip-path="url(#clip0_4_253)">
<path d="M899.331 207.209H871.213C868.536 207.209 865.523 207.879 862.845 208.883C860.167 209.887 857.824 211.226 855.816 213.234C853.808 215.243 852.134 217.251 851.13 219.594C850.126 221.937 849.456 224.615 849.456 227.293V286.874C849.456 287.209 849.456 287.209 849.791 287.209L850.126 287.544H870.209C870.544 287.544 870.544 287.544 870.544 287.209C870.544 286.874 870.879 286.874 870.879 286.874V227.293C870.879 225.619 871.548 223.946 872.887 222.607C874.226 221.268 875.9 220.598 877.908 220.598H885.941C889.623 220.598 892.971 219.259 895.649 216.916C898.326 214.573 899.665 211.226 899.665 207.879V207.544C899.665 207.544 899.665 207.544 899.665 207.209C899.665 207.209 899.665 207.209 899.331 207.209Z" fill="#1E509A"/>
<path d="M813.975 207.209H788.536C786.192 207.209 783.515 207.879 781.172 208.883C778.828 209.887 776.82 211.226 775.146 213.234C773.473 215.243 772.134 217.251 771.13 219.594C770.125 221.937 769.791 224.615 769.791 227.293V327.042C769.791 327.377 769.791 327.377 770.125 327.377L770.46 327.711C775.481 327.711 780.167 325.703 783.515 322.021C786.862 318.339 788.87 313.318 788.87 308.297V288.213C788.87 287.879 788.87 287.879 789.205 287.879L789.54 287.544H814.31C816.653 287.544 819.331 287.209 821.674 286.205C824.017 285.201 826.025 283.862 828.033 281.854C829.707 279.845 831.381 277.837 832.05 275.494C833.054 273.151 833.389 270.473 833.389 267.795V227.293C833.389 221.937 831.381 216.916 827.699 213.234C824.017 209.218 818.996 207.209 813.975 207.209ZM813.975 267.46C813.975 268.464 813.975 269.134 813.64 270.138C813.305 270.808 812.971 271.812 812.301 272.146C811.632 272.816 810.962 273.151 810.293 273.485C809.623 273.82 808.619 274.155 807.95 274.155H795.23C793.556 274.155 791.883 273.485 790.879 272.146C789.54 270.808 788.87 269.134 788.87 267.46V227.293C788.87 225.619 789.54 223.946 790.879 222.607C792.218 221.268 793.556 220.598 795.23 220.598H807.95C808.619 220.598 809.623 220.933 810.293 221.268C810.962 221.603 811.632 221.937 812.301 222.607C812.971 223.276 813.305 223.946 813.64 224.615C813.975 225.285 813.975 226.289 813.975 227.293V267.46Z" fill="#1E509A"/>
<path d="M730.293 207.209H704.853C699.832 207.209 694.812 209.218 691.464 213.234C687.782 216.916 685.774 222.272 685.774 227.293V267.46C685.774 272.816 687.782 277.837 691.464 281.519C695.146 285.201 699.832 287.544 704.853 287.544H730.293C735.314 287.544 740.335 285.536 743.682 281.519C747.364 277.837 749.372 272.816 749.372 267.46V227.293C749.372 224.615 749.038 221.937 748.033 219.594C747.029 217.251 745.69 214.908 744.017 213.234C742.343 211.226 740 209.887 737.992 208.883C735.314 207.879 732.971 207.209 730.293 207.209ZM730.293 267.46C730.293 268.464 730.293 269.134 729.958 270.138C729.623 270.808 729.289 271.812 728.619 272.481C727.95 273.151 727.28 273.485 726.611 273.82C725.941 274.155 724.937 274.49 724.268 274.49H711.548C709.874 274.49 708.201 273.82 707.197 272.481C705.858 271.142 705.188 269.469 705.188 267.795V227.293C705.188 225.619 705.858 223.946 707.197 222.607C708.535 221.268 709.874 220.598 711.548 220.598H724.268C725.941 220.598 727.615 221.268 728.619 222.607C729.958 223.946 730.627 225.619 730.627 227.293V267.46H730.293Z" fill="#1E509A"/>
<path d="M678.41 207.209H617.824C614.477 207.209 611.464 208.548 609.121 210.891C606.778 213.234 605.439 216.582 605.439 219.929C605.439 220.264 605.439 220.264 605.774 220.264L606.109 220.598H631.883C631.213 222.607 630.879 224.95 630.879 227.293V286.874V287.209C630.879 287.209 630.879 287.209 630.879 287.544C630.879 287.879 630.879 287.544 631.213 287.544H631.548H649.958H650.293C650.293 287.544 650.293 287.544 650.627 287.544C650.962 287.544 650.627 287.544 650.627 287.209V286.874V227.293C650.627 226.289 650.628 225.619 650.962 224.615C651.297 223.946 651.632 222.941 652.301 222.272C652.971 221.603 653.64 221.268 654.31 220.933C654.979 220.598 655.983 220.264 656.987 220.264H666.36C669.707 220.264 672.72 218.925 675.063 216.582C677.406 214.239 678.745 210.891 678.745 207.544C678.745 207.209 678.745 207.209 678.41 207.209C678.075 207.209 678.745 207.209 678.41 207.209Z" fill="#1E509A"/>
<path d="M411.297 203.862C407.28 203.862 402.929 204.866 399.581 207.209C395.899 209.217 392.887 212.23 390.879 215.912L378.494 238.004C378.494 238.004 378.159 238.339 377.489 238.004L365.104 215.912C362.427 211.226 358.745 207.879 353.724 205.87C349.038 203.862 343.682 203.527 338.661 204.866C333.64 206.205 329.289 209.217 325.941 213.234C322.594 217.251 320.92 222.272 320.92 227.628V300.263C320.92 300.598 320.92 300.598 321.255 300.598L321.59 300.933C324.268 300.933 326.611 300.263 328.954 299.594C331.297 298.925 333.305 297.251 335.314 295.243C336.987 293.569 338.661 291.226 339.665 288.883C340.669 286.54 341.004 283.862 341.004 281.519V226.958C341.004 225.954 341.004 225.284 341.339 224.28C341.674 223.611 342.008 222.607 342.678 221.937C343.347 221.268 344.017 220.933 344.686 220.598C345.356 220.263 346.36 219.929 347.364 219.929C348.368 219.929 349.372 220.263 350.376 220.598C351.381 220.933 352.05 221.602 352.72 222.607L367.448 248.381V273.151V273.485C367.448 273.485 367.448 273.485 367.448 273.82C367.448 273.82 367.448 273.82 367.782 273.82H368.117H386.862H387.197C387.197 273.82 387.197 273.82 387.531 273.82C387.531 273.82 387.531 273.82 387.531 273.485V273.151V248.381L402.259 222.607C403.264 221.602 404.268 220.598 405.607 220.263C406.946 219.929 408.284 219.929 409.623 220.263C410.962 220.598 411.966 221.602 412.971 222.607C413.64 223.611 414.31 225.284 414.31 226.623V286.54C414.31 286.874 414.31 286.874 414.644 286.874C414.979 286.874 414.979 287.209 414.979 287.209H433.724C434.058 287.209 434.058 287.209 434.058 286.874L434.393 286.54V227.628C434.393 221.268 432.05 215.243 427.364 210.891C423.347 206.205 417.657 203.862 411.297 203.862Z" fill="#1E509A"/>
<path d="M591.381 241.351C591.381 241.351 591.046 241.017 591.381 240.347C593.724 239.008 595.397 237 596.736 234.657C598.075 232.314 598.745 229.971 598.745 227.293C598.745 221.937 596.402 216.916 592.72 213.234C588.703 209.552 583.347 207.209 577.657 207.209H541.841C538.159 207.209 534.812 208.548 532.469 210.891C530.126 213.234 528.452 216.582 528.452 219.929V220.264C528.452 220.264 528.452 220.264 528.452 220.598C528.452 220.598 528.452 220.598 528.787 220.598H529.121H570.628C572.636 220.598 574.31 221.268 575.649 222.607C576.987 223.946 577.657 225.619 577.657 227.293C577.657 228.967 576.987 230.64 575.649 231.979C574.31 233.318 572.636 233.987 570.628 233.987H555.9C552.218 233.987 548.87 235.326 546.527 237.669C544.184 240.013 542.51 243.36 542.51 246.707V247.042C542.51 247.042 542.51 247.042 542.51 247.377C542.51 247.377 542.51 247.377 542.845 247.377H543.18H570.628C571.632 247.377 572.301 247.711 573.305 248.046C574.31 248.381 574.979 248.715 575.649 249.385C576.318 250.054 576.653 250.724 577.322 251.393C577.657 252.063 577.992 253.067 577.992 254.071V267.46C577.992 268.464 577.657 269.134 577.322 270.138C576.987 270.808 576.318 271.812 575.649 272.146C574.979 272.481 574.31 273.151 573.305 273.485C572.301 273.82 571.632 274.155 570.628 274.155H529.121C528.787 274.155 528.787 274.155 528.787 274.49L528.452 274.824C528.452 278.172 529.791 281.519 532.469 283.862C534.812 286.205 538.494 287.544 541.841 287.544H577.657C583.347 287.544 588.703 285.536 592.385 281.519C596.402 277.837 598.41 272.816 598.41 267.46V254.071C598.41 251.393 597.741 249.05 596.402 246.707C595.732 244.364 593.724 242.69 591.381 241.351Z" fill="#1E509A"/>
<path d="M517.741 207.209H497.992H497.657C497.657 207.209 497.657 207.209 497.322 207.209C497.322 207.209 497.322 207.209 497.322 207.544C497.322 207.879 497.322 207.879 497.322 207.879V267.46C497.322 269.134 496.653 270.808 495.314 272.146C493.975 273.485 492.301 274.155 490.293 274.155H476.234C474.226 274.155 472.552 273.485 471.213 272.146C469.875 270.808 469.205 269.134 469.205 267.46V207.879V207.544C469.205 207.544 469.205 207.544 469.205 207.209C469.205 207.209 469.205 207.209 468.87 207.209H468.536H448.787C448.452 207.209 448.452 207.209 448.452 207.544L448.117 207.879V267.46C448.117 272.816 450.46 277.837 454.142 281.519C458.159 285.201 463.515 287.544 469.205 287.544H496.653C496.987 287.544 496.987 287.544 497.322 287.879L497.657 288.213V327.042C497.657 327.377 497.657 327.377 497.992 327.377L498.326 327.711C503.682 327.711 509.038 325.703 512.72 322.021C516.402 318.339 518.745 313.318 518.745 308.297V207.879V207.544C518.745 207.544 518.745 207.544 518.745 207.209C518.745 207.209 518.745 207.209 518.41 207.209C518.075 207.209 517.741 207.209 517.741 207.209Z" fill="#1E509A"/>
<path d="M259.665 247.377C260 252.063 259.665 256.749 258.661 261.435C256.318 275.494 249.623 288.213 239.247 298.255C228.87 307.962 215.816 314.322 201.757 315.996C187.699 317.669 173.305 314.992 160.92 307.962C148.536 300.933 138.828 290.222 133.138 277.167L149.874 268.464L152.887 267.126L160.586 251.728L174.979 282.523L185.021 304.28L194.059 282.523L210.795 242.356L219.498 261.1L221.506 265.117L259.665 247.377ZM204.77 185.452C216.82 187.46 228.201 192.816 237.573 201.184C246.946 209.218 253.64 219.929 256.987 231.644L233.556 247.711L220.167 217.921L210.126 196.163L201.088 218.255L184.351 258.423L174.644 237L165.272 216.916L155.565 237L143.849 260.431L130.46 269.134C127.448 258.423 127.113 247.042 129.456 236.331C131.799 225.619 137.155 215.243 144.519 207.209C151.883 199.176 161.255 192.481 171.967 188.799C182.343 184.448 193.724 183.444 204.77 185.452ZM285.774 234.992C286.778 240.013 287.113 245.368 287.113 250.389C287.113 268.799 281.757 286.874 271.381 302.272C261.004 317.669 246.611 329.72 229.54 336.749C212.469 343.778 193.724 345.787 175.314 342.105C156.904 338.423 140.502 329.72 127.448 316.665C119.749 308.632 113.389 299.594 108.703 289.552L123.766 281.854C131.13 297.92 143.515 310.64 159.247 318.674C174.979 326.707 192.72 328.715 209.791 325.033C226.862 321.351 242.259 311.979 253.305 298.59C264.351 284.866 270.377 268.13 270.377 250.724C270.377 248.046 270.377 245.368 270.042 242.69L285.774 234.992ZM193.724 157C212.469 157 230.544 162.69 245.941 173.067C261.339 183.444 273.389 198.172 280.418 215.243L266.025 224.95C259.331 206.205 245.272 190.808 227.197 182.105C209.121 173.402 188.368 172.063 169.289 178.757C150.209 185.117 134.477 198.841 125.439 216.916C116.402 234.992 114.728 255.41 120.753 274.824L106.36 284.197C101.004 270.138 98.9958 254.741 101.004 239.678C102.678 224.615 108.368 210.222 116.736 197.837C125.439 185.452 136.82 175.075 150.209 168.046C163.598 160.682 178.326 157 193.724 157Z" fill="#EA431B"/>
</g>
<defs>
<clipPath id="clip0_4_253">
<rect width="800" height="186.778" fill="white" transform="translate(100 157)"/>
</clipPath>
</defs>
</svg>
