<svg width="1000" height="500" viewBox="0 0 1000 500" fill="none" xmlns="http://www.w3.org/2000/svg">
<g clip-path="url(#clip0_4_246)">
<path d="M872.365 334.622C872.365 339.766 868.25 343.882 863.105 343.882H697.291C692.147 343.882 688.031 339.766 688.031 334.622V167.607C688.031 162.463 692.147 158.348 697.291 158.348H863.02C868.164 158.348 872.279 162.463 872.279 167.607L872.365 334.622Z" fill="#F47624"/>
<path d="M712.466 212.362H751.562C760.05 212.362 766.48 214.334 770.681 218.363C774.882 222.393 777.026 228.051 777.026 235.425C777.026 242.97 774.711 248.885 770.081 253.172C765.452 257.459 758.421 259.603 748.904 259.603H736.044V287.295H712.466V212.362ZM736.044 244.427H741.874C746.418 244.427 749.676 243.656 751.476 242.112C753.277 240.655 754.22 238.511 754.22 236.196C754.306 233.967 753.448 231.738 751.819 230.195C750.19 228.566 747.19 227.709 742.817 227.709H736.044V244.427V244.427ZM782.17 212.362H807.72L818.265 243.227L828.639 212.362H852.56L827.611 270.234C826.067 273.835 824.267 277.35 822.295 280.694C820.58 283.18 818.265 285.152 815.522 286.352C812.521 287.81 808.406 288.581 803.176 288.581C800.432 288.581 795.631 288.153 788.858 287.381V271.949C792.887 272.377 795.717 272.549 797.603 272.549C803.004 272.549 806.348 270.577 807.548 266.547L782.17 212.362Z" fill="white"/>
<path d="M611.04 326.563V269.033H550.338V285.666C550.338 300.842 548.281 314.474 544.079 326.477H536.62V360H554.625V343.71H600.837V360H618.842V326.477H611.04V326.563ZM588.662 326.563H565.599C569.029 311.473 570.658 298.698 570.658 288.41V287.467H588.662V326.563Z" fill="#0987C9"/>
<path d="M511.414 250.686C510.814 254.801 508.67 258.488 505.412 261.06C498.382 266.29 488.78 266.29 481.749 261.06C478.491 258.574 476.348 254.887 475.748 250.772H484.235C485.607 255.058 488.694 257.116 493.324 257.116C498.296 257.116 501.469 254.973 502.84 250.772L511.414 250.686Z" fill="#0987C9"/>
<path d="M527.789 269.033V343.796H506.784V302.728L479.863 343.796H458.6V269.033H479.777V310.358L506.87 269.033H527.789Z" fill="#0987C9"/>
<path d="M385.381 269.033H445.311V284.98H407.844V296.898H442.567V312.159H407.844V326.82H446.426V343.796H385.381V269.033Z" fill="#0987C9"/>
<path d="M367.719 275.035C363.69 271.091 357.602 269.033 349.457 269.033H312.248V343.796H334.711V316.103H346.971C355.973 316.103 362.747 313.959 367.119 309.758C371.492 305.557 373.721 299.641 373.721 292.011C373.721 284.638 371.749 278.979 367.719 275.035ZM349.372 298.613C347.657 300.156 344.57 300.927 340.198 300.927H334.711V284.209H341.141C345.342 284.209 348.257 285.066 349.715 286.695C351.258 288.324 352.115 290.468 352.03 292.697C352.03 294.926 351.086 297.155 349.372 298.613Z" fill="#0987C9"/>
<path d="M234.142 269.033H302.302V287.467H279.411V343.796H257.034V287.467H234.142V269.033Z" fill="#0987C9"/>
<path d="M543.136 158.262H565.514V184.326H589.863V158.262H612.326V232.767H589.863V202.588H565.514V232.767H543.136V158.262Z" fill="#0987C9"/>
<path d="M511.757 140C511.243 144.115 509.013 147.802 505.755 150.288C502.412 152.946 498.211 154.404 493.924 154.232C489.637 154.318 485.436 152.946 482.092 150.288C478.834 147.802 476.691 144.115 476.176 140H484.664C486.036 144.201 489.037 146.345 493.752 146.345C498.725 146.345 501.897 144.201 503.269 140H511.757V140Z" fill="#0987C9"/>
<path d="M528.133 158.262V232.767H507.127V191.871L480.292 232.767H459.115V158.262H480.206V199.501L507.299 158.262H528.133Z" fill="#0987C9"/>
<path d="M424.906 158.262H400.471L373.292 232.767H396.098L399.699 220.507H424.991L428.592 232.767H451.998L424.906 158.262ZM404.415 204.388L412.302 177.638L420.19 204.388H404.415Z" fill="#0987C9"/>
<path d="M365.748 232.767H343.456V176.609H325.966V199.501C325.966 208.932 325.451 215.877 324.508 220.249C323.737 224.365 321.336 227.88 317.735 230.023C314.134 232.081 308.39 233.11 300.502 233.11C297.673 233.11 294.843 232.853 292.1 232.338V217.163H295.444C298.444 217.163 300.588 216.477 301.788 215.105C302.988 213.733 303.674 211.247 303.674 207.56V158.262H365.748V232.767Z" fill="#0987C9"/>
<path d="M215.451 158.262H237.743V184.326H262.178V158.262H284.555V232.767H262.178V202.588H237.743V232.767H215.451V158.262Z" fill="#0987C9"/>
<path d="M193.588 167.007C187.072 160.405 177.813 157.062 165.81 157.062C154.064 157.062 144.89 160.405 138.374 167.264C131.687 173.952 128 185.783 128 197.872C128 206.617 130.143 211.504 133.487 217.249C136.402 222.65 140.946 227.108 146.433 229.938C151.749 232.595 158.522 233.967 166.667 233.967C174.812 233.967 181.414 232.424 186.73 229.337C192.045 226.337 196.332 221.793 199.076 216.305C201.905 210.733 203.362 203.616 203.362 194.871C203.277 183.04 200.104 173.694 193.588 167.007ZM177.041 211.933C174.383 215.105 170.697 216.734 165.896 216.734C161.094 216.734 157.493 215.105 154.836 211.847C152.178 208.589 150.806 203.188 150.806 195.643C150.806 188.098 152.178 182.611 154.921 179.353C157.579 176.095 161.609 174.295 165.81 174.466C170.525 174.466 174.212 176.095 176.956 179.353C179.699 182.611 181.071 187.669 181.071 194.7C180.985 202.931 179.699 208.761 177.041 211.933Z" fill="#0987C9"/>
<path fill-rule="evenodd" clip-rule="evenodd" d="M650.136 238.683C656.823 238.683 662.31 244.17 662.31 250.857C662.31 257.545 656.823 263.032 650.136 263.032C643.448 263.032 637.961 257.545 637.961 250.857C637.961 244.17 643.362 238.683 650.136 238.683Z" fill="#0987C9"/>
<path fill-rule="evenodd" clip-rule="evenodd" d="M650.136 225.651C652.537 225.651 654.937 226.165 657.081 227.194V162.12C657.081 158.605 654.251 158.348 650.736 158.348H649.45C645.935 158.348 643.105 158.605 643.105 162.12V227.194C645.335 226.165 647.735 225.651 650.136 225.651Z" fill="#0987C9"/>
<path fill-rule="evenodd" clip-rule="evenodd" d="M650.136 276.493C647.735 276.493 645.334 275.978 643.191 274.949V339.852C643.191 343.367 646.02 343.796 649.535 343.796H650.821C654.337 343.796 657.166 343.281 657.166 339.852V274.949C654.937 275.978 652.536 276.493 650.136 276.493Z" fill="#0987C9"/>
</g>
<defs>
<clipPath id="clip0_4_246">
<rect width="744.365" height="220" fill="white" transform="translate(128 140)"/>
</clipPath>
</defs>
</svg>
