<svg width="1000" height="500" viewBox="0 0 1000 500" fill="none" xmlns="http://www.w3.org/2000/svg">
<path d="M614.655 165.104C606.628 236.978 487.149 248.926 461.2 248.926C461.2 248.926 461.2 231.751 461.2 225.777C548.755 222.977 572.091 195.347 576.385 191.427C580.865 187.693 589.453 176.492 589.826 162.117C590.2 147.742 578.065 134.114 568.171 128.14C559.956 123.1 534.754 101.818 458.586 99.204C445.705 98.8307 433.944 99.3907 423.116 100.511L422.929 324.534H402.394V330.134H423.862V346.75H402.394V351.603H423.862V367.098H399.593V104.618L405 103L410.794 102.378C365.43 110.219 340.974 129.634 335 133.368C335 133.368 335 115.259 335 107.045C400.713 65.0405 497.603 79.2286 509.738 82.2156C521.126 84.8292 614.655 102.564 614.655 165.104Z" fill="#154889"/>
<path d="M665.434 60H358.336V367.098H665.434V60Z" stroke="#154889" stroke-width="2" stroke-miterlimit="10"/>
<path d="M358.336 345.442H665.247" stroke="#154889" stroke-width="2" stroke-miterlimit="10"/>
<path d="M358.336 323.6H665.247" stroke="#154889" stroke-width="2" stroke-miterlimit="10"/>
<path d="M460.08 367.098V60" stroke="#154889" stroke-width="2" stroke-miterlimit="10"/>
<path d="M401.273 60V82.589" stroke="#154889" stroke-width="2" stroke-miterlimit="10"/>
<path d="M358.336 162.117H665.247" stroke="#154889" stroke-width="2" stroke-miterlimit="10"/>
<path d="M664.127 264.794L460.453 60.7463" stroke="#154889" stroke-width="2" stroke-miterlimit="10"/>
<path d="M358.336 367.098L665.247 60" stroke="#154889" stroke-width="2" stroke-miterlimit="10"/>
<path d="M562.57 191.054C578.242 191.054 590.947 178.349 590.947 162.677C590.947 147.005 578.242 134.301 562.57 134.301C546.899 134.301 534.194 147.005 534.194 162.677C534.194 178.349 546.899 191.054 562.57 191.054Z" stroke="#154889" stroke-width="2" stroke-miterlimit="10"/>
<path d="M386.899 407.796C379.618 407.609 356.096 407.796 356.096 407.796V446.813H360.576V431.132C360.576 431.132 380.552 431.132 387.646 431.132C394.74 431.132 396.98 425.344 396.98 419.93C396.98 414.517 393.993 407.983 386.899 407.796ZM386.712 426.464C385.219 426.464 360.576 426.464 360.576 426.464V412.463C360.576 412.463 385.219 412.463 386.712 412.463C388.206 412.463 392.313 413.023 392.313 419.93C392.126 426.651 388.206 426.464 386.712 426.464Z" fill="#154889"/>
<path d="M439.918 412.463H409.115V424.598H438.984V429.265H409.115V443.266H439.918V447H405.381V407.796H439.918V412.463Z" fill="#154889"/>
<path d="M488.829 426.091C487.709 425.904 493.123 426.278 493.123 418.81C493.123 411.343 488.456 407.796 483.415 407.796C478.375 407.796 449.065 407.796 449.065 407.796V447C449.065 447 480.615 447 485.282 447C489.949 447 493.87 442.706 493.87 436.172C494.243 429.638 489.949 426.091 488.829 426.091ZM453.919 412.276C453.919 412.276 480.428 412.276 482.109 412.276C483.602 412.276 488.456 413.21 488.643 418.437C488.643 423.478 483.602 424.598 482.109 424.598C480.428 424.598 454.106 424.598 454.106 424.598V412.276H453.919ZM482.855 443.08C480.615 443.08 453.919 443.08 453.919 443.08V429.078C453.919 429.078 480.055 429.078 482.855 429.078C485.656 429.078 489.576 430.758 489.576 435.985C489.576 441.586 485.096 443.08 482.855 443.08Z" fill="#154889"/>
<path d="M526.726 407.796H520.192L499.657 447H504.324L509.178 437.666H536.994L541.848 447H546.515L526.726 407.796ZM511.792 432.812L522.993 411.716L534.007 432.812H511.792Z" fill="#154889"/>
<path d="M557.53 447V429.265H591.88L592.066 447H596.734V407.796H592.066V424.411L557.53 424.598V407.796H553.609V447H557.53Z" fill="#154889"/>
<path d="M610.735 407.796V443.08H634.071V407.796H638.738V443.08H662.074V407.796H665.808V447H606.068V407.796H610.735Z" fill="#154889"/>
</svg>
