<svg width="1000" height="500" viewBox="0 0 1000 500" fill="none" xmlns="http://www.w3.org/2000/svg">
<g clip-path="url(#clip0_4_249)">
<path d="M418.569 201.914L433.484 192.357H383.691V249.565H433.484V240.074H397.928V225.412H428.211V215.856H397.928V201.914H418.569V201.914ZM346.102 214.678H328.851V201.914H356.422L371.262 192.357H314.614V249.565H344.294C360.942 249.565 370.509 243.019 370.509 231.565C370.433 220.699 361.846 214.677 346.102 214.677V214.678ZM343.616 240.074H328.776V224.233H343.616C352.655 224.233 356.799 226.917 356.799 232.154C356.874 237.521 352.429 240.074 343.616 240.074V240.074ZM473.785 192.357H446.667V249.565H460.904V233.332H473.785C491.111 233.332 501.808 225.412 501.808 212.779C501.808 200.211 491.111 192.357 473.785 192.357V192.357ZM473.484 223.841H460.904V201.914H473.484C482.599 201.914 487.571 205.841 487.571 212.91C487.571 219.98 482.599 223.841 473.484 223.841ZM290.207 237.194C286.441 238.962 282.222 239.878 277.928 239.878C265.122 239.878 255.857 231.958 255.857 220.961C255.857 210.03 265.122 202.045 277.928 202.045C282.524 201.979 287.119 203.223 290.885 205.579L301.055 199.034L300.377 198.51C294.426 193.994 286.441 191.572 277.401 191.572C267.533 191.572 258.569 194.452 252.241 199.688C245.838 204.99 242.298 212.387 242.298 220.569C242.298 228.816 245.838 236.343 252.241 241.776C258.644 247.209 267.608 250.22 277.401 250.22C287.646 250.22 296.61 247.144 302.637 241.449L293.446 235.558L290.207 237.194V237.194ZM198.079 191.834C200.64 194.714 202.9 197.921 204.633 201.325L154.614 233.398L133.672 222.009V208.263L154.614 219.652L198.079 191.834V191.834Z" fill="#21A038"/>
<path d="M112.43 220.961C112.43 220.372 112.43 219.717 112.505 219.128L99.8495 218.604C99.7742 219.39 99.7742 220.175 99.7742 220.961C99.7742 234.117 105.951 246.096 115.895 254.736L124.859 246.947C117.1 240.27 112.43 231.106 112.43 220.961V220.961Z" fill="url(#paint0_linear_4_249)"/>
<path d="M154.614 184.306C155.292 184.306 156.045 184.306 156.723 184.372L157.326 173.375C156.422 173.31 155.518 173.31 154.614 173.31C139.473 173.31 125.687 178.677 115.744 187.317L124.708 195.106C132.392 188.364 143.013 184.306 154.614 184.306Z" fill="url(#paint1_linear_4_249)"/>
<path d="M154.614 257.682C153.936 257.682 153.183 257.682 152.505 257.617L151.902 268.613C152.806 268.679 153.71 268.679 154.614 268.679C169.755 268.679 183.541 263.311 193.484 254.671L184.52 246.882C176.836 253.558 166.29 257.682 154.614 257.682Z" fill="url(#paint2_linear_4_249)"/>
<path d="M178.418 190.655L189.115 183.783C179.699 177.172 167.721 173.179 154.614 173.179V184.175C163.428 184.306 171.638 186.663 178.418 190.655Z" fill="url(#paint3_linear_4_249)"/>
<path d="M209.529 220.961C209.529 218.016 209.228 215.201 208.625 212.387L196.799 219.98V220.961C196.799 231.762 191.45 241.45 182.863 248.192L191.375 256.374C202.599 247.668 209.529 235.035 209.529 220.962V220.961Z" fill="#21A038"/>
<path d="M154.614 257.682C142.185 257.682 131.036 253.035 123.277 245.573L113.861 252.969C123.879 262.591 138.418 268.679 154.614 268.679V257.682Z" fill="url(#paint4_linear_4_249)"/>
<path d="M126.29 193.797L117.778 185.615C106.704 194.321 99.6987 206.954 99.6987 221.027H112.354C112.429 210.227 117.778 200.474 126.29 193.797V193.797Z" fill="url(#paint5_linear_4_249)"/>
<path d="M301.883 282.686L280.791 313.057H274.84L253.22 283.079V325.625H241.469V268.482H256.309L278.079 299.574L299.699 268.482H313.635V325.625H301.883V282.686V282.686ZM371.789 300.883H341.507V316.265H376.234V325.625H329.755V268.482H375.254V277.842H341.507V291.457H371.789V300.883V300.883ZM434.011 277.842H401.092V325.625H389.341V268.482H433.936V277.842H434.011ZM494.426 325.625H481.921L475.593 312.076H445.461L439.284 325.625H427.382L454.049 268.482H467.382L494.426 325.625ZM471.299 302.715L460.527 279.282L449.755 302.715H471.299ZM563.202 282.686L542.034 313.057H536.083L514.463 283.079V325.625H502.712V268.482H517.552L539.322 299.574L561.017 268.482H574.953V325.625H563.202V282.686V282.686ZM650.283 325.625H637.778L631.45 312.076H601.318L595.141 325.625H583.239L609.906 268.482H623.239L650.283 325.625ZM627.156 302.715L616.384 279.282L605.612 302.715H627.156V302.715ZM670.396 307.821V325.625H658.644V268.482H680.565C690.961 268.482 698.493 270.119 703.164 273.326C707.834 276.533 710.17 281.377 710.17 287.792C710.17 294.468 707.684 299.508 702.637 302.781C697.59 306.119 690.283 307.756 680.565 307.756L670.396 307.821ZM670.396 277.842V298.395H681.394C686.893 298.395 691.036 297.544 693.823 295.908C696.61 294.272 697.966 291.457 697.966 287.53C697.966 283.995 696.686 281.508 694.124 280.002C691.563 278.562 687.42 277.777 681.62 277.777L670.396 277.842V277.842ZM733.898 325.625H722.147V268.482H733.898V292.504H743.767L764.934 268.482H779.247L754.162 295.646L783.315 325.625H768.249L744.369 300.883H733.974L733.898 325.625V325.625ZM833.635 300.883H803.352V316.265H838.079V325.625H791.601V268.482H837.1V277.842H803.352V291.457H833.635V300.883V300.883ZM900 277.842H877.853V325.625H866.102V277.842H844.332V268.482H900.075L900 277.842Z" fill="#632895"/>
</g>
<defs>
<linearGradient id="paint0_linear_4_249" x1="118.366" y1="253.346" x2="107.617" y2="217.589" gradientUnits="userSpaceOnUse">
<stop offset="0.144" stop-color="#F2E913"/>
<stop offset="0.304" stop-color="#E7E518"/>
<stop offset="0.582" stop-color="#CADB26"/>
<stop offset="0.891" stop-color="#A3CD39"/>
</linearGradient>
<linearGradient id="paint1_linear_4_249" x1="119.419" y1="189.185" x2="153.715" y2="174.144" gradientUnits="userSpaceOnUse">
<stop offset="0.059" stop-color="#0FA8E0"/>
<stop offset="0.538" stop-color="#0099F9"/>
<stop offset="0.923" stop-color="#0291EB"/>
</linearGradient>
<linearGradient id="paint2_linear_4_249" x1="151.052" y1="262.054" x2="190.803" y2="251.714" gradientUnits="userSpaceOnUse">
<stop offset="0.123" stop-color="#A3CD39"/>
<stop offset="0.285" stop-color="#86C339"/>
<stop offset="0.869" stop-color="#21A038"/>
</linearGradient>
<linearGradient id="paint3_linear_4_249" x1="151.978" y1="176.952" x2="185.553" y2="188.874" gradientUnits="userSpaceOnUse">
<stop offset="0.057" stop-color="#0291EB"/>
<stop offset="0.79" stop-color="#0C8ACB"/>
</linearGradient>
<linearGradient id="paint4_linear_4_249" x1="117.087" y1="251.659" x2="153.229" y2="267.2" gradientUnits="userSpaceOnUse">
<stop offset="0.132" stop-color="#F2E913"/>
<stop offset="0.298" stop-color="#EBE716"/>
<stop offset="0.531" stop-color="#D9E01F"/>
<stop offset="0.802" stop-color="#BBD62D"/>
<stop offset="0.983" stop-color="#A3CD39"/>
</linearGradient>
<linearGradient id="paint5_linear_4_249" x1="104.436" y1="222.318" x2="116.196" y2="187.112" gradientUnits="userSpaceOnUse">
<stop offset="0.07" stop-color="#A3CD39"/>
<stop offset="0.26" stop-color="#81C55F"/>
<stop offset="0.922" stop-color="#0FA8E0"/>
</linearGradient>
<clipPath id="clip0_4_249">
<rect width="800" height="175" fill="white" transform="translate(100 162)"/>
</clipPath>
</defs>
</svg>
