<svg width="1000" height="500" viewBox="0 0 1000 500" fill="none" xmlns="http://www.w3.org/2000/svg">
<g clip-path="url(#clip0_4_250)">
<path d="M131 250C131 287.194 160.462 315 199.373 315C213.201 315 225.182 312.031 235.568 304.716V280.434C225.421 286.934 211.894 291.148 199.147 291.148C174.482 291.148 156.063 274.002 156.063 250C156.063 225.998 174.482 208.852 199.147 208.852C211.894 208.852 225.421 213.059 235.568 219.566V195.277C225.182 187.983 213.208 185 199.373 185C160.462 185 131 212.806 131 250ZM717.478 216.747C689.624 216.747 667.031 238.799 667.031 265.874C667.031 292.948 689.624 315 717.478 315C745.332 315 767.925 292.955 767.925 265.874C767.925 238.799 745.332 216.747 717.478 216.747V216.747ZM717.478 294.884C713.664 294.899 709.885 294.158 706.358 292.706C702.831 291.253 699.627 289.117 696.93 286.42C694.232 283.723 692.095 280.519 690.642 276.993C689.188 273.467 688.447 269.688 688.461 265.874C688.447 262.06 689.188 258.281 690.642 254.754C692.095 251.228 694.232 248.024 696.93 245.327C699.627 242.631 702.831 240.495 706.358 239.042C709.885 237.589 713.664 236.849 717.478 236.863C721.293 236.848 725.073 237.588 728.6 239.04C732.127 240.492 735.333 242.628 738.031 245.325C740.729 248.022 742.866 251.226 744.32 254.753C745.774 258.279 746.516 262.059 746.502 265.874C746.516 269.688 745.774 273.468 744.32 276.995C742.866 280.521 740.729 283.726 738.031 286.422C735.333 289.119 732.127 291.255 728.6 292.708C725.073 294.16 721.293 294.9 717.478 294.884V294.884ZM848.217 218.684L806.336 279.804V218.684H785.242V313.071H806.665L848.518 252.142V313.071H869.947V218.684H848.217ZM331.747 263.363C337.002 260.27 342.065 253.113 342.065 245.183C342.065 229.905 330.379 218.684 314.409 218.684H260.925V313.064H316.551C332.521 313.064 344.604 301.651 344.604 285.989C344.604 275.357 338.172 266.845 331.741 263.363H331.747ZM282.347 237.253H311.098C316.551 237.253 320.643 241.119 320.643 246.339C320.643 251.567 316.551 255.439 311.098 255.439H282.347V237.246V237.253ZM312.459 294.501H282.354V274.002H312.459C318.693 274.002 323.174 278.449 323.174 284.252C323.174 290.054 318.693 294.501 312.459 294.501ZM396.747 218.691C377.849 218.691 363.632 232.806 363.632 251.177C363.632 266.093 373.204 278.251 387.066 282.151L361.1 313.071H388.756L413.613 283.478H425.498V313.071H446.921V218.691H396.747ZM399.662 237.253H425.498V264.909H399.662C391.096 264.909 385.054 258.525 385.054 251.177C385.054 243.445 391.096 237.253 399.662 237.253ZM586.438 218.684H565.008V313.071H586.438V274.768H628.291V313.064H649.714V218.684H628.291V256.206H586.438V218.684ZM468.104 307.569V286.687C476.465 291.039 486.694 294.884 498.38 294.884C512.591 294.884 521.554 290.676 521.554 283.184C521.554 276.499 513.72 273.934 503.751 273.934H487.398V255.371H503.751C513.905 255.371 519.597 251.663 519.597 246.599C519.597 239.162 510.621 236.863 500.234 236.863C488.247 236.863 478.511 240.318 470.553 244.164V223.925C478.805 219.888 489.732 216.747 503.334 216.747C524.079 216.747 540.931 227.708 540.931 242.809C540.931 253.818 534.431 260.592 529.217 262.877C535.909 266.011 543.476 273.824 543.476 285.114C543.476 302.821 526.357 315 501.295 315C486.919 315 476.389 311.914 468.104 307.569V307.569Z" fill="#4C1E87"/>
<path d="M825.823 213.579C842.285 213.579 854.847 203.467 856.209 188.64L839.042 186.505C839.042 192.916 833.185 197.836 825.823 197.836C818.461 197.836 812.604 192.909 812.604 186.505L795.437 188.626C796.799 203.46 809.361 213.573 825.823 213.573V213.579Z" fill="#FF0098"/>
</g>
<defs>
<clipPath id="clip0_4_250">
<rect width="738.947" height="130" fill="white" transform="translate(131 185)"/>
</clipPath>
</defs>
</svg>
