<svg width="1000" height="500" viewBox="0 0 1000 500" fill="none" xmlns="http://www.w3.org/2000/svg">
<path d="M159.67 238.199V301.565H115.842V222.357H143.828V202.82H115.842C107.393 202.82 100 208.628 100 214.965C100 223.414 100 301.565 100 306.318C100 312.655 109.505 322.16 120.066 322.16C129.043 322.16 151.221 322.16 159.142 322.16C168.647 322.16 179.208 314.239 179.208 302.093C179.208 293.645 179.208 238.727 179.208 238.727L159.67 238.199Z" fill="#FF7500"/>
<path d="M159.669 230.278C159.669 225.525 157.557 222.885 151.748 222.357C151.748 219.717 151.748 202.291 151.748 202.291C171.814 202.291 179.207 208.628 179.207 230.278H159.669Z" fill="#FF7500"/>
<path d="M151.748 198.066C177.095 198.066 183.431 209.155 183.431 229.749C191.352 229.749 202.969 229.749 202.969 229.749C202.969 192.786 181.319 178 151.748 178V198.066Z" fill="#FF7500"/>
<path d="M246.271 285.195H266.337V246.119H285.875V230.277L226.733 229.75V246.119H246.799L246.271 285.195Z" fill="#FF7500"/>
<path d="M313.861 269.353C308.58 269.353 308.58 265.657 313.861 265.129H334.983C341.32 265.129 345.016 261.961 345.016 257.208C345.016 257.208 345.016 244.007 345.016 241.895C345.016 235.558 340.791 229.75 333.399 229.75C326.006 229.75 310.164 229.75 304.884 229.75C295.379 229.75 289.57 235.03 289.57 245.591C289.57 250.344 289.57 266.713 289.57 273.05C289.57 282.555 296.963 285.723 301.716 285.195C306.468 285.195 345.016 284.667 345.016 284.667L345.544 269.353H313.861ZM313.861 245.591H326.006C331.287 245.591 331.287 249.815 326.006 249.287H313.861C308.58 249.815 308.58 245.591 313.861 245.591Z" fill="#FF7500"/>
<path d="M445.874 269.353C440.594 269.353 440.594 265.657 445.874 265.129H466.996C473.333 265.129 477.029 261.961 477.029 257.208C477.029 257.208 477.029 244.007 477.029 241.895C477.029 235.558 472.805 229.75 465.412 229.75C458.019 229.75 442.178 229.75 436.897 229.75C427.392 229.75 421.584 235.03 421.584 245.591C421.584 250.344 421.584 266.713 421.584 273.05C421.584 282.555 428.976 285.723 433.729 285.195C438.481 285.195 477.029 284.667 477.029 284.667L477.557 269.353H445.874ZM445.874 245.591H458.019C463.3 245.591 463.3 249.815 458.019 249.287H445.874C440.066 249.815 440.594 245.591 445.874 245.591Z" fill="#FF7500"/>
<path d="M369.306 285.723L383.035 249.815L396.765 285.723H416.303L393.068 233.974C391.484 231.862 388.844 229.75 383.563 229.75C378.283 229.75 375.643 230.806 373.53 233.974C370.89 237.142 349.768 285.195 349.768 285.195H369.306V285.723Z" fill="#FF7500"/>
<path d="M555.18 229.75C539.339 229.75 535.642 229.75 535.642 229.75V213.908H519.801V229.75C519.801 229.75 514.52 229.75 505.015 229.75C495.51 229.75 484.421 231.334 484.421 249.815C484.421 251.928 484.949 267.241 484.421 269.881C484.421 281.499 496.567 285.723 506.6 285.723C518.745 285.723 519.801 285.723 519.801 285.723V301.565H535.642V285.723C535.642 285.723 541.979 285.723 550.956 285.723C556.765 285.723 571.55 280.442 571.55 269.881C571.55 261.961 571.55 256.68 571.55 248.231C571.55 235.03 562.573 229.75 555.18 229.75ZM519.801 269.881C513.992 269.881 503.959 265.657 503.959 257.736C503.959 248.231 511.88 245.591 519.801 245.591V269.881ZM535.642 269.881V245.591C542.507 245.591 551.484 247.703 551.484 257.736C551.484 266.713 542.507 269.881 535.642 269.881Z" fill="#FF7500"/>
<path d="M666.601 285.724V265.658H686.139V285.724H705.677V230.278H686.139V249.816H666.073V230.278H646.535V285.724H666.601Z" fill="#FF7500"/>
<path d="M729.439 230.277L729.967 258.264L753.729 234.502C761.65 226.581 773.267 229.749 773.267 238.198V285.723H753.729L753.201 258.264L729.439 282.027C722.046 288.363 709.901 285.723 709.901 277.802L710.429 230.277H729.439Z" fill="#FF7500"/>
<path d="M800.726 285.724L801.254 258.265L820.792 285.724H844.554L825.016 258.265L844.554 230.278H820.792L801.254 257.737V230.278H781.188V285.724H800.726Z" fill="#FF7500"/>
<path d="M900 241.895C900 235.558 893.664 229.75 887.855 229.75C882.047 229.75 844.555 229.75 844.555 229.75V245.591H879.934C885.215 245.591 885.215 249.287 879.934 249.287C879.934 249.287 854.06 249.287 852.475 249.287C846.139 249.287 844.555 252.456 844.555 257.736C844.555 260.377 844.555 274.106 844.555 277.274C844.555 280.971 847.195 285.195 852.475 284.667C857.228 284.667 891.551 284.667 895.776 284.667C900 284.667 900 278.858 900 277.274C900 276.218 900 248.231 900 241.895ZM880.462 269.353H864.621C859.34 269.353 859.34 265.657 864.621 265.129H880.462C885.215 265.657 885.215 269.353 880.462 269.353Z" fill="#FF7500"/>
<path d="M610.098 230.278C588.976 230.278 579.471 241.367 579.471 258.265C579.471 276.219 586.864 285.724 609.57 285.724C632.804 285.724 638.613 275.691 638.613 259.849C638.613 237.143 627.524 230.278 610.098 230.278ZM619.075 259.849C619.075 265.13 614.322 269.882 609.042 269.882C603.761 269.882 599.009 265.13 599.009 259.849V255.625C599.009 250.344 603.761 245.592 609.042 245.592C614.322 245.592 619.075 250.344 619.075 255.625V259.849Z" fill="#FF7500"/>
</svg>
