<svg width="1000" height="500" viewBox="0 0 1000 500" fill="none" xmlns="http://www.w3.org/2000/svg">
<g clip-path="url(#clip0_4_248)">
<path fill-rule="evenodd" clip-rule="evenodd" d="M254.34 205.69H204.993C200.259 205.694 195.721 207.577 192.374 210.925C189.027 214.273 187.146 218.812 187.142 223.545V262.71C187.146 267.444 189.027 271.983 192.374 275.331C195.721 278.679 200.259 280.562 204.993 280.566H254.34C254.634 280.566 254.916 280.449 255.124 280.242C255.331 280.034 255.448 279.752 255.448 279.458V267.681C255.446 267.388 255.329 267.108 255.121 266.902C254.913 266.696 254.632 266.58 254.34 266.58H203.29C202.844 266.574 202.418 266.394 202.102 266.078C201.787 265.762 201.608 265.336 201.603 264.89V249.64H241.369C241.661 249.64 241.942 249.525 242.149 249.319C242.357 249.113 242.474 248.833 242.475 248.541V236.762C242.475 236.617 242.446 236.473 242.39 236.34C242.335 236.206 242.253 236.085 242.15 235.982C242.048 235.88 241.926 235.799 241.792 235.744C241.658 235.689 241.514 235.661 241.369 235.661H201.603V221.364C201.603 220.443 202.372 219.663 203.29 219.663H254.34C254.485 219.664 254.628 219.636 254.762 219.581C254.897 219.526 255.019 219.446 255.122 219.344C255.224 219.242 255.306 219.12 255.362 218.987C255.418 218.853 255.448 218.71 255.448 218.565V206.793C255.448 206.648 255.419 206.504 255.363 206.37C255.307 206.236 255.226 206.114 255.123 206.012C255.02 205.909 254.898 205.828 254.763 205.773C254.629 205.718 254.485 205.689 254.34 205.69V205.69ZM172.482 205.69H101.098C100.954 205.69 100.811 205.719 100.677 205.774C100.544 205.83 100.423 205.911 100.321 206.014C100.219 206.116 100.138 206.238 100.083 206.372C100.028 206.505 99.9997 206.649 100 206.793V219.001C100 219.606 100.492 220.097 101.098 220.097H129.046V279.362C129.046 279.964 129.54 280.466 130.144 280.466H143.433C144.035 280.466 144.529 279.964 144.529 279.362V220.097H172.482C172.772 220.097 173.051 219.981 173.258 219.776C173.464 219.571 173.58 219.292 173.582 219.001V206.791C173.582 206.499 173.466 206.219 173.259 206.013C173.053 205.807 172.773 205.69 172.482 205.69V205.69ZM310.473 250.778L332.125 278.851C332.125 278.851 333.439 280.541 335.506 280.541H349.041C349.648 280.541 350.147 280.438 350.147 279.829C350.147 279.408 349.041 277.948 349.041 277.948L322.706 243.112L349.041 208.283C349.041 208.283 350.147 206.833 350.147 206.487C350.147 205.988 349.939 205.69 349.041 205.69H335.506C333.176 205.69 332.065 207.382 332.065 207.382L310.473 235.45L288.88 207.382C288.88 207.382 287.769 205.69 285.44 205.69H271.905C271.007 205.69 270.799 205.988 270.799 206.487C270.799 206.833 271.905 208.283 271.905 208.283L298.242 243.112L271.907 277.948C271.907 277.948 270.799 279.408 270.799 279.829C270.799 280.438 271.298 280.541 271.905 280.541H285.44C287.503 280.541 288.823 278.851 288.823 278.851L310.473 250.778ZM439.837 205.697H427.147C426.855 205.698 426.575 205.814 426.369 206.021C426.162 206.228 426.046 206.508 426.046 206.801V235.465H383.476L383.451 206.801C383.451 206.656 383.423 206.513 383.368 206.379C383.313 206.245 383.232 206.124 383.13 206.021C383.028 205.919 382.907 205.838 382.773 205.782C382.64 205.726 382.497 205.698 382.352 205.697H369.658C369.366 205.699 369.087 205.815 368.881 206.022C368.675 206.229 368.559 206.509 368.559 206.801V279.453C368.559 280.06 369.056 280.556 369.658 280.556H382.352C382.644 280.555 382.924 280.438 383.129 280.231C383.335 280.024 383.451 279.744 383.451 279.453L383.476 249.873H426.046V279.45C426.046 280.06 426.543 280.556 427.147 280.556H439.837C440.129 280.555 440.408 280.438 440.614 280.231C440.82 280.024 440.935 279.744 440.935 279.453V206.798C440.936 206.654 440.908 206.51 440.853 206.377C440.798 206.243 440.717 206.121 440.615 206.019C440.513 205.916 440.392 205.835 440.258 205.779C440.125 205.724 439.982 205.695 439.837 205.695V205.697ZM615.411 205.695H577.924C568.12 205.695 560.135 213.677 560.135 223.485V279.448C560.135 279.74 560.25 280.02 560.456 280.228C560.662 280.435 560.942 280.552 561.234 280.554H573.924C574.216 280.553 574.496 280.436 574.702 280.23C574.909 280.023 575.024 279.742 575.024 279.45V221.795C575.024 220.877 575.797 220.102 576.71 220.102H616.624C617.537 220.102 618.312 220.88 618.312 221.793V279.448C618.312 279.74 618.427 280.02 618.633 280.228C618.839 280.435 619.118 280.552 619.411 280.554H632.098C632.391 280.554 632.672 280.437 632.879 280.231C633.086 280.024 633.203 279.743 633.204 279.45V223.485C633.204 213.68 625.216 205.695 615.411 205.695V205.695ZM798.708 243.771C798.703 244.215 798.525 244.64 798.211 244.954C797.897 245.269 797.472 245.448 797.028 245.454H759.722V221.319C759.722 220.401 760.494 219.626 761.404 219.626H797.028C797.939 219.626 798.708 220.401 798.708 221.319V243.774V243.771ZM795.333 205.697H763.097C753.289 205.697 745.307 213.68 745.307 223.488V279.453C745.307 280.065 745.801 280.556 746.41 280.556H758.621C758.913 280.555 759.193 280.439 759.399 280.232C759.606 280.025 759.722 279.745 759.722 279.453V259.395H797.028C806.834 259.395 813.124 251.413 813.124 241.604V223.488C813.118 218.771 811.242 214.249 807.907 210.914C804.572 207.579 800.05 205.703 795.333 205.697V205.697ZM868 241.005L895.433 208.17C895.433 208.17 897.64 205.697 893.655 205.697H882.046C880.018 205.697 878.661 207.388 878.661 207.388L854.719 236.215H844.429L844.424 206.801C844.424 206.508 844.308 206.228 844.102 206.021C843.895 205.814 843.615 205.698 843.323 205.697H831.115C830.823 205.698 830.543 205.814 830.336 206.021C830.13 206.228 830.014 206.508 830.014 206.801L830.016 279.45C830.016 279.595 830.044 279.739 830.1 279.873C830.155 280.007 830.236 280.129 830.339 280.232C830.441 280.335 830.563 280.416 830.697 280.472C830.831 280.528 830.975 280.556 831.12 280.556H843.328C843.473 280.556 843.616 280.527 843.75 280.471C843.884 280.415 844.005 280.334 844.107 280.231C844.21 280.128 844.291 280.007 844.346 279.873C844.401 279.739 844.429 279.595 844.429 279.45V250.62H858.127L881.587 278.866C881.587 278.866 883.085 280.556 884.973 280.556H897.036C901.023 280.556 898.816 278.043 898.816 278.043L868 241.005V241.005Z" fill="#0D0D0D"/>
<path fill-rule="evenodd" clip-rule="evenodd" d="M524.426 252.932C524.426 253.853 523.649 254.625 522.731 254.625H478.826C478.379 254.619 477.952 254.439 477.635 254.123C477.318 253.807 477.138 253.38 477.131 252.932V221.875C477.131 220.952 477.911 220.175 478.826 220.175H522.731C523.649 220.175 524.426 220.952 524.426 221.875V252.932ZM521.038 205.697H480.517C470.668 205.697 462.651 213.715 462.651 223.568V251.242C462.651 261.09 470.668 269.103 480.517 269.103H521.038C530.894 269.103 538.904 261.09 538.904 251.242V223.568C538.904 213.715 530.894 205.697 521.038 205.697V205.697ZM538.671 292.29V280.556C538.671 280.264 538.555 279.984 538.349 279.777C538.142 279.57 537.862 279.453 537.57 279.453H463.749C463.457 279.453 463.176 279.57 462.97 279.777C462.763 279.983 462.646 280.264 462.646 280.556V292.29C462.647 292.582 462.764 292.862 462.971 293.067C463.178 293.273 463.457 293.389 463.749 293.389H537.57C537.861 293.388 538.141 293.272 538.347 293.066C538.553 292.861 538.67 292.582 538.671 292.29" fill="#009DC9"/>
<path fill-rule="evenodd" clip-rule="evenodd" d="M689.668 249.925H706.255L698.029 224.887C697.447 223.099 695.536 219.433 689.668 219.433C683.802 219.433 681.886 223.099 681.304 224.887L673.078 249.925H689.668ZM668.637 263.52L663.431 279.463C663.431 279.463 663.177 280.556 662.327 280.556H649.62C648.446 280.556 648.808 279.45 648.808 279.45L668.446 219.987C670.806 212.752 676.178 205.359 689.668 205.359C703.157 205.359 708.527 212.752 710.892 219.987L730.528 279.45C730.528 279.45 730.892 280.556 729.715 280.556H717.008C716.158 280.556 715.907 279.463 715.907 279.463L710.698 263.52H668.637V263.52Z" fill="#0D0D0D"/>
</g>
<defs>
<clipPath id="clip0_4_248">
<rect width="800" height="90.2821" fill="white" transform="translate(100 205)"/>
</clipPath>
</defs>
</svg>
