<svg width="1000" height="500" viewBox="0 0 1000 500" fill="none" xmlns="http://www.w3.org/2000/svg">
<path d="M211.525 209.893C206.177 213.637 199.225 212.033 195.482 207.22L168.209 168.717C164.466 163.369 166.07 156.417 170.883 152.674C176.231 148.931 183.182 150.535 186.926 155.348L214.199 193.851C217.942 199.198 216.338 206.685 211.525 209.893Z" fill="#009EC7"/>
<path d="M204.573 272.46C199.76 269.786 197.621 263.904 200.295 259.091L253.236 158.021C255.91 153.208 261.792 151.069 266.605 153.743C271.418 156.417 273.557 162.299 270.883 167.112L217.942 268.182C215.803 272.995 209.386 274.599 204.573 272.46Z" fill="#009EC7"/>
<path d="M725.43 274.599C720.617 272.46 718.478 266.042 720.617 261.23L769.281 158.021C771.42 153.208 777.837 151.069 782.65 153.208C787.463 155.347 789.602 161.764 787.463 166.577L738.799 269.786C736.126 274.599 730.243 276.738 725.43 274.599Z" fill="#009EC7"/>
<path d="M829.174 274.065C824.361 276.204 818.478 274.065 815.805 269.252L768.746 164.974C766.607 160.161 768.746 154.279 773.559 151.605C778.371 149.466 784.254 151.605 786.928 156.418L833.987 260.696C836.126 265.509 833.987 271.926 829.174 274.065Z" fill="#009EC7"/>
<path d="M370.35 150.535C363.933 150.535 359.12 155.348 359.12 161.765V265.509C359.12 271.926 363.933 276.739 370.35 276.739C376.767 276.739 381.58 271.926 381.58 265.509V161.765C381.58 155.348 376.232 150.535 370.35 150.535Z" fill="#009EC7"/>
<path d="M429.173 150.535C422.756 150.535 417.943 155.348 417.943 161.765V262.301C417.943 268.718 422.756 273.53 429.173 273.53C435.591 273.53 440.403 268.718 440.403 262.301V161.765C440.403 155.348 435.591 150.535 429.173 150.535Z" fill="#009EC7"/>
<path d="M633.986 150.535C627.569 150.535 622.756 155.348 622.756 161.765V263.905C622.756 270.322 627.569 275.135 633.986 275.135C640.403 275.135 645.216 270.322 645.216 263.905V161.765C645.216 155.348 640.403 150.535 633.986 150.535Z" fill="#009EC7"/>
<path d="M557.516 152.139C551.099 152.139 546.286 156.952 546.286 163.369V263.904C546.286 270.321 551.099 275.134 557.516 275.134C563.933 275.134 568.746 270.321 568.746 263.904V163.369C568.746 156.952 563.398 152.139 557.516 152.139Z" fill="#009EC7"/>
<path d="M369.814 170.856H315.269C309.386 170.856 305.108 166.044 305.108 160.696C305.108 154.814 309.921 150.535 315.269 150.535H369.814C375.697 150.535 379.975 155.348 379.975 160.696C379.975 166.578 375.162 170.856 369.814 170.856Z" fill="#009EC7"/>
<path d="M317.408 151.069C323.29 151.069 328.638 155.347 328.638 162.299C327.033 202.406 318.477 239.305 292.274 267.647C287.996 274.064 278.37 273.53 274.627 270.856C270.883 268.182 268.744 262.3 271.418 258.021C296.552 229.144 302.434 199.733 304.573 160.16C304.573 154.813 311.525 151.069 317.408 151.069Z" fill="#009EC7"/>
<path d="M804.04 248.396H775.698C769.816 248.396 765.003 243.583 765.003 237.7C765.003 231.818 769.816 227.005 775.698 227.005H804.04C809.923 227.005 814.735 231.818 814.735 237.7C814.735 243.583 809.923 248.396 804.04 248.396Z" fill="#009EC7"/>
<path d="M596.551 174.065H518.476C512.059 174.065 506.712 168.717 506.712 162.3C506.712 155.883 512.059 150.535 518.476 150.535H596.551C602.968 150.535 608.316 155.883 608.316 162.3C608.316 168.717 602.968 174.065 596.551 174.065Z" fill="#009EC7"/>
<path d="M440.401 216.846C440.401 216.846 463.396 216.846 473.556 216.846C482.647 216.846 490.134 228.076 489.599 235.028C489.064 243.584 485.856 252.675 473.022 252.675C468.209 252.675 440.401 252.675 440.401 252.675L429.171 273.53C429.171 273.53 470.348 273.53 481.578 273.53C492.808 273.53 510.455 259.092 510.455 236.097C510.99 213.102 493.343 195.99 479.439 195.99C465.535 196.525 440.401 195.99 440.401 195.99V216.846Z" fill="#009EC7"/>
<path d="M645.751 170.856C645.751 170.856 668.746 170.856 678.906 170.856C687.997 170.856 695.484 182.086 694.949 189.037C694.414 197.594 691.205 206.685 678.371 206.685C673.558 206.685 645.751 206.685 645.751 206.685L634.521 227.54C634.521 227.54 675.697 227.54 686.927 227.54C698.157 227.54 715.804 213.102 715.804 190.107C715.804 167.112 698.692 150 684.788 150C670.885 150.535 633.986 150 633.986 150L645.751 170.856Z" fill="#009EC7"/>
<path d="M182.112 341.444C180.508 341.979 179.439 342.514 178.369 343.049C177.299 343.049 176.23 343.583 175.161 343.583C173.556 343.583 172.487 343.583 170.882 343.049C169.278 342.514 168.743 341.979 167.674 340.909C166.604 339.84 166.07 338.77 165.535 337.701C165 336.097 165 335.027 165 332.888C165 329.68 166.07 327.006 167.674 324.867C169.278 322.728 171.952 322.193 175.161 322.193C176.23 322.193 177.3 322.193 178.904 322.728C179.973 323.262 181.043 323.262 182.112 323.797V327.54C181.043 326.471 179.973 325.936 178.904 325.401C177.834 324.867 176.765 324.867 175.695 324.867C173.556 324.867 171.952 325.401 170.882 327.006C169.813 328.61 169.278 330.214 169.278 332.888C169.278 335.562 169.813 337.166 170.882 338.77C171.952 340.375 173.556 340.909 175.695 340.909C176.23 340.909 177.3 340.909 177.834 340.375C178.369 340.375 179.439 339.84 179.973 339.84C180.508 339.84 181.043 339.305 181.578 338.77C182.112 338.236 182.647 338.236 182.647 338.236V341.444H182.112Z" fill="black"/>
<path d="M204.036 332.888H189.063C189.063 333.957 189.063 335.027 189.598 336.096C190.133 337.166 190.667 337.701 191.202 338.235C191.737 338.77 192.806 339.305 193.341 339.305C194.411 339.84 194.946 339.84 196.015 339.84C197.619 339.84 198.689 339.305 200.293 338.77C201.897 338.235 202.967 337.701 203.502 337.166V340.909C202.432 341.444 201.363 341.979 199.758 341.979C198.689 342.514 197.085 342.514 196.015 342.514C192.806 342.514 190.133 341.444 187.994 339.84C185.855 338.236 185.32 335.562 185.32 331.818C185.32 328.61 186.389 325.936 187.994 323.797C189.598 321.658 192.272 320.588 194.946 320.588C197.619 320.588 199.758 321.658 201.363 323.262C202.967 324.866 203.502 327.005 203.502 330.214V332.888H204.036ZM200.828 330.214C200.828 328.61 200.293 327.006 199.224 325.936C198.154 324.866 197.085 324.332 194.946 324.332C193.341 324.332 191.737 324.866 190.667 325.936C189.598 327.006 189.063 328.61 189.063 330.214H200.828Z" fill="black"/>
<path d="M224.359 325.401H216.873V343.049H213.664V325.401H206.178V322.193H224.359V325.401Z" fill="black"/>
<path d="M244.146 336.632C244.146 337.701 244.146 338.771 243.611 339.306C243.076 340.375 242.541 340.91 242.007 341.445C240.937 341.979 240.402 342.514 239.333 342.514C238.263 342.514 237.194 343.049 235.59 343.049H227.568V322.728H230.777V330.749H235.59C237.194 330.749 238.263 330.749 239.333 330.749C240.402 330.749 240.937 331.284 242.007 331.819C242.541 332.354 243.076 332.889 243.611 333.958C244.146 334.493 244.146 335.562 244.146 336.632ZM240.937 336.632C240.937 336.097 240.937 335.562 240.402 335.027C240.402 334.493 239.868 333.958 239.333 333.958C238.798 333.423 238.263 333.423 237.729 333.423C237.194 333.423 236.124 333.423 235.055 333.423H231.846V340.375H235.055C236.124 340.375 237.194 340.375 237.729 340.375C238.263 340.375 238.798 339.84 239.333 339.84C239.868 339.306 240.402 339.306 240.402 338.771C240.402 337.701 240.937 337.167 240.937 336.632Z" fill="black"/>
<path d="M281.579 342.514H278.37V326.471L273.023 337.166H270.349L265.536 326.471V342.514H262.327V322.193H266.605L271.953 333.423L277.301 322.193H281.579V342.514V342.514Z" fill="black"/>
<path d="M304.572 342.514H301.363V340.375C300.828 340.375 300.828 340.91 300.293 341.444C299.759 341.979 299.224 341.979 298.689 342.514C298.154 343.049 297.62 343.049 296.55 343.049C295.481 343.049 294.946 343.583 293.876 343.583C292.272 343.583 290.668 343.049 289.064 341.979C287.994 340.91 286.924 339.305 286.924 337.166C286.924 335.562 287.459 334.492 287.994 333.423C288.529 332.353 289.598 331.819 290.668 331.284C291.737 330.749 293.342 330.214 294.946 330.214C296.55 330.214 298.689 329.679 300.293 329.679V329.145C300.293 328.61 300.294 327.54 299.759 327.006C299.224 326.471 299.224 325.936 298.689 325.936C298.154 325.402 297.62 325.401 297.085 325.401C296.55 325.401 295.481 325.401 294.946 325.401C293.876 325.401 292.807 325.402 291.737 325.936C290.668 325.936 289.598 326.471 288.529 327.006V323.262C289.063 323.262 290.133 322.728 291.203 322.728C292.272 322.728 293.876 322.193 294.946 322.193C296.55 322.193 297.62 322.193 298.689 322.728C299.759 322.728 300.828 323.262 301.363 323.797C301.898 324.332 302.967 324.867 302.967 325.936C303.502 327.006 303.502 328.075 303.502 329.145V342.514H304.572ZM300.828 337.701V331.819C299.759 331.819 298.689 331.819 297.085 332.353C295.481 332.353 294.411 332.888 293.876 332.888C292.807 333.423 292.272 333.423 291.737 333.958C291.203 334.492 290.668 335.562 290.668 336.631C290.668 337.701 291.203 338.771 291.737 339.305C292.272 339.84 293.342 340.375 294.946 340.375C296.015 340.375 297.085 340.375 298.154 339.84C299.224 339.305 300.293 338.236 300.828 337.701Z" fill="black"/>
<path d="M324.892 325.402H314.197V343.049H310.989V322.728H324.892V325.402Z" fill="black"/>
<path d="M344.679 342.514H341.47V340.375C340.935 340.375 340.935 340.91 340.401 341.444C339.866 341.979 339.331 341.979 338.796 342.514C338.261 343.049 337.727 343.049 336.657 343.049C335.588 343.049 335.053 343.583 333.983 343.583C332.379 343.583 330.775 343.049 329.171 341.979C328.101 340.91 327.031 339.305 327.031 337.166C327.031 335.562 327.566 334.492 328.101 333.423C328.636 332.353 329.705 331.819 330.775 331.284C331.844 330.749 333.449 330.214 335.053 330.214C336.657 330.214 338.796 329.679 340.401 329.679V329.145C340.401 328.61 340.401 327.54 339.866 327.006C339.331 326.471 339.331 325.936 338.796 325.936C338.261 325.402 337.727 325.401 337.192 325.401C336.657 325.401 335.588 325.401 335.053 325.401C333.983 325.401 332.914 325.402 331.844 325.936C330.775 325.936 329.705 326.471 328.636 327.006V323.262C329.171 323.262 330.24 322.728 331.31 322.728C332.379 322.728 333.983 322.193 335.053 322.193C336.657 322.193 337.727 322.193 338.796 322.728C339.866 322.728 340.935 323.262 341.47 323.797C342.005 324.332 343.074 324.867 343.074 325.936C343.609 327.006 343.609 328.075 343.609 329.145V342.514H344.679ZM340.935 337.701V331.819C339.866 331.819 338.796 331.819 337.192 332.353C335.588 332.353 334.518 332.888 333.983 332.888C332.914 333.423 332.379 333.423 331.844 333.958C331.31 334.492 330.775 335.562 330.775 336.631C330.775 337.701 331.31 338.771 331.844 339.305C332.379 339.84 333.449 340.375 335.053 340.375C336.122 340.375 337.192 340.375 338.262 339.84C339.331 339.305 340.401 338.236 340.935 337.701Z" fill="black"/>
<path d="M365.535 337.166C365.535 338.236 365.535 339.305 365 339.84C364.465 340.375 363.93 341.444 362.861 341.979C361.791 342.514 361.257 343.049 360.187 343.049C359.118 343.049 358.048 343.583 356.979 343.583C355.374 343.583 354.305 343.583 352.7 343.049C351.096 342.514 350.027 342.514 348.957 341.979V338.236C350.027 338.771 351.096 339.84 352.166 339.84C353.77 340.375 354.84 340.375 355.909 340.375C356.444 340.375 356.979 340.375 358.048 340.375C359.118 340.375 359.118 339.84 359.652 339.84C360.187 339.305 360.722 339.305 360.722 338.771C360.722 338.236 361.257 337.701 361.257 337.166C361.257 336.632 361.257 336.097 360.722 335.562C360.187 335.027 360.187 335.027 359.652 334.493C359.118 334.493 358.583 333.958 358.048 333.958C357.513 333.958 356.444 333.958 355.909 333.958H352.7V330.749H354.839C355.374 330.749 355.909 330.749 356.979 330.749C357.513 330.749 358.583 330.749 359.118 330.214C359.652 330.214 360.187 329.68 360.722 329.145C361.257 328.61 361.257 328.075 361.257 327.541C361.257 327.006 361.257 326.471 360.722 325.936C360.187 325.402 360.187 325.402 359.652 324.867C359.118 324.867 358.583 324.332 358.048 324.332C357.513 324.332 356.979 324.332 356.444 324.332C355.374 324.332 353.77 324.332 352.7 324.867C351.631 325.402 350.561 325.936 349.492 326.471V322.728C350.561 322.193 351.631 322.193 352.7 321.658C353.77 321.658 354.84 321.124 355.909 321.124C356.979 321.124 358.048 321.124 358.583 321.124C359.652 321.124 360.187 321.658 361.257 322.193C362.326 322.728 362.861 323.263 363.396 323.797C363.93 324.332 363.93 325.402 363.93 326.471C363.93 327.541 363.396 328.61 362.861 329.145C362.326 330.214 361.257 330.749 360.187 330.749C361.257 331.284 362.326 331.819 363.396 332.353C364.465 332.888 365.535 335.562 365.535 337.166Z" fill="black"/>
<path d="M387.995 342.514H384.787V327.006L374.092 342.514H370.883V322.193H374.092V337.166L384.787 322.193H387.995V342.514Z" fill="black"/>
<path d="M412.06 342.514H408.851V333.423H398.691V342.514H395.482V322.193H398.691V330.214H408.851V322.193H412.06V342.514Z" fill="black"/>
<path d="M436.124 332.353C436.124 335.561 435.055 338.235 433.45 340.374C431.846 342.513 429.707 343.048 426.499 343.048C423.825 343.048 421.151 341.979 419.547 340.374C417.942 338.235 416.873 335.561 416.873 332.353C416.873 329.144 417.942 326.471 419.547 324.332C421.151 322.192 423.29 321.658 426.499 321.658C429.172 321.658 431.846 322.727 433.45 324.332C435.055 325.936 436.124 329.144 436.124 332.353ZM432.381 332.353C432.381 329.679 431.846 327.54 430.777 326.471C429.707 325.401 428.103 324.332 426.499 324.332C424.894 324.332 423.29 324.866 422.22 326.471C421.151 327.54 420.616 329.679 420.616 332.353C420.616 335.027 421.151 336.631 422.22 338.235C423.29 339.84 424.894 340.374 426.499 340.374C428.103 340.374 429.707 339.84 430.777 338.235C431.846 337.166 432.381 335.027 432.381 332.353Z" fill="black"/>
<path d="M458.049 336.632C458.049 337.701 458.049 338.236 457.515 339.306C456.98 339.84 456.445 340.91 455.91 341.445C455.376 341.979 454.306 342.514 453.237 342.514C452.167 342.514 451.097 343.049 449.493 343.049H440.937V322.728H448.958C450.563 322.728 451.632 322.728 452.167 322.728C452.702 322.728 453.771 323.263 454.306 323.263C454.841 323.798 455.376 324.332 455.91 324.867C456.445 325.402 456.445 326.471 456.445 327.006C456.445 328.076 455.91 329.145 455.376 329.68C454.841 330.215 454.306 330.749 453.237 331.284C454.306 331.819 455.376 332.354 456.445 332.888C457.515 333.958 458.049 335.028 458.049 336.632ZM453.771 327.541C453.771 327.006 453.771 326.471 453.237 326.471C453.237 325.937 452.702 325.937 452.167 325.402C451.632 325.402 451.097 324.867 450.563 324.867C450.028 324.867 448.958 324.867 448.424 324.867H444.68V330.215H448.958C450.028 330.215 450.563 330.215 451.097 330.215C451.632 330.215 452.167 330.215 452.167 329.68C452.702 329.145 452.702 329.145 453.237 328.61C453.237 328.61 453.771 328.076 453.771 327.541ZM454.841 336.632C454.841 336.097 454.841 335.562 454.306 335.027C454.306 334.493 453.771 333.958 452.702 333.958C452.167 333.958 451.632 333.423 451.097 333.423C450.563 333.423 450.028 333.423 448.958 333.423H444.68V339.84H447.889C449.493 339.84 450.563 339.84 451.097 339.84C451.632 339.84 452.702 339.306 453.237 339.306C453.771 339.306 454.306 338.771 454.306 338.236C454.306 337.701 454.841 337.167 454.841 336.632Z" fill="black"/>
<path d="M492.807 342.514H476.765V322.193H479.973V339.84H490.134V322.193H493.342V339.84H496.016V347.861H492.807V342.514Z" fill="black"/>
<path d="M517.941 342.514H514.733V327.006L504.037 342.514H500.829V322.193H504.037V337.166L514.733 322.193H517.941V342.514Z" fill="black"/>
<path d="M551.098 331.818C551.098 333.423 551.098 335.027 550.563 336.631C550.029 338.235 549.494 339.305 548.959 339.84C548.424 340.909 547.355 341.444 546.285 341.979C545.216 342.514 544.146 342.514 543.077 342.514C542.007 342.514 541.473 342.514 540.938 341.979C540.403 341.444 539.868 341.444 539.333 341.444V350H536.125V341.444C535.59 341.979 534.521 341.979 534.521 342.514C534.521 343.048 533.451 343.048 532.382 343.048C530.243 343.048 528.104 341.979 526.499 340.374C524.895 338.77 524.36 336.096 524.36 332.888C524.36 331.283 524.36 329.679 524.895 328.075C525.43 326.471 525.964 325.401 526.499 324.866C527.034 323.797 528.104 323.262 529.173 322.727C530.243 322.193 531.312 322.193 532.382 322.193C532.916 322.193 533.986 322.193 534.521 322.727C535.055 322.727 535.59 323.262 536.125 323.797V315.241H539.333V323.797C539.868 323.262 540.403 323.262 541.473 322.727C542.542 322.193 543.077 322.193 543.612 322.193C546.285 322.193 547.89 323.262 549.494 324.866C551.098 326.471 551.098 328.61 551.098 331.818ZM535.59 339.305V325.401C535.055 325.401 534.521 324.866 533.986 324.866C533.451 324.866 532.916 324.866 532.382 324.866C530.777 324.866 529.173 325.401 528.638 327.005C527.569 328.075 527.034 330.214 527.034 332.888C527.034 335.027 527.569 337.166 528.104 338.235C529.173 339.84 530.243 340.374 531.847 340.374C532.382 340.374 532.916 340.374 533.451 340.374C533.986 340.374 535.055 339.305 535.59 339.305ZM547.355 332.353C547.355 330.214 546.82 328.075 546.285 327.005C545.216 325.401 544.146 324.866 542.542 324.866C542.007 324.866 541.473 324.866 540.938 324.866C540.403 324.866 539.868 325.401 539.333 325.401V338.77C539.868 338.77 540.403 339.305 540.938 339.305C541.473 339.305 542.007 339.305 542.542 339.305C544.146 339.305 545.751 338.77 546.285 337.166C546.82 335.562 547.355 335.027 547.355 332.353Z" fill="black"/>
<path d="M574.091 332.353C574.091 333.957 574.091 335.562 573.556 336.631C573.021 338.235 572.487 339.305 571.417 340.374C570.348 341.444 569.813 341.979 568.743 342.514C567.674 343.048 566.604 343.048 565.535 343.048C564.465 343.048 563.396 343.048 562.861 342.514C561.792 342.514 561.257 341.979 560.187 341.444V350H556.979V322.193H560.187V324.332C561.257 323.797 562.326 322.727 563.396 322.193C564.465 321.658 565.535 321.658 567.139 321.658C569.813 321.658 571.417 322.727 573.021 324.332C573.556 326.471 574.091 329.144 574.091 332.353ZM570.882 332.353C570.882 329.679 570.348 328.075 569.813 327.005C568.743 325.936 567.674 325.401 566.07 325.401C565 325.401 563.931 325.401 562.861 325.936C561.792 326.471 560.722 327.005 560.187 327.54V339.305C561.257 339.84 561.792 339.84 562.861 340.374C563.931 340.909 564.465 340.374 565 340.374C567.139 340.374 568.209 339.84 569.278 338.235C570.348 336.631 570.882 335.027 570.882 332.353Z" fill="black"/>
<path d="M597.088 332.353C597.088 335.561 596.018 338.235 594.414 340.374C592.81 342.513 590.671 343.048 587.462 343.048C584.788 343.048 582.115 341.979 580.51 340.374C578.906 338.235 577.836 335.561 577.836 332.353C577.836 329.144 578.906 326.471 580.51 324.332C582.115 322.192 584.253 321.658 587.462 321.658C590.136 321.658 592.81 322.727 594.414 324.332C596.018 326.471 597.088 329.144 597.088 332.353ZM593.344 332.353C593.344 329.679 592.81 327.54 591.74 326.471C590.671 325.401 589.066 324.332 587.462 324.332C585.858 324.332 584.254 324.866 583.184 326.471C582.115 328.075 581.58 329.679 581.58 332.353C581.58 335.027 582.115 336.631 583.184 338.235C584.254 339.305 585.858 340.374 587.462 340.374C589.066 340.374 590.671 339.84 591.74 338.235C592.81 337.166 593.344 335.027 593.344 332.353Z" fill="black"/>
<path d="M619.013 336.632C619.013 337.701 619.013 338.236 618.478 339.306C617.943 340.375 617.409 340.91 616.874 341.445C616.339 341.979 615.27 342.514 614.2 342.514C613.131 342.514 612.061 343.049 610.457 343.049H601.901V322.728H609.922C611.526 322.728 612.596 322.728 613.131 322.728C613.665 322.728 614.735 323.263 615.27 323.263C615.804 323.798 616.339 324.332 616.874 324.867C617.409 325.402 617.409 326.471 617.409 327.006C617.409 328.076 616.874 329.145 616.339 329.68C615.804 330.215 615.27 330.749 614.2 331.284C615.27 331.819 616.339 332.354 617.409 332.888C619.013 333.958 619.013 335.028 619.013 336.632ZM614.735 327.541C614.735 327.006 614.735 326.471 614.2 326.471C613.665 326.471 613.665 325.937 613.131 325.402C612.596 325.402 612.061 324.867 611.526 324.867C610.992 324.867 609.922 324.867 609.387 324.867H605.644V330.215H609.922C610.992 330.215 611.526 330.215 612.061 330.215C612.596 330.215 613.131 330.215 613.131 329.68C613.665 329.145 613.665 329.145 614.2 328.61C614.735 328.076 614.735 328.076 614.735 327.541ZM615.804 336.632C615.804 336.097 615.804 335.562 615.27 335.027C615.27 334.493 614.735 333.958 613.665 333.958C613.131 333.958 612.596 333.423 612.061 333.423C611.526 333.423 610.992 333.423 609.922 333.423H605.644V339.84H608.852C610.457 339.84 611.526 339.84 612.061 339.84C612.596 339.84 613.665 339.306 614.2 339.306C614.735 339.306 615.27 338.771 615.27 338.236C615.27 337.701 615.804 337.167 615.804 336.632Z" fill="black"/>
<path d="M642.007 332.353C642.007 335.561 640.938 338.235 639.333 340.374C637.729 342.513 635.59 343.048 632.382 343.048C629.708 343.048 627.034 341.979 625.43 340.374C623.825 338.235 622.756 335.561 622.756 332.353C622.756 329.144 623.825 326.471 625.43 324.332C627.034 322.192 629.173 321.658 632.382 321.658C635.055 321.658 637.729 322.727 639.333 324.332C640.938 326.471 642.007 329.144 642.007 332.353ZM638.264 332.353C638.264 329.679 637.729 327.54 636.66 326.471C635.59 325.401 633.986 324.332 632.382 324.332C630.777 324.332 629.173 324.866 628.103 326.471C627.034 328.075 626.499 329.679 626.499 332.353C626.499 335.027 627.034 336.631 628.103 338.235C629.173 339.305 630.777 340.374 632.382 340.374C633.986 340.374 635.59 339.84 636.66 338.235C637.729 337.166 638.264 335.027 638.264 332.353Z" fill="black"/>
<path d="M664.468 342.514H661.259V327.006L650.564 342.514H647.355V322.193H650.564V337.166L661.259 322.193H664.468V342.514ZM662.328 314.171C662.328 315.776 661.794 317.38 660.724 318.45C659.655 319.519 658.05 320.054 655.911 320.054C653.772 320.054 652.168 319.519 651.099 318.45C650.029 317.38 649.494 315.776 649.494 314.171H652.703C652.703 315.241 653.238 316.31 653.772 316.845C654.307 317.38 655.377 317.915 656.446 317.915C657.516 317.915 658.585 317.38 659.12 316.845C659.655 316.31 660.189 315.241 660.189 314.171H662.328Z" fill="black"/>
<path d="M699.226 325.401H691.739V343.049H688.531V325.401H681.044V322.193H699.226V325.401Z" fill="black"/>
<path d="M720.081 332.888H705.107C705.107 333.957 705.107 335.027 705.642 336.096C706.177 337.166 706.712 337.701 707.246 338.235C707.781 338.77 708.851 339.305 709.385 339.305C709.92 339.305 710.99 339.84 712.059 339.84C713.664 339.84 714.733 339.305 716.337 338.77C717.942 338.235 719.011 337.701 719.546 337.166V340.909C718.476 341.444 717.407 341.979 715.803 341.979C714.733 342.514 713.129 342.514 712.059 342.514C708.851 342.514 706.177 341.444 704.038 339.84C701.899 338.236 701.364 335.562 701.364 331.818C701.364 328.61 702.434 325.936 704.038 323.797C705.642 321.658 708.316 320.588 710.99 320.588C713.664 320.588 715.803 321.658 717.407 323.262C719.011 324.866 719.546 327.005 719.546 330.214V332.888H720.081ZM716.872 330.214C716.872 328.61 716.337 327.006 715.268 325.936C714.198 324.866 713.129 324.332 710.99 324.332C709.385 324.332 707.781 324.866 706.712 325.936C705.642 327.006 705.107 328.61 705.107 330.214H716.872Z" fill="black"/>
<path d="M743.076 342.514H738.798L732.915 334.492L727.033 342.514H723.29L731.311 332.353L723.29 322.193H727.568L733.45 329.679L739.332 322.193H743.61L735.589 332.353L743.076 342.514Z" fill="black"/>
<path d="M764.467 342.514H761.258V333.423H751.098V342.514H747.889V322.193H751.098V330.214H761.258V322.193H764.467V342.514Z" fill="black"/>
<path d="M788.53 342.514H785.322V327.006L774.627 342.514H771.418V322.193H774.627V337.166L785.322 322.193H788.53V342.514Z" fill="black"/>
<path d="M813.665 342.514H809.387L800.831 332.888H799.226V342.514H796.018V322.193H799.226V330.749C800.296 330.749 801.365 330.749 801.9 330.214C802.435 329.679 802.97 329.144 803.504 328.075C803.504 327.54 804.039 327.54 804.039 327.005C804.039 326.471 804.574 326.471 804.574 325.936C805.109 324.332 806.178 323.262 806.713 322.727C807.783 322.193 808.852 321.658 810.991 321.658H812.595V324.866H810.991C809.922 324.866 809.387 324.866 808.852 325.401C808.317 325.936 807.783 326.471 807.248 327.54C806.713 328.61 806.178 329.679 805.644 330.214C805.109 330.749 804.574 331.284 804.039 331.284L813.665 342.514Z" fill="black"/>
<path d="M834.521 342.514H831.312V327.006L820.617 342.514H817.408V322.193H820.617V337.166L831.312 322.193H834.521V342.514Z" fill="black"/>
</svg>
