<svg width="1000" height="500" viewBox="0 0 1000 500" fill="none" xmlns="http://www.w3.org/2000/svg">
<g clip-path="url(#clip0_4_254)">
<path fill-rule="evenodd" clip-rule="evenodd" d="M714.139 254.346H738.504L742.9 245.371H787.822L792.23 254.346H900V237.536H892.709V190.546H827.17V194.461C827.17 216.84 823.839 227.415 820.904 232.905C819.461 235.61 818.139 236.868 817.409 237.414C817.207 237.569 816.99 237.702 816.761 237.813L813.735 238.372V253.549L779.348 189.982H750.17L714.335 253.995V190.546H648.122V194.461C648.122 217.82 644.83 228.248 641.73 233.386C640.235 235.871 638.848 236.2 637.996 236.616C637.386 236.919 636.711 237.068 636.03 237.05H632.03V252.694L595.53 221.843L631.778 190.546H603.456L576.865 213.713H570.556V190.55H549.952V254.351H570.556V231.847H576.952L604.878 254.351H636.03C644.93 254.351 654.817 250.839 660.217 242.036C665.022 234.197 667.7 223.73 668.057 207.101H694.522V254.351H714.139V254.346ZM779.735 229.379L766.874 207.097H762.539L750.652 229.379H779.735V229.379ZM840.435 237.536H872.9V207.097H846.435C846.143 220.551 844.309 229.787 840.435 237.536V237.536Z" fill="#354250"/>
<path d="M535.578 210.34L541.335 213.098V194.774L539.013 193.72C531.089 190.202 522.521 188.357 513.848 188.3C488.435 188.3 470.53 203.172 470.53 222.316C470.53 241.403 488.456 256.172 513.848 256.172C522.865 256.172 531.952 253.961 539.004 250.787L541.335 249.742V231.387L535.587 234.127C529.017 237.254 519.535 238.633 513.848 238.633C505.952 238.633 500.226 236.595 496.561 233.724C492.943 230.893 491.13 226.457 491.13 222.32C491.13 218.036 492.965 213.566 496.565 210.739C500.217 207.864 505.943 205.843 513.848 205.843C519.543 205.843 529.022 207.201 535.578 210.34Z" fill="#354250"/>
<path fill-rule="evenodd" clip-rule="evenodd" d="M466.53 222.316C466.53 241.555 446.409 256.172 422.47 256.172C397.178 256.172 378.487 241.477 378.487 222.316C378.487 203.094 397.152 188.304 422.47 188.304C446.43 188.304 466.53 203.016 466.53 222.316V222.316ZM399.087 222.316C399.087 229.999 406.504 238.632 422.47 238.632C438.448 238.632 445.93 229.986 445.93 222.316C445.93 214.403 438.435 205.843 422.47 205.843C414.561 205.843 408.643 207.868 404.796 210.782C403.025 212.143 401.59 213.89 400.601 215.889C399.611 217.888 399.093 220.086 399.087 222.316V222.316Z" fill="#354250"/>
<path d="M330.826 208.246V254.507H351.422V208.246H379.417V190.706L302.909 190.052V207.595L330.822 208.246H330.826Z" fill="#354250"/>
<path fill-rule="evenodd" clip-rule="evenodd" d="M304.352 222.316C304.352 241.481 285.657 256.172 260.291 256.172C235 256.172 216.309 241.477 216.309 222.316C216.309 203.094 234.978 188.304 260.291 188.304C285.678 188.304 304.348 203.09 304.348 222.316H304.352ZM236.909 222.316C236.909 229.999 244.326 238.633 260.291 238.633C276.27 238.633 283.752 229.986 283.752 222.316C283.752 214.403 276.257 205.843 260.291 205.843C252.383 205.843 246.465 207.868 242.617 210.782C240.847 212.143 239.412 213.89 238.423 215.889C237.434 217.888 236.916 220.087 236.909 222.316V222.316ZM166.565 254.32C179.752 253.813 190.5 250.786 198.243 245.696C206.874 240.029 212.348 231.829 212.348 222.325C212.348 212.746 206.878 204.56 198.23 198.927C190.483 193.88 179.739 190.906 166.561 190.411V185H145.783V190.411C132.591 190.919 121.848 193.95 114.104 199.04C105.474 204.703 100 212.898 100 222.407C100 231.981 105.47 240.167 114.113 245.804C121.861 250.851 132.609 253.822 145.783 254.316V259.389H166.565V254.316V254.32ZM145.783 207.062V237.674C137.478 237.21 131.665 235.32 127.913 232.814C123.73 230.021 121.274 226.383 121.274 222.407C121.274 218.427 123.73 214.767 127.926 211.957C131.674 209.434 137.487 207.526 145.783 207.062V207.062ZM184.435 211.918C180.678 209.416 174.87 207.521 166.565 207.062V237.674C174.861 237.206 180.67 235.298 184.426 232.779C188.613 229.965 191.074 226.305 191.074 222.329C191.074 218.349 188.617 214.715 184.435 211.922V211.918Z" fill="#354250"/>
<path d="M116.426 308.729H113.326V305.39C109.239 305.264 105.991 304.263 103.583 302.377C101.191 300.49 100 297.867 100 294.515C100 291.164 101.196 288.545 103.583 286.658C105.991 284.772 109.239 283.771 113.322 283.645V280.306H116.426V283.645C120.513 283.771 123.748 284.772 126.135 286.658C128.543 288.545 129.752 291.164 129.752 294.515C129.752 297.871 128.543 300.49 126.135 302.377C123.743 304.263 120.513 305.264 116.426 305.386V308.729ZM105.722 288.753C104 290.149 103.139 292.07 103.139 294.52C103.139 296.965 104 298.899 105.722 300.321C107.443 301.713 109.983 302.472 113.326 302.598V286.437C109.978 286.559 107.443 287.331 105.717 288.753H105.722ZM116.426 286.437V302.598C119.774 302.472 122.309 301.713 124.03 300.321C125.752 298.899 126.613 296.965 126.613 294.515C126.613 292.07 125.752 290.145 124.03 288.748C122.309 287.331 119.77 286.559 116.426 286.437V286.437ZM135.148 305.351C133.278 303.686 132.343 301.423 132.343 298.557C132.343 295.695 133.278 293.44 135.148 291.801C136.965 290.156 139.342 289.263 141.796 289.303C144.249 289.255 146.628 290.149 148.439 291.801C150.309 293.44 151.243 295.69 151.243 298.557C151.243 301.418 150.309 303.686 148.439 305.351C146.618 306.982 144.243 307.861 141.796 307.81C139.349 307.851 136.976 306.974 135.148 305.351V305.351ZM146.443 303.296C147.674 302.121 148.291 300.538 148.291 298.557C148.291 296.575 147.674 295.005 146.443 293.856C145.213 292.681 143.661 292.092 141.791 292.092C139.922 292.092 138.374 292.681 137.139 293.856C135.913 295.005 135.296 296.575 135.296 298.557C135.296 300.538 135.913 302.121 137.143 303.296C138.374 304.445 139.926 305.022 141.796 305.022C143.665 305.022 145.213 304.445 146.448 303.296H146.443ZM162.287 307.372H159.33V292.46H152.8V289.741H168.783V292.46H162.287V307.372ZM173.143 305.351C171.274 303.686 170.339 301.423 170.339 298.557C170.339 295.695 171.274 293.44 173.143 291.801C174.959 290.157 177.335 289.264 179.787 289.303C182.241 289.255 184.619 290.149 186.43 291.801C188.3 293.44 189.239 295.69 189.239 298.557C189.239 301.418 188.304 303.686 186.43 305.351C184.609 306.982 182.234 307.861 179.787 307.81C177.341 307.851 174.97 306.974 173.143 305.351ZM184.439 303.296C185.67 302.121 186.283 300.538 186.283 298.557C186.283 296.575 185.67 295.005 184.439 293.856C183.209 292.681 181.657 292.092 179.787 292.092C177.917 292.092 176.365 292.681 175.135 293.856C173.909 295.005 173.291 296.575 173.291 298.557C173.291 300.538 173.909 302.121 175.139 303.296C176.365 304.445 177.917 305.022 179.791 305.022C181.661 305.022 183.209 304.445 184.439 303.296ZM213.148 296.683C212.583 296.167 212.3 295.448 212.3 294.515C212.3 293.587 212.583 292.876 213.148 292.391C213.74 291.874 214.505 291.597 215.291 291.615C216.152 291.615 216.865 291.875 217.43 292.386C218.022 292.876 218.317 293.587 218.317 294.515C218.317 295.448 218.022 296.167 217.43 296.683C216.833 297.185 216.071 297.447 215.291 297.421C214.511 297.44 213.75 297.179 213.148 296.683V296.683ZM243.27 281.663H253.865C256.57 281.663 258.713 282.227 260.287 283.354C261.861 284.456 262.648 286.06 262.648 288.167C262.648 289.685 262.244 290.929 261.43 291.909C260.617 292.863 259.648 293.514 258.517 293.856C259.891 294.225 261.1 294.932 262.13 295.985C263.165 297.013 263.683 298.457 263.683 300.321C263.683 301.449 263.461 302.437 263.017 303.296C262.643 304.097 262.088 304.8 261.396 305.351C260.699 305.872 259.926 306.281 259.104 306.565C258.244 306.882 257.409 307.099 256.596 307.224C255.788 307.323 254.975 307.373 254.161 307.372H243.27V281.663V281.663ZM260.543 299.987C260.543 297.026 258.491 295.547 254.378 295.547H246.37V304.436H253.53C254.317 304.436 254.983 304.419 255.526 304.393C256.146 304.332 256.761 304.235 257.37 304.102C257.961 303.973 258.524 303.736 259.03 303.404C259.48 303.047 259.845 302.596 260.1 302.082C260.396 301.492 260.543 300.798 260.543 299.987V299.987ZM259.513 288.605C259.513 287.161 259.004 286.134 257.996 285.518C257.013 284.911 255.548 284.603 253.604 284.603H246.37V292.608H254.457C255.93 292.608 257.135 292.291 258.07 291.654C259.03 290.99 259.509 289.976 259.509 288.605H259.513ZM270.457 307.372H267.948V289.741H270.9V302.632L281.752 289.741H284.261V307.372H281.304V294.481L270.457 307.372V307.372ZM290.826 312.146H287.948V304.727H290.309C292.4 301.054 293.409 296.059 293.335 289.741H306.552V304.727H309.135V312.141H306.257V307.372H290.826V312.141V312.146ZM296.178 292.386C296.057 297.208 295.17 301.323 293.522 304.727H303.6V292.386H296.174H296.178ZM311.5 298.557C311.5 295.669 312.383 293.401 314.152 291.762C315.952 290.123 318.009 289.303 320.322 289.303C322.487 289.303 324.27 289.841 325.67 290.916C327.1 291.996 328.035 293.327 328.478 294.923C328.922 296.484 328.948 298.132 328.552 299.84H314.452C314.626 301.579 315.4 302.888 316.778 303.773C318.157 304.653 319.817 305.095 321.761 305.095C323.926 305.095 325.87 304.618 327.591 303.664V306.526C325.944 307.38 323.852 307.81 321.317 307.81C318.513 307.81 316.174 307.016 314.304 305.425C312.435 303.834 311.5 301.544 311.5 298.557V298.557ZM325.935 297.273C326.006 296.732 325.968 296.182 325.822 295.656C325.653 295.048 325.378 294.476 325.009 293.965C324.572 293.346 323.969 292.862 323.27 292.568C322.4 292.185 321.455 291.997 320.504 292.018C318.904 292.018 317.513 292.486 316.33 293.414C315.178 294.346 314.548 295.63 314.452 297.273H325.93H325.935ZM334.457 305.351C332.587 303.686 331.648 301.423 331.648 298.557C331.648 295.695 332.583 293.44 334.452 291.801C336.269 290.156 338.646 289.263 341.1 289.303C343.554 289.255 345.932 290.149 347.743 291.801C349.613 293.44 350.548 295.69 350.548 298.557C350.548 301.418 349.613 303.686 347.743 305.351C345.922 306.982 343.547 307.861 341.1 307.81C338.653 307.851 336.28 306.974 334.452 305.351H334.457ZM345.748 303.296C346.978 302.121 347.596 300.538 347.596 298.557C347.596 296.575 346.978 295.005 345.748 293.856C344.517 292.681 342.965 292.092 341.096 292.092C339.226 292.092 337.678 292.681 336.443 293.856C335.217 295.005 334.6 296.575 334.6 298.557C334.6 300.538 335.217 302.121 336.448 303.296C337.678 304.445 339.23 305.022 341.1 305.022C342.97 305.022 344.517 304.445 345.752 303.296H345.748ZM374.461 296.683C373.896 296.167 373.609 295.448 373.609 294.515C373.609 293.587 373.896 292.876 374.461 292.391C375.052 291.875 375.815 291.598 376.6 291.615C377.461 291.615 378.174 291.875 378.739 292.386C379.33 292.876 379.626 293.587 379.626 294.515C379.626 295.448 379.33 296.167 378.744 296.683C378.145 297.186 377.381 297.448 376.6 297.421C375.821 297.439 375.062 297.178 374.461 296.683V296.683ZM404.8 307.372H401.444L412.704 281.663H416.135L427.352 307.372H424.035L421.374 301.163H407.461L404.8 307.372ZM413.991 285.813L408.678 298.301H420.157L414.809 285.813C414.673 285.482 414.537 285.151 414.4 284.82C414.178 285.384 414.044 285.718 413.991 285.817V285.813ZM436.748 304.024L442.73 289.741H445.865L437.157 310.012C435.461 313.932 433.23 315.888 430.474 315.888C429.809 315.888 429.17 315.801 428.557 315.632V313.1C429.07 313.247 429.587 313.316 430.104 313.316C432 313.316 433.526 311.886 434.683 309.024L435.348 307.406L426.93 289.741H430.07L436.748 304.029V304.024ZM448.748 312.146H445.87V304.727H448.23C450.322 301.054 451.33 296.059 451.257 289.741H464.474V304.727H467.057V312.141H464.178V307.372H448.748V312.141V312.146ZM454.1 292.386C453.978 297.208 453.091 301.323 451.444 304.727H461.522V292.386H454.1ZM473.509 307.372H471V289.741H473.952V302.632L484.804 289.741H487.313V307.372H484.361V294.481L473.509 307.372ZM494.361 305.351C492.491 303.686 491.552 301.423 491.552 298.557C491.552 295.695 492.487 293.44 494.361 291.801C496.177 290.157 498.552 289.264 501.004 289.303C503.458 289.255 505.837 290.149 507.648 291.801C509.517 293.44 510.452 295.69 510.452 298.557C510.452 301.418 509.517 303.686 507.648 305.351C505.826 306.982 503.451 307.861 501.004 307.81C498.559 307.852 496.187 306.974 494.361 305.351V305.351ZM505.652 303.296C506.887 302.121 507.5 300.538 507.5 298.557C507.5 296.575 506.887 295.005 505.657 293.856C504.422 292.681 502.874 292.092 501.004 292.092C499.135 292.092 497.583 292.681 496.352 293.856C495.122 295.005 494.509 296.575 494.509 298.557C494.509 300.538 495.122 302.121 496.352 303.296C497.583 304.445 499.135 305.022 501.004 305.022C502.874 305.022 504.426 304.445 505.657 303.296H505.652ZM543.557 296.683C542.991 296.167 542.709 295.448 542.709 294.515C542.709 293.587 542.991 292.876 543.557 292.391C544.147 291.875 544.91 291.598 545.696 291.615C546.557 291.615 547.274 291.875 547.839 292.386C548.43 292.876 548.726 293.587 548.726 294.515C548.726 295.448 548.43 296.167 547.839 296.683C547.241 297.185 546.477 297.448 545.696 297.421C544.917 297.439 544.158 297.178 543.557 296.683V296.683ZM572.791 299.402C572.226 297.835 571.939 296.181 571.944 294.515C571.944 292.824 572.226 291.198 572.791 289.633C573.383 288.068 574.217 286.658 575.3 285.41C576.383 284.135 577.8 283.12 579.548 282.361C581.416 281.579 583.426 281.192 585.452 281.225C587.644 281.225 589.609 281.603 591.357 282.361C593.104 283.12 594.522 284.139 595.604 285.41C596.687 286.658 597.509 288.068 598.074 289.633C598.665 291.198 598.961 292.829 598.961 294.515C598.961 296.206 598.665 297.832 598.074 299.402C597.509 300.967 596.687 302.39 595.604 303.66C594.435 304.972 592.983 306.002 591.357 306.674C589.488 307.456 587.478 307.843 585.452 307.81C583.261 307.81 581.291 307.432 579.548 306.674C577.922 306.002 576.47 304.972 575.3 303.66C574.223 302.396 573.375 300.955 572.791 299.402ZM595.161 298.374C595.604 297.147 595.826 295.86 595.826 294.515C595.826 293.171 595.604 291.883 595.161 290.661C594.749 289.45 594.11 288.329 593.278 287.357C592.402 286.331 591.287 285.536 590.03 285.041C588.582 284.435 587.023 284.136 585.452 284.161C583.752 284.161 582.23 284.456 580.874 285.041C579.522 285.605 578.426 286.377 577.591 287.357C576.777 288.341 576.14 289.459 575.709 290.661C575.285 291.903 575.071 293.207 575.078 294.52C575.078 295.864 575.287 297.147 575.709 298.374C576.152 299.597 576.778 300.699 577.591 301.679C578.426 302.658 579.522 303.439 580.874 304.029C582.23 304.592 583.752 304.874 585.452 304.874C587.152 304.874 588.674 304.592 590.03 304.029C591.284 303.513 592.398 302.707 593.278 301.679C594.113 300.699 594.744 299.597 595.161 298.374ZM606.139 307.372H603.183V289.741H619.352V307.372H616.4V292.46H606.139V307.372V307.372ZM632.196 307.372H629.244V292.46H622.709V289.741H638.691V292.46H632.196V307.372ZM644.552 307.372H642.044V289.741H644.996V302.632L655.848 289.741H658.357V307.372H655.404V294.481L644.552 307.372ZM666.77 307.372H663.813V289.741H666.77V297.087H670.348L675.961 289.741H679.391L672.674 298.518L680.204 307.372H676.735L670.239 299.805H666.77V307.372V307.372ZM697.387 303.699C697.387 304.605 697.844 305.056 698.752 305.056C699.148 305.056 699.604 304.97 700.117 304.796V307.185C699.409 307.449 698.66 307.586 697.904 307.589C696.209 307.589 695.126 306.882 694.657 305.464C692.761 307.025 690.461 307.81 687.752 307.81C686.03 307.81 684.557 307.359 683.326 306.452C682.117 305.52 681.517 304.189 681.517 302.45C681.517 300.369 682.291 298.864 683.839 297.932C685.417 296.978 687.313 296.501 689.526 296.501C691.148 296.501 692.787 296.683 694.435 297.052V296.428C694.435 295.083 693.991 294.017 693.104 293.232C692.222 292.425 690.978 292.018 689.378 292.018C687.157 292.015 684.958 292.465 682.917 293.34V290.479C685.09 289.719 687.372 289.322 689.674 289.303C692.087 289.303 693.97 289.954 695.322 291.25C696.7 292.521 697.387 294.372 697.387 296.792V303.699V303.699ZM684.544 302.303C684.544 303.283 684.913 304.029 685.648 304.545C686.413 305.03 687.322 305.277 688.383 305.277C690.817 305.277 692.835 304.419 694.435 302.706V299.476C692.954 299.154 691.445 298.981 689.931 298.96C688.431 298.96 687.152 299.229 686.091 299.766C685.607 299.985 685.201 300.344 684.925 300.796C684.648 301.249 684.516 301.774 684.544 302.303V302.303ZM722.961 296.683C722.396 296.167 722.113 295.448 722.113 294.515C722.113 293.587 722.396 292.876 722.961 292.391C723.553 291.874 724.318 291.597 725.104 291.615C725.965 291.615 726.678 291.875 727.244 292.386C727.835 292.876 728.13 293.587 728.13 294.515C728.13 295.448 727.835 296.167 727.244 296.683C726.647 297.185 725.884 297.448 725.104 297.421C724.324 297.44 723.563 297.178 722.961 296.683V296.683ZM756.183 307.372H753.083V281.663H770.061V284.603H756.183V307.367V307.372ZM783.47 303.699C783.47 304.605 783.922 305.056 784.835 305.056C785.226 305.056 785.683 304.97 786.2 304.796V307.185C785.461 307.454 784.722 307.589 783.987 307.589C782.287 307.589 781.204 306.882 780.739 305.464C778.844 307.025 776.539 307.81 773.835 307.81C772.113 307.81 770.635 307.359 769.404 306.452C768.2 305.52 767.596 304.189 767.596 302.45C767.596 300.369 768.37 298.864 769.922 297.932C771.496 296.978 773.391 296.501 775.604 296.501C777.231 296.501 778.865 296.683 780.517 297.052V296.428C780.517 295.083 780.074 294.017 779.187 293.232C778.3 292.425 777.057 292.018 775.457 292.018C773.217 292.018 771.065 292.46 769 293.34V290.479C771.171 289.72 773.452 289.323 775.752 289.303C778.165 289.303 780.048 289.954 781.4 291.25C782.778 292.521 783.47 294.372 783.47 296.792V303.699V303.699ZM770.622 302.303C770.599 302.74 770.689 303.176 770.883 303.568C771.077 303.96 771.369 304.297 771.731 304.545C772.491 305.03 773.404 305.277 774.461 305.277C776.9 305.277 778.917 304.419 780.517 302.706V299.476C779.037 299.154 777.528 298.981 776.013 298.96C774.513 298.96 773.231 299.229 772.174 299.766C771.689 299.984 771.281 300.342 771.004 300.795C770.727 301.248 770.594 301.773 770.622 302.303V302.303ZM790.474 312.146H787.596V304.727H789.957C792.048 301.054 793.057 296.059 792.983 289.741H806.2V304.727H808.783V312.141H805.904V307.372H790.474V312.141V312.146ZM795.826 292.386C795.704 297.208 794.817 301.323 793.17 304.727H803.248V292.386H795.826V292.386ZM837.57 307.372H834.244L828.23 299.987H825.387V307.372H822.435V299.987H819.591L813.574 307.372H810.252L817.304 298.518L811.065 289.741H814.348L819.739 297.273H822.435V289.741H825.387V297.273H828.083L833.47 289.741H836.757L830.517 298.518L837.57 307.372V307.372ZM838.47 298.557C838.47 295.669 839.357 293.401 841.131 291.762C842.926 290.123 844.978 289.303 847.291 289.303C849.457 289.303 851.244 289.841 852.644 290.916C854.074 291.996 855.009 293.327 855.452 294.923C855.891 296.484 855.917 298.132 855.526 299.84H841.422C841.596 301.579 842.37 302.888 843.748 303.773C845.126 304.653 846.787 305.095 848.73 305.095C850.9 305.095 852.844 304.618 854.565 303.664V306.526C852.917 307.38 850.826 307.81 848.291 307.81C845.483 307.81 843.148 307.016 841.278 305.425C839.404 303.834 838.47 301.544 838.47 298.557V298.557ZM852.904 297.273C852.976 296.732 852.938 296.182 852.791 295.656C852.623 295.049 852.35 294.477 851.983 293.965C851.547 293.347 850.946 292.863 850.248 292.568C849.376 292.185 848.431 291.997 847.478 292.018C845.878 292.018 844.487 292.486 843.304 293.414C842.148 294.346 841.522 295.63 841.422 297.273H852.904V297.273ZM866.861 307.372H863.909V292.46H857.374V289.741H873.357V292.46H866.861V307.372ZM885.126 307.372H876.709V289.741H879.661V295.912H885.126C887.244 295.912 888.913 296.449 890.144 297.529C891.374 298.604 891.991 299.974 891.991 301.639C891.991 303.305 891.374 304.675 890.144 305.754C888.913 306.83 887.244 307.372 885.126 307.372V307.372ZM879.661 298.557V304.727H884.757C886.087 304.727 887.117 304.467 887.857 303.955C888.622 303.439 889 302.671 889 301.639C889 300.612 888.622 299.84 887.857 299.328C887.117 298.812 886.087 298.557 884.757 298.557H879.661V298.557ZM898.378 307.372H895.422V289.741H898.378V307.372Z" fill="#354250"/>
</g>
<defs>
<clipPath id="clip0_4_254">
<rect width="800" height="130.081" fill="white" transform="translate(100 185)"/>
</clipPath>
</defs>
</svg>
