<svg width="1000" height="500" viewBox="0 0 1000 500" fill="none" xmlns="http://www.w3.org/2000/svg">
<path d="M316.044 313.93V300.325C316.044 299.373 316.091 298.423 316.185 297.476C316.234 296.996 316.267 296.615 316.284 296.325C316.06 296.59 315.746 296.913 315.348 297.302C315.1 297.559 314.719 297.915 314.189 298.379L295.723 313.93H291.723V288.773H296.982V301.981C296.982 302.502 296.965 302.958 296.932 303.347L296.849 304.672C296.808 305.26 296.766 305.815 296.742 306.328C297.205 305.79 297.619 305.334 298 304.953C298.331 304.622 298.87 304.167 299.607 303.595L317.303 288.773H321.302V313.93H316.044ZM330.999 313.93V288.773H336.853V298.528H355.129V288.773H361.033V313.93H355.129V303.107H336.853V313.93H330.999V313.93ZM385.503 293.261V313.93H379.648V293.261H368.105V288.773H397.104V293.261H385.511H385.503ZM402.453 313.93V288.773H428.198V293.054H408.308V298.668H419.909V302.958H408.316V309.201H428.438V313.921H402.453V313.93ZM436.719 313.93V288.773H458.215C460.195 288.773 461.652 289.146 462.604 289.899C463.49 290.669 463.929 291.92 463.929 293.65V299.256C463.929 300.946 463.482 302.179 462.604 302.958C461.677 303.736 460.211 304.134 458.215 304.134H442.466V313.93H436.719V313.93ZM455.64 293.112H442.474V299.795H455.64C456.667 299.795 457.363 299.646 457.735 299.347C458.091 299.058 458.273 298.536 458.273 297.791V295.116C458.273 294.371 458.091 293.849 457.735 293.559C457.363 293.261 456.659 293.112 455.64 293.112V293.112ZM475.605 313.93V288.773H481.459V298.528H499.735V288.773H505.639V313.93H499.735V303.107H481.468V313.93H475.613H475.605ZM514.259 313.93V288.773H540.004V293.054H520.114V298.668H531.723V302.958H520.114V309.201H540.253V313.921H514.259V313.93ZM564.035 293.261V313.93H558.18V293.261H546.637V288.773H575.636V293.261H564.043H564.035Z" fill="#585758"/>
<path d="M601.074 313.93V288.773H605.794L617.636 303.976L629.237 288.773H633.932V313.93H628.516V298.37C628.516 297.923 628.533 297.542 628.566 297.252L628.707 295.696C628.541 295.994 628.401 296.275 628.268 296.549C628.136 296.83 628.003 297.079 627.887 297.294C627.701 297.654 627.485 297.997 627.241 298.321L617.801 310.907H616.617L607.169 298.279C606.912 297.965 606.622 297.509 606.291 296.905C606.035 296.526 605.821 296.121 605.653 295.696L605.802 297.161V313.93H601.082H601.074ZM640.515 313.93L654.692 288.773H660.348L674.781 313.93H668.198L665.175 308.423H649.251L646.32 313.93H640.524H640.515ZM651.777 303.885H662.79L657.333 293.65L651.785 303.885H651.777ZM682.962 313.93V288.773H705.925L703.192 293.162H688.817V313.93H682.962V313.93ZM710.612 313.93L724.788 288.773H730.444L744.869 313.93H738.294L735.271 308.423H719.339L716.416 313.93H710.612ZM721.873 303.885H732.887L727.421 293.65L721.873 303.885V303.885ZM758.515 298.039L752.669 297.112V294.718C752.669 292.441 753.092 290.885 753.928 290.048C754.831 289.195 756.487 288.773 758.896 288.773H773.909C776.336 288.773 777.992 289.195 778.878 290.048C779.731 290.893 780.153 292.45 780.153 294.718V297.551C780.153 298.304 779.88 298.958 779.325 299.53C778.754 300.103 778.072 300.553 777.321 300.855C778.265 301.368 778.977 301.848 779.449 302.295C779.921 302.743 780.153 303.504 780.153 304.573V309.201C780.153 310.916 779.582 312.133 778.431 312.845C777.389 313.529 776.174 313.902 774.928 313.921H758.905C756.487 313.921 754.831 313.507 753.936 312.663C753.092 311.826 752.669 310.261 752.669 307.976V304.995L758.515 303.786V309.201H774.299V303.546H765.67V298.619H774.299V293.261H758.515V298.039ZM814.079 313.93V300.325C814.067 298.987 814.148 297.651 814.319 296.325C813.676 297.061 812.976 297.745 812.224 298.37L793.758 313.93H789.759V288.773H795.017V301.981C795.017 302.502 795 302.958 794.967 303.347L794.884 304.672L794.777 306.328C795.24 305.79 795.663 305.334 796.044 304.953C796.375 304.622 796.913 304.167 797.65 303.595L815.346 288.773H819.337V313.93H814.079V313.93ZM829.034 313.93V288.773H834.888V298.528H853.164V288.773H859.068V313.93H853.164V303.107H834.888V313.93H829.034Z" fill="#585758"/>
<path d="M224.6 179.41H163.381C154.496 179.434 145.982 182.974 139.699 189.257C133.416 195.539 129.876 204.053 129.852 212.938V256.826C129.852 273.836 136.609 290.148 148.637 302.176C160.664 314.203 176.977 320.96 193.986 320.96C210.996 320.96 227.308 314.203 239.336 302.176C251.363 290.148 258.12 273.836 258.12 256.826V212.938C258.096 204.056 254.558 195.545 248.279 189.262C242 182.98 233.49 179.438 224.608 179.41H224.6Z" fill="#CD050B"/>
<path d="M129.852 233.516V256.826C129.852 273.836 136.609 290.148 148.637 302.176C160.664 314.203 176.977 320.96 193.986 320.96C210.996 320.96 227.308 314.203 239.336 302.176C251.363 290.148 258.12 273.836 258.12 256.826V233.516C238.135 243.209 216.206 248.229 193.994 248.198C171.777 248.231 149.843 243.211 129.852 233.516V233.516Z" fill="url(#paint0_radial_4_252)"/>
<path d="M224.6 179.41H163.381C154.496 179.434 145.982 182.974 139.699 189.257C133.416 195.539 129.876 204.053 129.852 212.938C149.843 222.631 171.777 227.652 193.994 227.62C216.982 227.62 238.743 222.345 258.129 212.938C258.105 204.055 254.566 195.542 248.285 189.259C242.004 182.977 233.492 179.436 224.608 179.41H224.6Z" fill="url(#paint1_radial_4_252)"/>
<path d="M224.6 179.41H163.381C154.496 179.434 145.982 182.974 139.699 189.257C133.416 195.539 129.876 204.053 129.852 212.938C149.843 222.631 171.777 227.652 193.994 227.62C216.982 227.62 238.743 222.345 258.129 212.938C258.105 204.055 254.566 195.542 248.285 189.259C242.004 182.977 233.492 179.436 224.608 179.41H224.6Z" fill="#D01E00"/>
<path d="M191.56 233.201C195.537 233.204 199.35 234.788 202.16 237.602C204.97 240.417 206.547 244.233 206.544 248.21C206.54 252.187 204.957 256 202.143 258.81C199.328 261.62 195.512 263.197 191.535 263.194C187.558 263.191 183.745 261.608 180.935 258.793C178.125 255.978 176.548 252.162 176.551 248.185C176.554 244.208 178.137 240.395 180.952 237.585C183.767 234.775 187.583 233.198 191.56 233.201V233.201Z" fill="white"/>
<path d="M191.527 292.069C185.538 292.059 179.615 290.828 174.119 288.45C168.623 286.073 163.67 282.598 159.563 278.24C158.654 277.274 157.944 276.138 157.474 274.898C157.004 273.658 156.783 272.337 156.824 271.011C156.865 269.685 157.166 268.38 157.712 267.171C158.257 265.962 159.035 264.872 160.002 263.964C160.968 263.053 162.103 262.341 163.344 261.87C164.585 261.398 165.907 261.176 167.234 261.216C168.56 261.256 169.866 261.558 171.076 262.103C172.287 262.648 173.377 263.427 174.286 264.395C178.808 269.197 184.927 271.847 191.527 271.847C197.796 271.836 203.806 269.34 208.238 264.905C212.669 260.47 215.162 254.459 215.168 248.189C215.157 241.922 212.663 235.915 208.232 231.484C203.8 227.053 197.794 224.559 191.527 224.548C184.927 224.548 178.816 227.198 174.303 231.992C172.439 233.827 169.938 234.868 167.323 234.899C164.708 234.93 162.182 233.947 160.276 232.156C158.37 230.366 157.231 227.907 157.098 225.295C156.965 222.683 157.849 220.121 159.563 218.147C163.672 213.791 168.625 210.319 174.121 207.943C179.617 205.566 185.539 204.336 191.527 204.326C203.155 204.342 214.303 208.968 222.526 217.19C230.748 225.413 235.374 236.561 235.39 248.189C235.379 259.82 230.755 270.973 222.532 279.199C214.308 287.425 203.158 292.053 191.527 292.069V292.069Z" fill="white"/>
<path opacity="0.5" d="M224.6 179.41H163.381C154.496 179.434 145.982 182.974 139.699 189.257C133.416 195.539 129.876 204.053 129.852 212.938V256.826C129.852 273.836 136.609 290.148 148.637 302.176C160.664 314.203 176.977 320.96 193.986 320.96C210.996 320.96 227.308 314.203 239.336 302.176C251.363 290.148 258.12 273.836 258.12 256.826V212.938C258.096 204.056 254.558 195.545 248.279 189.262C242 182.98 233.49 179.438 224.608 179.41H224.6ZM256.737 256.834C256.737 291.423 228.583 319.569 193.994 319.569C159.389 319.569 131.243 291.423 131.243 256.826V212.938C131.243 195.218 145.652 180.809 163.372 180.809H224.608C242.329 180.809 256.737 195.218 256.737 212.938V256.826V256.834Z" fill="white"/>
<path d="M224.6 179.41H163.381C154.496 179.434 145.982 182.974 139.699 189.257C133.416 195.539 129.876 204.053 129.852 212.938V256.826C129.852 273.836 136.609 290.148 148.637 302.176C160.664 314.203 176.977 320.96 193.986 320.96C210.996 320.96 227.308 314.203 239.336 302.176C251.363 290.148 258.12 273.836 258.12 256.826V212.938C258.096 204.056 254.558 195.545 248.279 189.262C242 182.98 233.49 179.438 224.608 179.41H224.6ZM256.737 256.834C256.737 291.423 228.583 319.569 193.994 319.569C159.389 319.569 131.243 291.423 131.243 256.826V212.938C131.243 195.218 145.652 180.809 163.372 180.809H224.608C242.329 180.809 256.737 195.218 256.737 212.938V256.826V256.834Z" fill="#8B1500"/>
<path d="M424.944 195.797L463.888 266.548H444.701L416.448 210.736L387.796 266.548H370.655L409.045 195.797H424.96H424.944ZM574.974 225.277L614.191 195.797H638.048L591.146 229.119L643.803 266.548H617.346L574.965 235.429V266.548H558.52V195.797H574.965V225.277H574.974ZM531.815 244.612C530.008 248.282 527.21 251.373 523.737 253.535C520.264 255.697 516.255 256.842 512.164 256.843H498.278C492.576 256.837 487.1 254.612 483.009 250.64C478.918 246.668 476.533 241.26 476.359 235.561H546.62V225.293C546.62 216.81 543.252 208.674 537.255 202.674C531.258 196.674 523.124 193.301 514.64 193.296H494.411C490.208 193.296 486.047 194.124 482.164 195.733C478.281 197.341 474.754 199.699 471.783 202.671C468.811 205.643 466.455 209.171 464.847 213.054C463.24 216.937 462.413 221.099 462.414 225.301V236.936C462.416 245.42 465.788 253.557 471.788 259.555C477.789 265.554 485.926 268.924 494.411 268.924H514.64C521.38 268.924 527.947 266.796 533.405 262.841C538.862 258.887 542.931 253.31 545.031 246.906L531.823 244.612H531.815ZM498.278 204.914H512.164C517.473 204.916 522.602 206.843 526.599 210.338C530.596 213.832 533.19 218.657 533.901 223.918H476.532C477.247 218.659 479.842 213.836 483.839 210.342C487.835 206.848 492.961 204.92 498.269 204.914H498.278ZM339.321 193.296H319.099C312.913 193.296 306.859 195.089 301.671 198.459C296.482 201.829 292.383 206.631 289.869 212.284L303.308 214.619H303.581C305.589 211.63 308.302 209.181 311.481 207.488C314.66 205.795 318.206 204.912 321.807 204.914H335.702C340.856 204.918 345.844 206.734 349.794 210.045C353.744 213.356 356.403 217.95 357.307 223.024H357.149C356.884 222.905 356.596 222.843 356.305 222.842H325.128C324.844 222.845 324.564 222.904 324.304 223.016C324.043 223.128 323.807 223.29 323.61 223.493C323.412 223.696 323.256 223.936 323.152 224.2C323.047 224.463 322.995 224.745 323 225.028V234.592C322.995 234.876 323.047 235.157 323.152 235.421C323.256 235.684 323.412 235.924 323.61 236.127C323.807 236.331 324.043 236.493 324.304 236.604C324.564 236.716 324.844 236.775 325.128 236.778H356.305C356.619 236.778 356.918 236.696 357.182 236.58H357.58C357.151 242.091 354.659 247.239 350.603 250.994C346.546 254.75 341.222 256.838 335.694 256.843H321.816C317.719 256.838 313.706 255.688 310.229 253.522C306.753 251.357 303.951 248.262 302.141 244.587L288.726 246.989C290.84 253.377 294.915 258.937 300.371 262.877C305.827 266.816 312.386 268.935 319.116 268.932H339.321C343.522 268.932 347.683 268.105 351.564 266.497C355.446 264.889 358.973 262.532 361.943 259.56C364.914 256.589 367.27 253.062 368.877 249.18C370.484 245.298 371.31 241.137 371.309 236.936V225.301C371.312 221.1 370.486 216.939 368.88 213.057C367.274 209.174 364.919 205.646 361.949 202.674C358.979 199.702 355.453 197.344 351.572 195.735C347.691 194.126 343.531 193.297 339.329 193.296H339.321Z" fill="#CD050B"/>
<path d="M704.277 244.687C702.461 248.338 699.663 251.411 696.195 253.559C692.728 255.706 688.73 256.844 684.652 256.843H670.773C667.889 256.843 665.033 256.274 662.368 255.17C659.703 254.066 657.281 252.448 655.242 250.408C653.203 248.368 651.585 245.946 650.482 243.28C649.379 240.615 648.812 237.758 648.813 234.874V226.875C648.812 223.991 649.379 221.136 650.482 218.471C651.584 215.807 653.201 213.386 655.24 211.347C657.278 209.307 659.699 207.69 662.362 206.586C665.026 205.482 667.882 204.914 670.765 204.914H684.652C692.047 204.914 698.572 208.566 702.547 214.156L716.077 211.746C713.504 206.234 709.411 201.571 704.281 198.303C699.15 195.035 693.194 193.298 687.111 193.296H666.89C658.403 193.299 650.264 196.671 644.264 202.673C638.264 208.675 634.893 216.815 634.893 225.301V236.936C634.895 245.42 638.267 253.557 644.268 259.555C650.268 265.554 658.405 268.924 666.89 268.924H687.111C701.271 268.924 713.27 259.733 717.493 246.98L704.269 244.687H704.277Z" fill="#CD050B"/>
<path d="M849.769 268.916H746.153C739.776 268.916 734.601 263.74 734.601 257.356V204.956C734.601 198.571 739.785 193.387 746.153 193.387H849.769C856.162 193.387 861.329 198.571 861.329 204.956V257.356C861.329 263.732 856.162 268.916 849.769 268.916Z" fill="#CD050B"/>
<path d="M798.619 217.004C796.441 215.116 793.121 214.205 788.475 214.205H764.246V251.137H771.318V237.391H788.533C793.237 237.391 796.557 236.646 798.627 235.114C799.842 234.183 800.748 232.907 801.228 231.454C801.724 230.046 801.989 228.307 801.989 226.295C801.989 222.047 800.855 218.925 798.619 217.004V217.004ZM794.893 226.295C794.893 228.787 794.297 229.524 794.04 229.707C793.825 229.872 792.881 230.402 789.527 230.402H771.326V221.194H789.875C791.821 221.194 793.204 221.55 793.883 222.213C794.727 223.074 794.901 224.912 794.901 226.295H794.893ZM837.505 214.205L824.695 235.934L810.85 214.205H802.528L820.621 242.095C820.248 242.72 819.762 243.27 819.188 243.718C819.039 243.817 818.369 244.148 816.365 244.148H813.35V251.137H816.315C819.437 251.137 821.921 250.417 823.701 248.984C825.341 247.676 827.386 244.951 829.945 240.67L845.877 214.205H837.514H837.505ZM747.643 245.523H753.29V251.17H747.643V245.523Z" fill="white"/>
<defs>
<radialGradient id="paint0_radial_4_252" cx="0" cy="0" r="1" gradientUnits="userSpaceOnUse" gradientTransform="translate(193.986 100.759) scale(219.679 219.679)">
<stop offset="0.66" stop-color="#A8050B"/>
<stop offset="1" stop-color="#CD050B"/>
</radialGradient>
<radialGradient id="paint1_radial_4_252" cx="0" cy="0" r="1" gradientUnits="userSpaceOnUse" gradientTransform="translate(193.986 100.751) scale(126.538 126.538)">
<stop offset="0.66" stop-color="#F0786E"/>
<stop offset="1" stop-color="#D01E00"/>
</radialGradient>
</defs>
</svg>
