<svg width="1000" height="500" viewBox="0 0 1000 500" fill="none" xmlns="http://www.w3.org/2000/svg">
<path d="M752.848 203.497H729.285C724.751 203.315 720.319 204.878 716.902 207.862C713.484 210.847 711.339 215.028 710.909 219.545L700.63 272.879C698.788 282.576 701.6 288.976 712.897 288.976H736.606C741.182 289.256 745.685 287.725 749.142 284.713C752.598 281.701 754.731 277.45 755.079 272.879L765.697 219.545C767.394 210.091 764.533 203.497 753.042 203.497H752.848ZM746.885 223.133L737.77 269.533C737.776 269.915 737.707 270.295 737.567 270.65C737.427 271.006 737.218 271.33 736.952 271.605C736.686 271.879 736.369 272.099 736.019 272.251C735.668 272.403 735.291 272.485 734.909 272.491H721.382C719.491 272.491 719.055 271.764 719.297 269.582L728.315 223.182C728.945 221.097 729.915 220.127 731.661 220.127H744.848C746.545 220.127 747.418 221.097 747.079 223.182L746.885 223.133ZM680.945 272.442L694.424 203.497H657.576C652.96 203.161 648.397 204.657 644.877 207.661C641.356 210.665 639.159 214.934 638.764 219.545L623.879 272.442H616.17L612.776 289.17H683.079L686.424 272.442H680.945ZM672.897 220.079L662.424 272.442H643.03L656.412 223.133C656.412 222.323 656.734 221.546 657.307 220.973C657.88 220.401 658.657 220.079 659.467 220.079H672.848H672.897ZM605.018 289.17L607.297 204.03H582.473L541.455 289.461H561.236L568.073 273.655H585.818L584.509 289.461L605.018 289.17ZM589.648 226.139L586.982 259.545H574.085L588.63 226.139H589.648ZM552.17 219.545C554.109 210.091 551.2 203.497 539.758 203.497H500.97L484.145 289.17H501.939L506.788 264.345H528.121C539.515 264.345 544.218 257.461 546.351 248.006L552.17 219.545ZM533.6 223.133L529.236 244.515C528.703 246.842 527.636 247.57 525.745 247.57H510.036L515.709 220.079H531.515C533.406 220.079 534.085 221.048 533.842 223.133H533.6ZM481.382 219.545C483.224 210.091 480.364 203.497 468.873 203.497H445.551C440.87 203.141 436.233 204.615 432.616 207.608C428.999 210.601 426.684 214.88 426.158 219.545L415.976 272.879C414.279 282.576 417.042 288.976 428.291 288.976H451.855C456.455 289.296 460.995 287.783 464.484 284.767C467.972 281.751 470.125 277.477 470.473 272.879L481.382 219.545ZM462.715 223.133L453.939 269.533C453.798 270.372 453.356 271.13 452.695 271.666C452.035 272.202 451.201 272.478 450.352 272.442H437.164C435.418 272.442 434.836 271.715 435.079 269.533L444.242 223.133C444.242 221.048 445.455 220.079 447.539 220.079H460.533C462.133 220.079 463.152 221.048 462.618 223.133H462.715ZM398.812 272.442L412.242 203.497H375.491C370.926 203.253 366.445 204.789 362.991 207.782C359.536 210.776 357.378 214.993 356.97 219.545L341.794 272.442H334.182L330.691 289.17H401.091L404.388 272.442H398.812ZM390.909 220.079L380.533 272.442H361.139L374.521 223.133C374.508 222.737 374.575 222.342 374.718 221.972C374.861 221.602 375.076 221.264 375.352 220.979C375.628 220.694 375.959 220.467 376.324 220.313C376.689 220.158 377.082 220.079 377.479 220.079H390.909ZM330.158 247.182C331.952 237.485 328.994 230.697 317.6 230.697H296.606L302.036 203.497H283.758L266.982 289.17H306.303C310.908 289.491 315.454 287.979 318.95 284.964C322.447 281.949 324.61 277.675 324.97 273.073L330.158 247.182ZM311.442 249.364L307.661 270.261C307.564 271.182 307.129 272.035 306.439 272.653C305.749 273.271 304.854 273.611 303.927 273.606H288.509L293.939 246.261H309.455C311.248 246.261 311.927 247.133 311.442 249.315V249.364ZM249.333 289.17L266.012 204.03H227.224C222.619 203.721 218.076 205.227 214.569 208.227C211.061 211.227 208.869 215.481 208.461 220.079L188.533 289.412H207.927L225.867 223.376C225.86 222.981 225.932 222.589 226.077 222.222C226.222 221.854 226.438 221.519 226.713 221.236C226.987 220.952 227.315 220.725 227.677 220.568C228.04 220.412 228.429 220.327 228.824 220.321H244.776L230.909 289.17H249.333ZM191.442 219.545C193.236 210.091 190.473 203.497 179.224 203.497H144.218L140.921 220.079H170.739C172.533 220.079 173.067 221.048 172.824 223.133L169.042 242.818H150.473L153.333 229.194L110.376 249.751H142.279L139.515 263.327L167.879 249.848L164.097 269.242C163.987 270.105 163.547 270.891 162.868 271.433C162.189 271.976 161.326 272.234 160.461 272.151H130.691L127.539 288.879H162.642C167.161 289.199 171.622 287.715 175.048 284.753C178.474 281.79 180.586 277.59 180.921 273.073V272.782L191.442 219.545ZM765.358 269.436L761.527 289.17H779.564L783.442 269.436H765.358V269.436ZM890.303 229.194H877.164L868.242 275.012C868.274 275.225 868.255 275.443 868.189 275.648C868.123 275.852 868.01 276.039 867.861 276.194C867.711 276.349 867.527 276.467 867.324 276.539C867.122 276.612 866.905 276.637 866.691 276.612H856.994C856.121 276.612 855.83 276.224 856.073 275.012L864.8 229.194H851.515L842.255 277C840.848 284.176 842.739 289.17 851.418 289.17H866.497C868.223 289.302 869.959 289.091 871.604 288.551C873.249 288.01 874.771 287.149 876.082 286.018C877.393 284.887 878.468 283.508 879.244 281.961C880.02 280.413 880.483 278.727 880.606 277L890.303 229.194ZM829.261 229.194H802.158L790.764 289.17H803.03L806.57 272.103H812.727L815.394 289.17H829.115L825.479 271.327C827.826 270.528 829.892 269.07 831.431 267.126C832.971 265.183 833.917 262.837 834.158 260.37L838.085 240.442C839.442 233.848 837.406 229.048 829.406 229.048L829.261 229.194ZM824.945 242.818L821.891 257.364C821.552 259.012 820.824 259.497 819.515 259.497H808.606L812.533 240.103H823.394C824.655 240.103 825.139 240.83 824.994 242.285" fill="#C10230"/>
</svg>
