<svg width="1000" height="500" viewBox="0 0 1000 500" fill="none" xmlns="http://www.w3.org/2000/svg">
<path d="M481 290.286H493.571L511.143 225V290.286H525.286V204H505.857L488.286 267.286L470.714 204H450.857V290.286H463V225L481 290.286ZM584.429 247.571C584.429 232.286 576.857 226.571 561.143 226.571C551.286 226.571 543.571 229.571 539 232.286V244.429C542.857 241.429 551.571 238.286 559.286 238.286C566.571 238.286 569.571 241 569.571 247.429V250.857H567.286C544.714 250.857 534.429 258.429 534.429 271.143C534.429 283.857 542 291 553.571 291C562.286 291 566.143 288.286 568.857 285.286H569.571C569.571 286.857 570.286 289.143 570.714 290.286H585.286C584.857 285.286 584.571 280 584.571 275C584.429 275 584.429 247.571 584.429 247.571ZM569.571 275.429C567.714 278.143 564.286 280.429 558.857 280.429C552.714 280.429 549.714 276.571 549.714 271.286C549.714 264 554.714 261.429 567.714 261.429H570V275.571H569.571V275.429ZM610 227.714H596.286V308.286H611.143V283.143C615 288.857 620.286 291.571 626.857 291.571C641.429 291.571 651.286 280.143 651.286 259.143C651.286 238.143 641.714 226.714 627.571 226.714C620.714 226.714 615 229.714 610.714 235.857C610.857 235.714 610 227.714 610 227.714ZM622.714 280C615.143 280 610.857 273.571 610.857 259.429C610.857 244.857 615 238.429 623.429 238.429C631.429 238.429 635.571 244.857 635.571 259C635.571 273.571 631.429 280 622.714 280ZM697.429 290.286H714.286L690.571 256.714L711.571 227.714H696.714L675.714 256.714V227.714H660.857V290.286H675.714V259.714L697.429 290.286ZM763.857 286.143V274C759.286 277 751.714 279.714 744.429 279.714C733.714 279.714 729.571 274.714 728.714 264H764.143V256C764.143 234.286 754.571 226.286 739.714 226.286C721.714 226.286 713 240 713 259.143C713 280.857 723.714 291.571 742.429 291.571C752.857 291.429 759.714 289.143 763.857 286.143ZM739.857 238.429C747.143 238.429 749.429 244.571 749.429 252.143V253.286H728.714C729.143 243.429 733 238.429 739.857 238.429ZM817.286 239.571V227.714H767.714V239.571H785.286V290.286H800.143V239.571H817.286Z" fill="black"/>
<path d="M362.714 305.571C394.429 305.571 420 280 420 248.286C420 216.571 394.429 191 362.714 191C331 191 305.429 216.571 305.429 248.286C305.143 280 331.143 305.571 362.714 305.571Z" fill="#FED42B"/>
<path d="M240.286 305.571C271.924 305.571 297.571 279.924 297.571 248.286C297.571 216.648 271.924 191 240.286 191C208.648 191 183 216.648 183 248.286C183 279.924 208.648 305.571 240.286 305.571Z" fill="#FC3F1D"/>
<path d="M248.571 223.143H242.857C233 223.143 228 228.143 228 235.714C228 244.143 231.429 248.286 238.714 253.286L244.429 257.429L228 283H214.571L230.286 259.714C221.143 253.286 216.143 247.143 216.143 236.429C216.143 223 225.286 213.857 242.857 213.857H260.429V282.571H249V223H248.571V223.143Z" fill="white"/>
<path d="M334.571 222.429L284.143 288.429L297.571 303.714L335 254.143L331.143 281.286L352.143 288.571L377.714 247.714C376.571 255.286 374.714 272.857 391.429 278.286C417.714 286.286 440.714 239 451.286 215L436 207C424.143 231.857 405.857 259.286 398.571 257.429C391.286 255.571 397.857 232.286 402 217.286V216.857L378.714 208.857L350.857 254.286L354.714 229.429L334.571 222.429Z" fill="black"/>
</svg>
